<?xml version="1.0" standalone="no"?>
<!DOCTYPE svg PUBLIC "-//W3C//DTD SVG 1.1//EN" "http://www.w3.org/Graphics/SVG/1.1/DTD/svg11.dtd" >
<svg xmlns="http://www.w3.org/2000/svg">
<metadata></metadata>
<defs>
<font id="daxcompact-regularexpertRg" horiz-adv-x="1433" >
<font-face units-per-em="2048" ascent="1638" descent="-410" />
<missing-glyph horiz-adv-x="507" />
<glyph unicode="&#xfb01;" d="M270 809l441 442l442 -442l-442 -440zM502 809l104 -104l211 210l105 -106l-211 -209l106 -104l313 313l-419 420l-105 -105l105 -104z" />
<glyph unicode="&#xfb02;" d="M270 809l441 442l442 -442l-442 -440zM502 809l104 -104l211 210l105 -106l-211 -209l106 -104l313 313l-419 420l-105 -105l105 -104z" />
<glyph horiz-adv-x="2048" />
<glyph horiz-adv-x="2048" />
<glyph unicode="&#xd;" horiz-adv-x="507" />
<glyph unicode=" "  horiz-adv-x="507" />
<glyph unicode="&#x09;" horiz-adv-x="507" />
<glyph unicode="&#xa0;" horiz-adv-x="507" />
<glyph unicode="!" horiz-adv-x="438" d="M147 -328v799h144v-799h-144zM147 942v778h144v-778h-144z" />
<glyph unicode="&#x22;" horiz-adv-x="466" d="M33 1368l149 242q16 14 37 24.5t49 10.5q25 0 38 -10.5t13 -22.5l-215 -244h-71zM272 1368l150 242q16 14 36.5 24.5t49.5 10.5q25 0 38 -10.5t13 -22.5l-215 -244h-72z" />
<glyph unicode="#" horiz-adv-x="991" d="M145 547v131q29 27 77 49.5t108 22.5q49 0 90 -14.5t80 -31t77.5 -31t84.5 -14.5q55 0 104 24t80 52v-133q-29 -27 -77 -49.5t-107 -22.5q-49 0 -91.5 14.5t-80 31t-76.5 31t-84 14.5q-55 0 -104.5 -23t-80.5 -51zM145 893v133q29 27 77 49.5t108 22.5q49 0 90 -14.5 t80 -32t77.5 -31.5t84.5 -14q55 0 104 23.5t80 51.5v-131q-29 -27 -77 -49t-107 -22q-49 0 -91.5 14t-80 30.5t-76.5 31t-84 14.5q-55 0 -104.5 -23.5t-80.5 -52.5z" />
<glyph unicode="$" horiz-adv-x="655" d="M57 -209q10 -2 20.5 -2h22.5q59 0 102.5 43t43.5 143v1442q0 84 22.5 143.5t61.5 97.5t93 55.5t118 17.5q14 0 29.5 -1t27.5 -4v-118q-10 2 -20.5 2h-22.5q-59 0 -102 -43t-43 -144v-1448q0 -84 -22.5 -143t-61.5 -97t-93.5 -55.5t-117.5 -17.5q-14 0 -29.5 1t-28.5 3 v125z" />
<glyph unicode="%" d="M270 809l441 442l442 -442l-442 -440zM502 809l104 -104l211 210l105 -106l-211 -209l106 -104l313 313l-419 420l-105 -105l105 -104z" />
<glyph unicode="&#x26;" horiz-adv-x="991" d="M80 -328l465 1078l-465 970h794v-155h-567l412 -815l-418 -916h588v-162h-809z" />
<glyph unicode="'" d="M270 809l441 442l442 -442l-442 -440zM502 809l104 -104l211 210l105 -106l-211 -209l106 -104l313 313l-419 420l-105 -105l105 -104z" />
<glyph unicode="(" d="M270 809l441 442l442 -442l-442 -440zM502 809l104 -104l211 210l105 -106l-211 -209l106 -104l313 313l-419 420l-105 -105l105 -104z" />
<glyph unicode=")" d="M270 809l441 442l442 -442l-442 -440zM502 809l104 -104l211 210l105 -106l-211 -209l106 -104l313 313l-419 420l-105 -105l105 -104z" />
<glyph unicode="*" d="M270 809l441 442l442 -442l-442 -440zM502 809l104 -104l211 210l105 -106l-211 -209l106 -104l313 313l-419 420l-105 -105l105 -104z" />
<glyph unicode="+" d="M270 809l441 442l442 -442l-442 -440zM502 809l104 -104l211 210l105 -106l-211 -209l106 -104l313 313l-419 420l-105 -105l105 -104z" />
<glyph unicode="," horiz-adv-x="466" d="M72 1532q0 68 47 115t114 47q68 0 115 -47t47 -115t-47 -115t-115 -47t-114.5 47t-46.5 115zM141 1532q0 -39 27 -66.5t65 -27.5q39 0 66 27.5t27 66.5t-27 67.5t-66 28.5t-65.5 -28.5t-26.5 -67.5z" />
<glyph unicode="-" horiz-adv-x="991" d="M145 754v127h701v-127h-701z" />
<glyph unicode="." horiz-adv-x="466" d="M137 1485q0 41 28 68.5t68 27.5q41 0 69 -27.5t28 -68.5t-28 -68.5t-69 -27.5t-68.5 27.5t-27.5 68.5z" />
<glyph unicode="/" horiz-adv-x="301" d="M-221 20l629 1721l114 -41l-628 -1720z" />
<glyph unicode="0" horiz-adv-x="1040" d="M66 860l454 885l455 -885l-455 -885zM250 866l270 -596l271 596l-271 594z" />
<glyph unicode="1" horiz-adv-x="724" d="M111 1581q39 6 80.5 18.5t77.5 31t64.5 41t41.5 48.5h90v-1034h-129v860q-41 -18 -100.5 -31.5t-112.5 -17.5z" />
<glyph unicode="2" horiz-adv-x="724" d="M86 686l301 561q35 66 51.5 114t16.5 97q0 68 -39 121t-127 53q-43 0 -85 -12t-67 -29l-37 90q35 23 90.5 41.5t112.5 18.5q143 0 213 -80t70 -197q0 -57 -28 -124.5t-69 -141.5l-221 -387h340v-125h-522z" />
<glyph unicode="3" horiz-adv-x="724" d="M92 727l41 98q25 -16 68 -31.5t90 -15.5q76 0 124 55.5t48 141.5q0 98 -61.5 153.5t-170.5 57.5v86q96 8 157 67.5t61 143.5q0 66 -39 107.5t-111 41.5q-43 0 -85 -12t-67 -27l-38 88q35 23 90 41.5t110 18.5q129 0 199 -69.5t70 -180.5q0 -43 -16.5 -82t-40 -69.5 t-50.5 -53t-49 -35.5v-4q25 -12 55.5 -33.5t57 -54.5t44 -79t17.5 -105q0 -66 -22.5 -123t-61.5 -98t-93 -64.5t-118 -23.5q-66 0 -119 17t-90 44z" />
<glyph unicode="4" horiz-adv-x="1474" d="M70 1561q92 12 164.5 57t99.5 102h90v-1034h-129v840q-47 -20 -102.5 -31.5t-110.5 -15.5zM360 20l629 1721l115 -41l-629 -1720zM846 229v95l338 710h119v-710h67v-95h-67v-229h-127v229h-330zM944 324h236v407v41t2 37q0 20 2 37h-4q-6 -16 -13 -35q-6 -16 -12 -34.5 t-16 -37.5z" />
<glyph unicode="5" horiz-adv-x="1474" d="M70 1581q39 6 81 18.5t77.5 31t64.5 41t41 48.5h90v-1034h-129v860q-41 -18 -100.5 -31.5t-112.5 -17.5zM319 20l629 1721l117 -41l-629 -1720zM860 0l318 561q37 66 52 114t15 97q0 70 -33.5 122t-119.5 52q-39 0 -77 -12t-63 -29l-37 90q35 23 87.5 41.5t103.5 18.5 q143 0 207.5 -79t64.5 -198q0 -57 -26.5 -125.5t-71.5 -140.5l-236 -387h336v-125h-520z" />
<glyph unicode="6" horiz-adv-x="1474" d="M90 727l39 98q25 -16 69 -31.5t91 -15.5q76 0 123 55.5t47 141.5q0 98 -61.5 153.5t-170.5 57.5v86q96 8 156.5 67.5t60.5 143.5q0 66 -38.5 107.5t-110.5 41.5q-43 0 -85 -12t-67 -27l-39 88q35 23 91.5 41.5t111.5 18.5q129 0 197.5 -69.5t68.5 -180.5q0 -43 -16 -82 t-39.5 -69.5t-50.5 -53t-49 -35.5v-4q25 -12 55.5 -33.5t57 -54.5t45 -79t18.5 -105q0 -66 -22.5 -123t-62.5 -98t-94.5 -64.5t-117.5 -23.5q-66 0 -118 17t-89 44zM418 18l629 1721l114 -43l-629 -1721zM846 229v95l338 710h119v-710h67v-95h-67v-229h-127v229h-330z M944 324h236v407v41t2 37q0 20 2 37h-4q-6 -16 -13 -35q-6 -16 -12 -34.5t-16 -37.5z" />
<glyph unicode="7" d="M270 809l441 442l442 -442l-442 -440zM502 809l104 -104l211 210l105 -106l-211 -209l106 -104l313 313l-419 420l-105 -105l105 -104z" />
<glyph unicode="8" horiz-adv-x="1515" d="M104 815q0 70 20.5 136.5t61.5 117.5t101.5 82t142.5 31q57 0 105.5 -20.5t88.5 -55.5t72.5 -80t63.5 -94q31 49 63.5 94t71.5 80t86 55.5t104 20.5q82 0 142.5 -31t101.5 -82t61.5 -117.5t20.5 -136.5t-20.5 -135.5t-61.5 -116.5t-101.5 -81.5t-142.5 -30.5 q-59 0 -106 20.5t-87 55t-73 79.5t-63 94q-31 -49 -64 -94t-71.5 -79.5t-86 -55t-104.5 -20.5q-82 0 -142.5 30.5t-101.5 81.5t-61.5 116.5t-20.5 135.5zM223 813q0 -98 54.5 -164.5t152.5 -66.5q43 0 79 18t66.5 51t58 74t54.5 88q-27 45 -54.5 87t-58 74t-66.5 50t-79 18 q-98 0 -152.5 -65.5t-54.5 -163.5zM827 821q27 -45 54.5 -86t58.5 -72.5t66.5 -50t78.5 -18.5q98 0 152.5 65.5t54.5 163.5t-54 164t-153 66q-43 0 -78.5 -18.5t-66.5 -51.5t-58.5 -75t-54.5 -87z" />
<glyph unicode="9" horiz-adv-x="991" d="M96 440q0 109 28 213.5t86 185.5t145 131t208 50q41 0 80 -9.5t68 -23.5q-16 125 -54.5 227.5t-91.5 180.5t-116.5 133t-129.5 86l58 129q98 -43 190 -124t163 -197.5t114 -269.5t43 -339q0 -174 -26.5 -325.5t-84 -264t-144.5 -178t-206 -65.5q-84 0 -146.5 34.5 t-103.5 97t-60.5 146.5t-19.5 182zM258 440q0 -145 42 -231t134 -86q74 0 130.5 56.5t94 156.5t54 237t10.5 301q-25 10 -60.5 18.5t-78.5 8.5q-90 0 -152.5 -42t-101.5 -108.5t-55.5 -148.5t-16.5 -162z" />
<glyph unicode=":" horiz-adv-x="466" d="M-2 1606l72 24q18 -68 59 -106.5t104 -38.5t104.5 39t59.5 106l72 -24q-2 -31 -15.5 -70t-42 -72.5t-72.5 -56.5t-106 -23q-61 0 -105 23t-72.5 56.5t-42 72.5t-15.5 70z" />
<glyph unicode=";" horiz-adv-x="466" d="M-2 1602l43 53l192 -164l193 164l43 -53l-178 -205q-25 -29 -58 -29t-57 29z" />
<glyph unicode="&#x3c;" horiz-adv-x="991" d="M145 233v121h701v-121h-701zM145 782v117l701 295v-141l-565 -211l565 -211v-142z" />
<glyph unicode="=" horiz-adv-x="991" d="M145 586v127h242l107 209h-349v127h412l115 227l88 -45l-90 -182h176v-127h-240l-106 -209h346v-127h-410l-119 -236l-88 47l95 189h-179z" />
<glyph unicode="&#x3e;" horiz-adv-x="991" d="M145 233v121h701v-121h-701zM145 489v142l566 211l-566 211v141l701 -295v-117z" />
<glyph unicode="?" d="M270 809l441 442l442 -442l-442 -440zM502 809l104 -104l211 210l105 -106l-211 -209l106 -104l313 313l-419 420l-105 -105l105 -104z" />
<glyph unicode="@" d="M270 809l441 442l442 -442l-442 -440zM502 809l104 -104l211 210l105 -106l-211 -209l106 -104l313 313l-419 420l-105 -105l105 -104z" />
<glyph unicode="A" horiz-adv-x="1038" d="M37 0l391 1720h182l391 -1720h-964zM227 125h570l-248 1186q-8 39 -14.5 77.5t-10.5 69.5q-6 37 -10 70h-4q-2 -33 -8 -70q-4 -31 -10.5 -69.5t-14.5 -77.5z" />
<glyph unicode="B" d="M270 809l441 442l442 -442l-442 -440zM502 809l104 -104l211 210l105 -106l-211 -209l106 -104l313 313l-419 420l-105 -105l105 -104z" />
<glyph unicode="C" d="M270 809l441 442l442 -442l-442 -440zM502 809l104 -104l211 210l105 -106l-211 -209l106 -104l313 313l-419 420l-105 -105l105 -104z" />
<glyph unicode="D" horiz-adv-x="1101" d="M74 813v131h102v715q43 29 120 55.5t187 26.5q129 0 224.5 -61.5t160 -175t96 -277.5t31.5 -367t-31.5 -365.5t-96 -277.5t-160 -176t-224.5 -61q-111 0 -188.5 26.5t-118.5 54.5v752h-102zM346 147q16 -8 52 -16t83 -8q166 0 252 183t86 556q0 385 -90 565.5t-248 180.5 q-47 0 -79.5 -7.5t-55.5 -17.5v-639h215v-131h-215v-666z" />
<glyph unicode="E" horiz-adv-x="1249" d="M100 612v123l197 -16q-6 78 -6 158.5t8 158.5l-199 -16v123l211 -17q47 293 193.5 454t380.5 161q100 0 168.5 -25.5t109.5 -56.5l-61 -117q-35 23 -90.5 40t-118.5 17q-174 0 -275.5 -121.5t-136.5 -351.5l504 17v-123l-516 16q-8 -78 -8 -158.5t6 -158.5l518 16v-123 l-508 17q33 -240 135.5 -370t280.5 -130q70 0 121 17.5t86 39.5l63 -125q-41 -31 -109.5 -56t-168.5 -25q-242 0 -390.5 169.5t-189.5 479.5z" />
<glyph unicode="F" horiz-adv-x="1062" d="M76 1130v119h117v170q0 162 72.5 237t201.5 75q14 0 28.5 -1t26.5 -4v-118q-10 2 -19 2h-22q-59 0 -91 -42t-32 -145v-174h164v-119h-164v-1130h-165v1130h-117zM754 0v1720h164v-1720h-164z" />
<glyph unicode="G" d="M270 809l441 442l442 -442l-442 -440zM502 809l104 -104l211 210l105 -106l-211 -209l106 -104l313 313l-419 420l-105 -105l105 -104z" />
<glyph unicode="H" d="M270 809l441 442l442 -442l-442 -440zM502 809l104 -104l211 210l105 -106l-211 -209l106 -104l313 313l-419 420l-105 -105l105 -104z" />
<glyph unicode="I" d="M270 809l441 442l442 -442l-442 -440zM502 809l104 -104l211 210l105 -106l-211 -209l106 -104l313 313l-419 420l-105 -105l105 -104z" />
<glyph unicode="J" d="M270 809l441 442l442 -442l-442 -440zM502 809l104 -104l211 210l105 -106l-211 -209l106 -104l313 313l-419 420l-105 -105l105 -104z" />
<glyph unicode="K" d="M270 809l441 442l442 -442l-442 -440zM502 809l104 -104l211 210l105 -106l-211 -209l106 -104l313 313l-419 420l-105 -105l105 -104z" />
<glyph unicode="L" horiz-adv-x="782" d="M90 854v135l94 39v692h170v-618l178 76v-134l-178 -77v-828h365v-139h-535v895z" />
<glyph unicode="M" d="M270 809l441 442l442 -442l-442 -440zM502 809l104 -104l211 210l105 -106l-211 -209l106 -104l313 313l-419 420l-105 -105l105 -104z" />
<glyph unicode="N" d="M270 809l441 442l442 -442l-442 -440zM502 809l104 -104l211 210l105 -106l-211 -209l106 -104l313 313l-419 420l-105 -105l105 -104z" />
<glyph unicode="O" horiz-adv-x="1130" d="M92 0v139h227q-33 61 -66.5 154.5t-62 203t-47 228.5t-18.5 229q0 176 24.5 321.5t79 249t137.5 160t199 56.5q117 0 200 -56.5t137 -160t79 -249t25 -321.5q0 -111 -18.5 -229.5t-47.5 -228t-62.5 -202.5t-66.5 -155h227v-139h-428q47 72 87 182.5t70 239.5t46 265 t16 259q0 154 -14 275.5t-47 206.5t-83 131.5t-120 46.5q-72 0 -121 -46.5t-81.5 -131.5t-47 -206.5t-14.5 -275.5q0 -123 16.5 -259t45 -265t69.5 -239.5t88 -182.5h-428z" />
<glyph unicode="P" horiz-adv-x="1654" d="M111 860q0 186 48 348t140 280t225 185.5t303 67.5t303.5 -67.5t225.5 -185.5t140 -280t48 -348q0 -188 -48 -349t-140 -278.5t-225.5 -185t-303.5 -67.5t-303 67.5t-225 185t-140 278.5t-48 349zM248 862q0 -164 38 -305t110.5 -244.5t181 -163t249.5 -59.5t250 59.5 t181.5 163t110.5 244.5t38 305t-38 305.5t-110.5 246t-181 163.5t-250.5 59q-141 0 -249.5 -59t-181 -163.5t-110.5 -246t-38 -305.5zM616 367v972q35 18 89.5 32.5t123.5 14.5q147 0 226.5 -75.5t79.5 -204.5q0 -135 -87 -208t-235 -73q-20 0 -34.5 1t-37.5 5v-464h-125z M741 911q16 -2 27.5 -3t28.5 -1q100 0 155.5 48.5t55.5 152.5q0 102 -46.5 148.5t-132.5 46.5q-23 0 -47 -5.5t-41 -11.5v-375z" />
<glyph unicode="Q" d="M270 809l441 442l442 -442l-442 -440zM502 809l104 -104l211 210l105 -106l-211 -209l106 -104l313 313l-419 420l-105 -105l105 -104z" />
<glyph unicode="R" d="M270 809l441 442l442 -442l-442 -440zM502 809l104 -104l211 210l105 -106l-211 -209l106 -104l313 313l-419 420l-105 -105l105 -104z" />
<glyph unicode="S" horiz-adv-x="858" d="M80 61l51 132q31 -23 90.5 -42.5t120.5 -19.5t107.5 23.5t77 63.5t47 90t16.5 104q0 102 -37 176t-91 135t-118.5 118.5t-119 126t-91.5 157.5t-37 212q0 94 30 170t83 127.5t126 79t159 27.5q90 0 157.5 -26.5t102.5 -55.5l-47 -119q-29 23 -84.5 40t-114.5 17 q-111 0 -176.5 -74.5t-65.5 -185.5q0 -102 37 -176t92.5 -135t121 -117.5t120.5 -126t92 -157.5t37 -213q0 -92 -29.5 -171t-83 -137.5t-128 -91t-167.5 -32.5q-86 0 -161.5 24.5t-116.5 56.5zM240 2073l43 53l192 -164l191 164l43 -53l-177 -205q-25 -29 -57 -29 q-35 0 -59 29z" />
<glyph unicode="T" horiz-adv-x="964" d="M145 0v1720h170v-346q18 8 53 14.5t76 6.5q121 0 205 -37t137.5 -100.5t78 -149.5t24.5 -186q0 -106 -30 -194.5t-89 -152t-149.5 -99.5t-208.5 -36q-57 0 -97 6v-446h-170zM315 571q18 -4 43 -5t50 -1q84 0 143 25.5t96 73t53.5 113t16.5 143.5q0 80 -13.5 144 t-45 109.5t-84 70t-128.5 24.5q-37 0 -72.5 -7.5t-58.5 -17.5v-672z" />
<glyph unicode="U" d="M270 809l441 442l442 -442l-442 -440zM502 809l104 -104l211 210l105 -106l-211 -209l106 -104l313 313l-419 420l-105 -105l105 -104z" />
<glyph unicode="V" horiz-adv-x="1077" d="M33 1130v119h237l181 -815q8 -37 16 -77t12 -72q6 -37 10 -74h5q4 37 10 74q4 33 11 71.5t17 77.5l285 1286h166l-422 -1720h-153l-287 1130h-88z" />
<glyph unicode="W" d="M270 809l441 442l442 -442l-442 -440zM502 809l104 -104l211 210l105 -106l-211 -209l106 -104l313 313l-419 420l-105 -105l105 -104z" />
<glyph unicode="X" d="M270 809l441 442l442 -442l-442 -440zM502 809l104 -104l211 210l105 -106l-211 -209l106 -104l313 313l-419 420l-105 -105l105 -104z" />
<glyph unicode="Y" horiz-adv-x="937" d="M29 1720h188l258 -794h4l256 794h174l-354 -966v-754h-172v754zM422 1855l125 277q47 35 94 35q25 0 44.5 -9.5t27.5 -25.5l-205 -277h-86z" />
<glyph unicode="Z" horiz-adv-x="798" d="M53 0l461 1589h-436v131h647l-455 -1583h459v-137h-676zM164 2073l43 53l190 -164l193 164l43 -53l-176 -205q-25 -29 -60 -29q-33 0 -57 29z" />
<glyph unicode="[" d="M270 809l441 442l442 -442l-442 -440zM502 809l104 -104l211 210l105 -106l-211 -209l106 -104l313 313l-419 420l-105 -105l105 -104z" />
<glyph unicode="\" d="M270 809l441 442l442 -442l-442 -440zM502 809l104 -104l211 210l105 -106l-211 -209l106 -104l313 313l-419 420l-105 -105l105 -104z" />
<glyph unicode="]" d="M270 809l441 442l442 -442l-442 -440zM502 809l104 -104l211 210l105 -106l-211 -209l106 -104l313 313l-419 420l-105 -105l105 -104z" />
<glyph unicode="^" d="M270 809l441 442l442 -442l-442 -440zM502 809l104 -104l211 210l105 -106l-211 -209l106 -104l313 313l-419 420l-105 -105l105 -104z" />
<glyph unicode="_" horiz-adv-x="466" d="M-2 1415l178 205q27 31 57 31q31 0 58 -31l178 -205l-43 -51l-193 162l-192 -162z" />
<glyph unicode="`" d="M270 809l441 442l442 -442l-442 -440zM502 809l104 -104l211 210l105 -106l-211 -209l106 -104l313 313l-419 420l-105 -105l105 -104z" />
<glyph unicode="a" horiz-adv-x="1196" d="M76 1585v135h1044v-135h-135v-1585h-170v1585h-434v-1585h-170v1585h-135z" />
<glyph unicode="b" d="M270 809l441 442l442 -442l-442 -440zM502 809l104 -104l211 210l105 -106l-211 -209l106 -104l313 313l-419 420l-105 -105l105 -104z" />
<glyph unicode="c" horiz-adv-x="466" d="M119 -213q0 59 50 120.5t148 108.5h107q-90 -45 -136 -105.5t-46 -109.5q0 -31 19.5 -50t60.5 -19q47 0 118 30l19 -71q-84 -45 -166 -45q-78 0 -126 41t-48 100z" />
<glyph unicode="d" horiz-adv-x="937" d="M100 629q0 303 97.5 469t271.5 166q29 0 55.5 -5.5t48.5 -13.5q-20 61 -42.5 119.5t-51.5 114.5l-153 -56q-2 2 -8.5 15.5t-14.5 29t-15 27.5t-9 16l153 56q-20 33 -40.5 64.5t-43.5 60.5l139 49q23 -29 43.5 -59.5t40.5 -65.5l140 51q2 -4 9 -16.5t15 -27.5t15.5 -28.5 t9.5 -15.5l-142 -49q102 -199 159 -433.5t57 -467.5q0 -147 -20.5 -267t-66 -205t-114 -131t-166.5 -46t-167 46t-114 131t-65.5 204.5t-20.5 267.5zM268 629q0 -113 9.5 -208t33 -164t61.5 -106.5t95 -37.5t95 37.5t61.5 106.5t33 164t9.5 208q0 123 -16.5 251t-47.5 250 q-20 8 -51 13.5t-62 5.5q-113 0 -167 -140.5t-54 -379.5z" />
<glyph unicode="e" horiz-adv-x="1122" d="M113 258l147 215q-53 63 -83 146t-30 180q0 94 29 176t80 145l-143 211l112 76l133 -199q45 29 96.5 45.5t106.5 16.5t106.5 -16.5t96.5 -45.5l133 199l113 -76l-144 -211q51 -63 80 -145t29 -176q0 -96 -30 -179t-83 -147l148 -215l-113 -76l-139 203q-90 -57 -197 -57 q-106 0 -196 57l-140 -203zM309 803q0 -74 19.5 -138.5t53.5 -111.5t80 -74.5t99 -27.5t99.5 27.5t80 74.5t53 111.5t19.5 138.5t-19.5 137.5t-53 111.5t-80 74.5t-99.5 26.5t-99 -26.5t-80 -74.5t-53.5 -111.5t-19.5 -137.5z" />
<glyph unicode="f" horiz-adv-x="1062" d="M76 1130v119h117v170q0 162 72.5 237t201.5 75q14 0 28.5 -1t26.5 -4v-118q-10 2 -19 2h-22q-59 0 -91 -42t-32 -145v-174h164v-119h-164v-1130h-165v1130h-117zM737 1642q0 41 29 70t70 29t69.5 -29t28.5 -70t-28.5 -69.5t-69.5 -28.5t-70 29t-29 69zM754 0v1249h164 v-1249h-164z" />
<glyph unicode="g" d="M270 809l441 442l442 -442l-442 -440zM502 809l104 -104l211 210l105 -106l-211 -209l106 -104l313 313l-419 420l-105 -105l105 -104z" />
<glyph unicode="h" d="M270 809l441 442l442 -442l-442 -440zM502 809l104 -104l211 210l105 -106l-211 -209l106 -104l313 313l-419 420l-105 -105l105 -104z" />
<glyph unicode="i" horiz-adv-x="454" d="M145 0v1249h166v-1249h-166z" />
<glyph unicode="j" d="M270 809l441 442l442 -442l-442 -440zM502 809l104 -104l211 210l105 -106l-211 -209l106 -104l313 313l-419 420l-105 -105l105 -104z" />
<glyph unicode="k" d="M270 809l441 442l442 -442l-442 -440zM502 809l104 -104l211 210l105 -106l-211 -209l106 -104l313 313l-419 420l-105 -105l105 -104z" />
<glyph unicode="l" horiz-adv-x="522" d="M68 856v133l110 47v684h166v-614l119 51v-133l-119 -51v-973h-166v903z" />
<glyph unicode="m" d="M270 809l441 442l442 -442l-442 -440zM502 809l104 -104l211 210l105 -106l-211 -209l106 -104l313 313l-419 420l-105 -105l105 -104z" />
<glyph unicode="n" d="M270 809l441 442l442 -442l-442 -440zM502 809l104 -104l211 210l105 -106l-211 -209l106 -104l313 313l-419 420l-105 -105l105 -104z" />
<glyph unicode="o" d="M270 809l441 442l442 -442l-442 -440zM502 809l104 -104l211 210l105 -106l-211 -209l106 -104l313 313l-419 420l-105 -105l105 -104z" />
<glyph unicode="p" horiz-adv-x="1105" d="M82 1130v119h917v-119h-122v-856q0 -82 30.5 -115.5t91.5 -33.5v-125h-67q-102 0 -160.5 71.5t-58.5 202.5v856h-344v-1130h-164v1130h-123z" />
<glyph unicode="q" d="M270 809l441 442l442 -442l-442 -440zM502 809l104 -104l211 210l105 -106l-211 -209l106 -104l313 313l-419 420l-105 -105l105 -104z" />
<glyph unicode="r" d="M270 809l441 442l442 -442l-442 -440zM502 809l104 -104l211 210l105 -106l-211 -209l106 -104l313 313l-419 420l-105 -105l105 -104z" />
<glyph unicode="s" horiz-adv-x="729" d="M72 61l45 125q31 -25 79 -44t105 -19q72 0 123 48t51 134q0 78 -28.5 128t-71.5 90t-93.5 75t-93.5 81t-71.5 110.5t-28.5 162.5q0 74 22.5 132.5t62.5 100.5t94.5 63.5t119.5 21.5q78 0 137.5 -25.5t91.5 -56.5l-43 -115q-27 23 -68.5 42.5t-96.5 19.5q-72 0 -116 -49.5 t-44 -133.5q0 -72 29.5 -120t72.5 -85.5t95.5 -73.5t95.5 -84t72.5 -115t29.5 -169q0 -74 -25.5 -133t-69.5 -102t-103.5 -66.5t-127.5 -23.5q-78 0 -142 23.5t-103 57.5zM137 1602l43 53l193 -164l192 164l43 -53l-178 -205q-25 -29 -57 -29q-33 0 -58 29z" />
<glyph unicode="t" horiz-adv-x="940" d="M137 -328v2048h166v-497q23 14 68 29.5t104 15.5q88 0 156.5 -44t115 -124t70 -195t23.5 -256q0 -154 -26 -276.5t-78 -208.5t-131 -132t-183 -46q-68 0 -119 22v-336h-166zM303 137q18 -10 48 -17t71 -7q68 0 115 37.5t77.5 107.5t44 168t13.5 217q0 238 -54.5 370 t-177.5 132q-39 0 -76.5 -10.5t-60.5 -24.5v-973z" />
<glyph unicode="u" d="M270 809l441 442l442 -442l-442 -440zM502 809l104 -104l211 210l105 -106l-211 -209l106 -104l313 313l-419 420l-105 -105l105 -104z" />
<glyph unicode="v" d="M270 809l441 442l442 -442l-442 -440zM502 809l104 -104l211 210l105 -106l-211 -209l106 -104l313 313l-419 420l-105 -105l105 -104z" />
<glyph unicode="w" d="M270 809l441 442l442 -442l-442 -440zM502 809l104 -104l211 210l105 -106l-211 -209l106 -104l313 313l-419 420l-105 -105l105 -104z" />
<glyph unicode="x" horiz-adv-x="991" d="M135 479l275 340l-275 338l105 80l256 -315l256 315l104 -80l-274 -340l274 -338l-104 -80l-256 316l-256 -316z" />
<glyph unicode="y" horiz-adv-x="901" d="M59 1249h174l185 -827q8 -39 15 -76t11 -67q6 -37 11 -70h4q4 33 10 70q4 31 10 68.5t17 74.5l186 827h160l-404 -1577h-170l115 344zM395 1384l123 277q47 35 94 35q25 0 44.5 -9.5t27.5 -25.5l-205 -277h-84z" />
<glyph unicode="z" horiz-adv-x="753" d="M66 0l397 1130h-373v119h580l-389 -1122h393v-127h-608zM139 1602l43 53l193 -164l192 164l43 -53l-178 -205q-25 -29 -57 -29q-33 0 -58 29z" />
<glyph unicode="{" d="M270 809l441 442l442 -442l-442 -440zM502 809l104 -104l211 210l105 -106l-211 -209l106 -104l313 313l-419 420l-105 -105l105 -104z" />
<glyph unicode="|" d="M270 809l441 442l442 -442l-442 -440zM502 809l104 -104l211 210l105 -106l-211 -209l106 -104l313 313l-419 420l-105 -105l105 -104z" />
<glyph unicode="}" d="M270 809l441 442l442 -442l-442 -440zM502 809l104 -104l211 210l105 -106l-211 -209l106 -104l313 313l-419 420l-105 -105l105 -104z" />
<glyph unicode="~" d="M270 809l441 442l442 -442l-442 -440zM502 809l104 -104l211 210l105 -106l-211 -209l106 -104l313 313l-419 420l-105 -105l105 -104z" />
<glyph unicode="&#xa1;" d="M270 809l441 442l442 -442l-442 -440zM502 809l104 -104l211 210l105 -106l-211 -209l106 -104l313 313l-419 420l-105 -105l105 -104z" />
<glyph unicode="&#xa2;" d="M270 809l441 442l442 -442l-442 -440zM502 809l104 -104l211 210l105 -106l-211 -209l106 -104l313 313l-419 420l-105 -105l105 -104z" />
<glyph unicode="&#xa3;" d="M270 809l441 442l442 -442l-442 -440zM502 809l104 -104l211 210l105 -106l-211 -209l106 -104l313 313l-419 420l-105 -105l105 -104z" />
<glyph unicode="&#xa4;" horiz-adv-x="1122" d="M113 258l147 215q-53 63 -83 146t-30 180q0 94 29 176t80 145l-143 211l112 76l133 -199q45 29 96.5 45.5t106.5 16.5t106.5 -16.5t96.5 -45.5l133 199l113 -76l-144 -211q51 -63 80 -145t29 -176q0 -96 -30 -179t-83 -147l148 -215l-113 -76l-139 203q-90 -57 -197 -57 q-106 0 -196 57l-140 -203zM309 803q0 -74 19.5 -138.5t53.5 -111.5t80 -74.5t99 -27.5t99.5 27.5t80 74.5t53 111.5t19.5 138.5t-19.5 137.5t-53 111.5t-80 74.5t-99.5 26.5t-99 -26.5t-80 -74.5t-53.5 -111.5t-19.5 -137.5z" />
<glyph unicode="&#xa5;" d="M270 809l441 442l442 -442l-442 -440zM502 809l104 -104l211 210l105 -106l-211 -209l106 -104l313 313l-419 420l-105 -105l105 -104z" />
<glyph unicode="&#xa6;" d="M270 809l441 442l442 -442l-442 -440zM502 809l104 -104l211 210l105 -106l-211 -209l106 -104l313 313l-419 420l-105 -105l105 -104z" />
<glyph unicode="&#xa7;" d="M270 809l441 442l442 -442l-442 -440zM502 809l104 -104l211 210l105 -106l-211 -209l106 -104l313 313l-419 420l-105 -105l105 -104z" />
<glyph unicode="&#xa8;" d="M270 809l441 442l442 -442l-442 -440zM502 809l104 -104l211 210l105 -106l-211 -209l106 -104l313 313l-419 420l-105 -105l105 -104z" />
<glyph unicode="&#xa9;" d="M270 809l441 442l442 -442l-442 -440zM502 809l104 -104l211 210l105 -106l-211 -209l106 -104l313 313l-419 420l-105 -105l105 -104z" />
<glyph unicode="&#xaa;" d="M270 809l441 442l442 -442l-442 -440zM502 809l104 -104l211 210l105 -106l-211 -209l106 -104l313 313l-419 420l-105 -105l105 -104z" />
<glyph unicode="&#xab;" d="M270 809l441 442l442 -442l-442 -440zM502 809l104 -104l211 210l105 -106l-211 -209l106 -104l313 313l-419 420l-105 -105l105 -104z" />
<glyph unicode="&#xac;" d="M270 809l441 442l442 -442l-442 -440zM502 809l104 -104l211 210l105 -106l-211 -209l106 -104l313 313l-419 420l-105 -105l105 -104z" />
<glyph unicode="&#xad;" horiz-adv-x="991" d="M145 754v127h701v-127h-701z" />
<glyph unicode="&#xae;" d="M270 809l441 442l442 -442l-442 -440zM502 809l104 -104l211 210l105 -106l-211 -209l106 -104l313 313l-419 420l-105 -105l105 -104z" />
<glyph unicode="&#xaf;" d="M270 809l441 442l442 -442l-442 -440zM502 809l104 -104l211 210l105 -106l-211 -209l106 -104l313 313l-419 420l-105 -105l105 -104z" />
<glyph unicode="&#xb0;" d="M270 809l441 442l442 -442l-442 -440zM502 809l104 -104l211 210l105 -106l-211 -209l106 -104l313 313l-419 420l-105 -105l105 -104z" />
<glyph unicode="&#xb1;" d="M270 809l441 442l442 -442l-442 -440zM502 809l104 -104l211 210l105 -106l-211 -209l106 -104l313 313l-419 420l-105 -105l105 -104z" />
<glyph unicode="&#xb2;" d="M270 809l441 442l442 -442l-442 -440zM502 809l104 -104l211 210l105 -106l-211 -209l106 -104l313 313l-419 420l-105 -105l105 -104z" />
<glyph unicode="&#xb3;" d="M270 809l441 442l442 -442l-442 -440zM502 809l104 -104l211 210l105 -106l-211 -209l106 -104l313 313l-419 420l-105 -105l105 -104z" />
<glyph unicode="&#xb4;" d="M270 809l441 442l442 -442l-442 -440zM502 809l104 -104l211 210l105 -106l-211 -209l106 -104l313 313l-419 420l-105 -105l105 -104z" />
<glyph unicode="&#xb6;" horiz-adv-x="991" d="M35 1352q0 76 20.5 143.5t65.5 117.5t114.5 78.5t165.5 28.5h521v-102h-93v-1946h-127v1946h-278v-1946h-125v1325q-127 23 -195.5 117t-68.5 238z" />
<glyph unicode="&#xb7;" horiz-adv-x="473" d="M123 805q0 47 33.5 81t81.5 34q47 0 79.5 -34t32.5 -81t-32.5 -80t-79.5 -33t-81 33t-34 80z" />
<glyph unicode="&#xb8;" d="M270 809l441 442l442 -442l-442 -440zM502 809l104 -104l211 210l105 -106l-211 -209l106 -104l313 313l-419 420l-105 -105l105 -104z" />
<glyph unicode="&#xb9;" d="M270 809l441 442l442 -442l-442 -440zM502 809l104 -104l211 210l105 -106l-211 -209l106 -104l313 313l-419 420l-105 -105l105 -104z" />
<glyph unicode="&#xba;" d="M270 809l441 442l442 -442l-442 -440zM502 809l104 -104l211 210l105 -106l-211 -209l106 -104l313 313l-419 420l-105 -105l105 -104z" />
<glyph unicode="&#xbb;" d="M270 809l441 442l442 -442l-442 -440zM502 809l104 -104l211 210l105 -106l-211 -209l106 -104l313 313l-419 420l-105 -105l105 -104z" />
<glyph unicode="&#xbc;" d="M270 809l441 442l442 -442l-442 -440zM502 809l104 -104l211 210l105 -106l-211 -209l106 -104l313 313l-419 420l-105 -105l105 -104z" />
<glyph unicode="&#xbd;" d="M270 809l441 442l442 -442l-442 -440zM502 809l104 -104l211 210l105 -106l-211 -209l106 -104l313 313l-419 420l-105 -105l105 -104z" />
<glyph unicode="&#xbe;" d="M270 809l441 442l442 -442l-442 -440zM502 809l104 -104l211 210l105 -106l-211 -209l106 -104l313 313l-419 420l-105 -105l105 -104z" />
<glyph unicode="&#xbf;" d="M270 809l441 442l442 -442l-442 -440zM502 809l104 -104l211 210l105 -106l-211 -209l106 -104l313 313l-419 420l-105 -105l105 -104z" />
<glyph unicode="&#xc0;" d="M270 809l441 442l442 -442l-442 -440zM502 809l104 -104l211 210l105 -106l-211 -209l106 -104l313 313l-419 420l-105 -105l105 -104z" />
<glyph unicode="&#xc1;" d="M270 809l441 442l442 -442l-442 -440zM502 809l104 -104l211 210l105 -106l-211 -209l106 -104l313 313l-419 420l-105 -105l105 -104z" />
<glyph unicode="&#xc2;" d="M270 809l441 442l442 -442l-442 -440zM502 809l104 -104l211 210l105 -106l-211 -209l106 -104l313 313l-419 420l-105 -105l105 -104z" />
<glyph unicode="&#xc3;" d="M270 809l441 442l442 -442l-442 -440zM502 809l104 -104l211 210l105 -106l-211 -209l106 -104l313 313l-419 420l-105 -105l105 -104z" />
<glyph unicode="&#xc4;" d="M270 809l441 442l442 -442l-442 -440zM502 809l104 -104l211 210l105 -106l-211 -209l106 -104l313 313l-419 420l-105 -105l105 -104z" />
<glyph unicode="&#xc5;" d="M270 809l441 442l442 -442l-442 -440zM502 809l104 -104l211 210l105 -106l-211 -209l106 -104l313 313l-419 420l-105 -105l105 -104z" />
<glyph unicode="&#xc6;" d="M270 809l441 442l442 -442l-442 -440zM502 809l104 -104l211 210l105 -106l-211 -209l106 -104l313 313l-419 420l-105 -105l105 -104z" />
<glyph unicode="&#xc7;" d="M270 809l441 442l442 -442l-442 -440zM502 809l104 -104l211 210l105 -106l-211 -209l106 -104l313 313l-419 420l-105 -105l105 -104z" />
<glyph unicode="&#xc8;" d="M270 809l441 442l442 -442l-442 -440zM502 809l104 -104l211 210l105 -106l-211 -209l106 -104l313 313l-419 420l-105 -105l105 -104z" />
<glyph unicode="&#xc9;" d="M270 809l441 442l442 -442l-442 -440zM502 809l104 -104l211 210l105 -106l-211 -209l106 -104l313 313l-419 420l-105 -105l105 -104z" />
<glyph unicode="&#xca;" d="M270 809l441 442l442 -442l-442 -440zM502 809l104 -104l211 210l105 -106l-211 -209l106 -104l313 313l-419 420l-105 -105l105 -104z" />
<glyph unicode="&#xcb;" d="M270 809l441 442l442 -442l-442 -440zM502 809l104 -104l211 210l105 -106l-211 -209l106 -104l313 313l-419 420l-105 -105l105 -104z" />
<glyph unicode="&#xcc;" d="M270 809l441 442l442 -442l-442 -440zM502 809l104 -104l211 210l105 -106l-211 -209l106 -104l313 313l-419 420l-105 -105l105 -104z" />
<glyph unicode="&#xcd;" d="M270 809l441 442l442 -442l-442 -440zM502 809l104 -104l211 210l105 -106l-211 -209l106 -104l313 313l-419 420l-105 -105l105 -104z" />
<glyph unicode="&#xce;" d="M270 809l441 442l442 -442l-442 -440zM502 809l104 -104l211 210l105 -106l-211 -209l106 -104l313 313l-419 420l-105 -105l105 -104z" />
<glyph unicode="&#xcf;" d="M270 809l441 442l442 -442l-442 -440zM502 809l104 -104l211 210l105 -106l-211 -209l106 -104l313 313l-419 420l-105 -105l105 -104z" />
<glyph unicode="&#xd0;" d="M270 809l441 442l442 -442l-442 -440zM502 809l104 -104l211 210l105 -106l-211 -209l106 -104l313 313l-419 420l-105 -105l105 -104z" />
<glyph unicode="&#xd1;" d="M270 809l441 442l442 -442l-442 -440zM502 809l104 -104l211 210l105 -106l-211 -209l106 -104l313 313l-419 420l-105 -105l105 -104z" />
<glyph unicode="&#xd2;" d="M270 809l441 442l442 -442l-442 -440zM502 809l104 -104l211 210l105 -106l-211 -209l106 -104l313 313l-419 420l-105 -105l105 -104z" />
<glyph unicode="&#xd3;" d="M270 809l441 442l442 -442l-442 -440zM502 809l104 -104l211 210l105 -106l-211 -209l106 -104l313 313l-419 420l-105 -105l105 -104z" />
<glyph unicode="&#xd4;" d="M270 809l441 442l442 -442l-442 -440zM502 809l104 -104l211 210l105 -106l-211 -209l106 -104l313 313l-419 420l-105 -105l105 -104z" />
<glyph unicode="&#xd5;" d="M270 809l441 442l442 -442l-442 -440zM502 809l104 -104l211 210l105 -106l-211 -209l106 -104l313 313l-419 420l-105 -105l105 -104z" />
<glyph unicode="&#xd6;" d="M270 809l441 442l442 -442l-442 -440zM502 809l104 -104l211 210l105 -106l-211 -209l106 -104l313 313l-419 420l-105 -105l105 -104z" />
<glyph unicode="&#xd7;" d="M270 809l441 442l442 -442l-442 -440zM502 809l104 -104l211 210l105 -106l-211 -209l106 -104l313 313l-419 420l-105 -105l105 -104z" />
<glyph unicode="&#xd8;" d="M270 809l441 442l442 -442l-442 -440zM502 809l104 -104l211 210l105 -106l-211 -209l106 -104l313 313l-419 420l-105 -105l105 -104z" />
<glyph unicode="&#xd9;" d="M270 809l441 442l442 -442l-442 -440zM502 809l104 -104l211 210l105 -106l-211 -209l106 -104l313 313l-419 420l-105 -105l105 -104z" />
<glyph unicode="&#xda;" d="M270 809l441 442l442 -442l-442 -440zM502 809l104 -104l211 210l105 -106l-211 -209l106 -104l313 313l-419 420l-105 -105l105 -104z" />
<glyph unicode="&#xdb;" d="M270 809l441 442l442 -442l-442 -440zM502 809l104 -104l211 210l105 -106l-211 -209l106 -104l313 313l-419 420l-105 -105l105 -104z" />
<glyph unicode="&#xdc;" d="M270 809l441 442l442 -442l-442 -440zM502 809l104 -104l211 210l105 -106l-211 -209l106 -104l313 313l-419 420l-105 -105l105 -104z" />
<glyph unicode="&#xdd;" d="M270 809l441 442l442 -442l-442 -440zM502 809l104 -104l211 210l105 -106l-211 -209l106 -104l313 313l-419 420l-105 -105l105 -104z" />
<glyph unicode="&#xde;" d="M270 809l441 442l442 -442l-442 -440zM502 809l104 -104l211 210l105 -106l-211 -209l106 -104l313 313l-419 420l-105 -105l105 -104z" />
<glyph unicode="&#xdf;" d="M270 809l441 442l442 -442l-442 -440zM502 809l104 -104l211 210l105 -106l-211 -209l106 -104l313 313l-419 420l-105 -105l105 -104z" />
<glyph unicode="&#xe0;" d="M270 809l441 442l442 -442l-442 -440zM502 809l104 -104l211 210l105 -106l-211 -209l106 -104l313 313l-419 420l-105 -105l105 -104z" />
<glyph unicode="&#xe1;" d="M270 809l441 442l442 -442l-442 -440zM502 809l104 -104l211 210l105 -106l-211 -209l106 -104l313 313l-419 420l-105 -105l105 -104z" />
<glyph unicode="&#xe2;" d="M270 809l441 442l442 -442l-442 -440zM502 809l104 -104l211 210l105 -106l-211 -209l106 -104l313 313l-419 420l-105 -105l105 -104z" />
<glyph unicode="&#xe3;" d="M270 809l441 442l442 -442l-442 -440zM502 809l104 -104l211 210l105 -106l-211 -209l106 -104l313 313l-419 420l-105 -105l105 -104z" />
<glyph unicode="&#xe4;" d="M270 809l441 442l442 -442l-442 -440zM502 809l104 -104l211 210l105 -106l-211 -209l106 -104l313 313l-419 420l-105 -105l105 -104z" />
<glyph unicode="&#xe5;" d="M270 809l441 442l442 -442l-442 -440zM502 809l104 -104l211 210l105 -106l-211 -209l106 -104l313 313l-419 420l-105 -105l105 -104z" />
<glyph unicode="&#xe6;" d="M270 809l441 442l442 -442l-442 -440zM502 809l104 -104l211 210l105 -106l-211 -209l106 -104l313 313l-419 420l-105 -105l105 -104z" />
<glyph unicode="&#xe7;" d="M270 809l441 442l442 -442l-442 -440zM502 809l104 -104l211 210l105 -106l-211 -209l106 -104l313 313l-419 420l-105 -105l105 -104z" />
<glyph unicode="&#xe8;" d="M270 809l441 442l442 -442l-442 -440zM502 809l104 -104l211 210l105 -106l-211 -209l106 -104l313 313l-419 420l-105 -105l105 -104z" />
<glyph unicode="&#xe9;" d="M270 809l441 442l442 -442l-442 -440zM502 809l104 -104l211 210l105 -106l-211 -209l106 -104l313 313l-419 420l-105 -105l105 -104z" />
<glyph unicode="&#xea;" d="M270 809l441 442l442 -442l-442 -440zM502 809l104 -104l211 210l105 -106l-211 -209l106 -104l313 313l-419 420l-105 -105l105 -104z" />
<glyph unicode="&#xeb;" d="M270 809l441 442l442 -442l-442 -440zM502 809l104 -104l211 210l105 -106l-211 -209l106 -104l313 313l-419 420l-105 -105l105 -104z" />
<glyph unicode="&#xec;" d="M270 809l441 442l442 -442l-442 -440zM502 809l104 -104l211 210l105 -106l-211 -209l106 -104l313 313l-419 420l-105 -105l105 -104z" />
<glyph unicode="&#xed;" d="M270 809l441 442l442 -442l-442 -440zM502 809l104 -104l211 210l105 -106l-211 -209l106 -104l313 313l-419 420l-105 -105l105 -104z" />
<glyph unicode="&#xee;" d="M270 809l441 442l442 -442l-442 -440zM502 809l104 -104l211 210l105 -106l-211 -209l106 -104l313 313l-419 420l-105 -105l105 -104z" />
<glyph unicode="&#xef;" d="M270 809l441 442l442 -442l-442 -440zM502 809l104 -104l211 210l105 -106l-211 -209l106 -104l313 313l-419 420l-105 -105l105 -104z" />
<glyph unicode="&#xf0;" d="M270 809l441 442l442 -442l-442 -440zM502 809l104 -104l211 210l105 -106l-211 -209l106 -104l313 313l-419 420l-105 -105l105 -104z" />
<glyph unicode="&#xf1;" d="M270 809l441 442l442 -442l-442 -440zM502 809l104 -104l211 210l105 -106l-211 -209l106 -104l313 313l-419 420l-105 -105l105 -104z" />
<glyph unicode="&#xf2;" d="M270 809l441 442l442 -442l-442 -440zM502 809l104 -104l211 210l105 -106l-211 -209l106 -104l313 313l-419 420l-105 -105l105 -104z" />
<glyph unicode="&#xf3;" d="M270 809l441 442l442 -442l-442 -440zM502 809l104 -104l211 210l105 -106l-211 -209l106 -104l313 313l-419 420l-105 -105l105 -104z" />
<glyph unicode="&#xf4;" d="M270 809l441 442l442 -442l-442 -440zM502 809l104 -104l211 210l105 -106l-211 -209l106 -104l313 313l-419 420l-105 -105l105 -104z" />
<glyph unicode="&#xf5;" d="M270 809l441 442l442 -442l-442 -440zM502 809l104 -104l211 210l105 -106l-211 -209l106 -104l313 313l-419 420l-105 -105l105 -104z" />
<glyph unicode="&#xf6;" d="M270 809l441 442l442 -442l-442 -440zM502 809l104 -104l211 210l105 -106l-211 -209l106 -104l313 313l-419 420l-105 -105l105 -104z" />
<glyph unicode="&#xf7;" d="M270 809l441 442l442 -442l-442 -440zM502 809l104 -104l211 210l105 -106l-211 -209l106 -104l313 313l-419 420l-105 -105l105 -104z" />
<glyph unicode="&#xf8;" d="M270 809l441 442l442 -442l-442 -440zM502 809l104 -104l211 210l105 -106l-211 -209l106 -104l313 313l-419 420l-105 -105l105 -104z" />
<glyph unicode="&#xf9;" d="M270 809l441 442l442 -442l-442 -440zM502 809l104 -104l211 210l105 -106l-211 -209l106 -104l313 313l-419 420l-105 -105l105 -104z" />
<glyph unicode="&#xfa;" d="M270 809l441 442l442 -442l-442 -440zM502 809l104 -104l211 210l105 -106l-211 -209l106 -104l313 313l-419 420l-105 -105l105 -104z" />
<glyph unicode="&#xfb;" d="M270 809l441 442l442 -442l-442 -440zM502 809l104 -104l211 210l105 -106l-211 -209l106 -104l313 313l-419 420l-105 -105l105 -104z" />
<glyph unicode="&#xfc;" d="M270 809l441 442l442 -442l-442 -440zM502 809l104 -104l211 210l105 -106l-211 -209l106 -104l313 313l-419 420l-105 -105l105 -104z" />
<glyph unicode="&#xfd;" d="M270 809l441 442l442 -442l-442 -440zM502 809l104 -104l211 210l105 -106l-211 -209l106 -104l313 313l-419 420l-105 -105l105 -104z" />
<glyph unicode="&#xfe;" d="M270 809l441 442l442 -442l-442 -440zM502 809l104 -104l211 210l105 -106l-211 -209l106 -104l313 313l-419 420l-105 -105l105 -104z" />
<glyph unicode="&#xff;" d="M270 809l441 442l442 -442l-442 -440zM502 809l104 -104l211 210l105 -106l-211 -209l106 -104l313 313l-419 420l-105 -105l105 -104z" />
<glyph unicode="&#x152;" d="M270 809l441 442l442 -442l-442 -440zM502 809l104 -104l211 210l105 -106l-211 -209l106 -104l313 313l-419 420l-105 -105l105 -104z" />
<glyph unicode="&#x153;" d="M270 809l441 442l442 -442l-442 -440zM502 809l104 -104l211 210l105 -106l-211 -209l106 -104l313 313l-419 420l-105 -105l105 -104z" />
<glyph unicode="&#x178;" d="M270 809l441 442l442 -442l-442 -440zM502 809l104 -104l211 210l105 -106l-211 -209l106 -104l313 313l-419 420l-105 -105l105 -104z" />
<glyph unicode="&#x2c6;" d="M270 809l441 442l442 -442l-442 -440zM502 809l104 -104l211 210l105 -106l-211 -209l106 -104l313 313l-419 420l-105 -105l105 -104z" />
<glyph unicode="&#x2dc;" d="M270 809l441 442l442 -442l-442 -440zM502 809l104 -104l211 210l105 -106l-211 -209l106 -104l313 313l-419 420l-105 -105l105 -104z" />
<glyph unicode="&#x2000;" horiz-adv-x="1083" />
<glyph unicode="&#x2001;" horiz-adv-x="2167" />
<glyph unicode="&#x2002;" horiz-adv-x="1083" />
<glyph unicode="&#x2003;" horiz-adv-x="2167" />
<glyph unicode="&#x2004;" horiz-adv-x="722" />
<glyph unicode="&#x2005;" horiz-adv-x="541" />
<glyph unicode="&#x2006;" horiz-adv-x="361" />
<glyph unicode="&#x2007;" horiz-adv-x="361" />
<glyph unicode="&#x2008;" horiz-adv-x="270" />
<glyph unicode="&#x2009;" horiz-adv-x="433" />
<glyph unicode="&#x200a;" horiz-adv-x="120" />
<glyph unicode="&#x2010;" horiz-adv-x="991" d="M145 754v127h701v-127h-701z" />
<glyph unicode="&#x2011;" horiz-adv-x="991" d="M145 754v127h701v-127h-701z" />
<glyph unicode="&#x2012;" horiz-adv-x="991" d="M145 754v127h701v-127h-701z" />
<glyph unicode="&#x2013;" d="M270 809l441 442l442 -442l-442 -440zM502 809l104 -104l211 210l105 -106l-211 -209l106 -104l313 313l-419 420l-105 -105l105 -104z" />
<glyph unicode="&#x2014;" d="M270 809l441 442l442 -442l-442 -440zM502 809l104 -104l211 210l105 -106l-211 -209l106 -104l313 313l-419 420l-105 -105l105 -104z" />
<glyph unicode="&#x2018;" d="M270 809l441 442l442 -442l-442 -440zM502 809l104 -104l211 210l105 -106l-211 -209l106 -104l313 313l-419 420l-105 -105l105 -104z" />
<glyph unicode="&#x2019;" d="M270 809l441 442l442 -442l-442 -440zM502 809l104 -104l211 210l105 -106l-211 -209l106 -104l313 313l-419 420l-105 -105l105 -104z" />
<glyph unicode="&#x201a;" d="M270 809l441 442l442 -442l-442 -440zM502 809l104 -104l211 210l105 -106l-211 -209l106 -104l313 313l-419 420l-105 -105l105 -104z" />
<glyph unicode="&#x201c;" d="M270 809l441 442l442 -442l-442 -440zM502 809l104 -104l211 210l105 -106l-211 -209l106 -104l313 313l-419 420l-105 -105l105 -104z" />
<glyph unicode="&#x201d;" d="M270 809l441 442l442 -442l-442 -440zM502 809l104 -104l211 210l105 -106l-211 -209l106 -104l313 313l-419 420l-105 -105l105 -104z" />
<glyph unicode="&#x201e;" d="M270 809l441 442l442 -442l-442 -440zM502 809l104 -104l211 210l105 -106l-211 -209l106 -104l313 313l-419 420l-105 -105l105 -104z" />
<glyph unicode="&#x2022;" horiz-adv-x="655" d="M111 815q0 92 62.5 154.5t154.5 62.5t154.5 -62.5t62.5 -154.5t-62.5 -154.5t-154.5 -62.5t-154.5 62.5t-62.5 154.5z" />
<glyph unicode="&#x2026;" d="M270 809l441 442l442 -442l-442 -440zM502 809l104 -104l211 210l105 -106l-211 -209l106 -104l313 313l-419 420l-105 -105l105 -104z" />
<glyph unicode="&#x202f;" horiz-adv-x="433" />
<glyph unicode="&#x2039;" d="M270 809l441 442l442 -442l-442 -440zM502 809l104 -104l211 210l105 -106l-211 -209l106 -104l313 313l-419 420l-105 -105l105 -104z" />
<glyph unicode="&#x203a;" d="M270 809l441 442l442 -442l-442 -440zM502 809l104 -104l211 210l105 -106l-211 -209l106 -104l313 313l-419 420l-105 -105l105 -104z" />
<glyph unicode="&#x205f;" horiz-adv-x="541" />
<glyph unicode="&#x20ac;" horiz-adv-x="1249" d="M100 612v123l197 -16q-6 78 -6 158.5t8 158.5l-199 -16v123l211 -17q47 293 193.5 454t380.5 161q100 0 168.5 -25.5t109.5 -56.5l-61 -117q-35 23 -90.5 40t-118.5 17q-174 0 -275.5 -121.5t-136.5 -351.5l504 17v-123l-516 16q-8 -78 -8 -158.5t6 -158.5l518 16v-123 l-508 17q33 -240 135.5 -370t280.5 -130q70 0 121 17.5t86 39.5l63 -125q-41 -31 -109.5 -56t-168.5 -25q-242 0 -390.5 169.5t-189.5 479.5z" />
<glyph unicode="&#x2122;" d="M270 809l441 442l442 -442l-442 -440zM502 809l104 -104l211 210l105 -106l-211 -209l106 -104l313 313l-419 420l-105 -105l105 -104z" />
<glyph unicode="&#x25fc;" horiz-adv-x="1239" d="M0 0v1239h1239v-1239h-1239z" />
</font>
</defs>
</svg>
