<?xml version="1.0" standalone="no"?>
<!DOCTYPE svg PUBLIC "-//W3C//DTD SVG 1.1//EN" "http://www.w3.org/Graphics/SVG/1.1/DTD/svg11.dtd" >
<svg xmlns="http://www.w3.org/2000/svg">
<metadata></metadata>
<defs>
<font id="daxcompact-boldexpertbold" horiz-adv-x="1433" >
<font-face units-per-em="2048" ascent="1638" descent="-410" />
<missing-glyph horiz-adv-x="458" />
<glyph unicode="&#xfb01;" d="M270 809l441 442l442 -442l-442 -440zM502 809l104 -104l211 210l105 -106l-211 -209l106 -104l313 313l-419 420l-105 -105l105 -104z" />
<glyph unicode="&#xfb02;" d="M270 809l441 442l442 -442l-442 -440zM502 809l104 -104l211 210l105 -106l-211 -209l106 -104l313 313l-419 420l-105 -105l105 -104z" />
<glyph horiz-adv-x="2048" />
<glyph horiz-adv-x="2048" />
<glyph unicode="&#xd;" horiz-adv-x="458" />
<glyph unicode=" "  horiz-adv-x="458" />
<glyph unicode="&#x09;" horiz-adv-x="458" />
<glyph unicode="&#xa0;" horiz-adv-x="458" />
<glyph unicode="!" horiz-adv-x="454" d="M117 -328v799h221v-799h-221zM117 942v778h221v-778h-221z" />
<glyph unicode="&#x22;" horiz-adv-x="499" d="M16 1360l150 252q20 18 47 30.5t61 12.5q35 0 51.5 -12.5t16.5 -28.5l-223 -254h-103zM287 1360l149 252q20 18 47 30.5t62 12.5t50 -12.5t15 -28.5l-221 -254h-102z" />
<glyph unicode="#" horiz-adv-x="991" d="M115 492v196q35 29 85 52.5t117 23.5q55 0 99.5 -15.5t85.5 -34t82 -33.5t90 -15q63 0 116.5 25.5t86.5 53.5v-194q-35 -29 -85.5 -53.5t-117.5 -24.5q-55 0 -99.5 15.5t-85 33t-81.5 32.5t-91 15q-59 0 -114.5 -24.5t-87.5 -52.5zM115 887v194q35 29 85 52.5t117 23.5 q55 0 99.5 -15.5t85.5 -32.5t82 -32.5t90 -15.5q63 0 116.5 25.5t86.5 54.5v-197q-35 -29 -85.5 -52.5t-117.5 -23.5q-55 0 -99.5 15.5t-85 33t-81.5 33t-91 15.5q-59 0 -114.5 -25t-87.5 -53z" />
<glyph unicode="$" horiz-adv-x="696" d="M51 -137q10 -2 20.5 -2h20.5q47 0 85 34.5t38 114.5v1360q0 96 26.5 166t72.5 114t109.5 65.5t139.5 21.5q20 0 41 -2t41 -6v-193q-10 2 -20.5 2h-20.5q-49 0 -86 -35t-37 -114v-1366q0 -96 -26.5 -166t-72.5 -114t-109.5 -65.5t-139.5 -21.5q-20 0 -40.5 2t-41.5 6v199z " />
<glyph unicode="%" d="M270 809l441 442l442 -442l-442 -440zM502 809l104 -104l211 210l105 -106l-211 -209l106 -104l313 313l-419 420l-105 -105l105 -104z" />
<glyph unicode="&#x26;" horiz-adv-x="991" d="M49 -328l445 1063l-437 985h840v-256h-477l348 -729l-362 -796h507v-267h-864z" />
<glyph unicode="'" d="M270 809l441 442l442 -442l-442 -440zM502 809l104 -104l211 210l105 -106l-211 -209l106 -104l313 313l-419 420l-105 -105l105 -104z" />
<glyph unicode="(" d="M270 809l441 442l442 -442l-442 -440zM502 809l104 -104l211 210l105 -106l-211 -209l106 -104l313 313l-419 420l-105 -105l105 -104z" />
<glyph unicode=")" d="M270 809l441 442l442 -442l-442 -440zM502 809l104 -104l211 210l105 -106l-211 -209l106 -104l313 313l-419 420l-105 -105l105 -104z" />
<glyph unicode="*" d="M270 809l441 442l442 -442l-442 -440zM502 809l104 -104l211 210l105 -106l-211 -209l106 -104l313 313l-419 420l-105 -105l105 -104z" />
<glyph unicode="+" d="M270 809l441 442l442 -442l-442 -440zM502 809l104 -104l211 210l105 -106l-211 -209l106 -104l313 313l-419 420l-105 -105l105 -104z" />
<glyph unicode="," horiz-adv-x="499" d="M74 1532q0 37 14 68.5t38 55t55.5 38t68.5 14.5t68.5 -14.5t55 -38t38 -55t14.5 -68.5t-14.5 -68.5t-38 -55.5t-55 -38t-68.5 -14t-68.5 14t-55.5 38t-38 55.5t-14 68.5zM168 1532q0 -35 23.5 -59.5t58.5 -24.5t58.5 24.5t23.5 59.5t-23.5 60.5t-58.5 25.5t-58.5 -25.5 t-23.5 -60.5z" />
<glyph unicode="-" horiz-adv-x="991" d="M115 721v192h762v-192h-762z" />
<glyph unicode="." horiz-adv-x="499" d="M115 1499q0 55 40 94t95 39t95 -39t40 -94t-40 -95t-95 -40t-95 40t-40 95z" />
<glyph unicode="/" horiz-adv-x="372" d="M-213 31l629 1720l170 -61l-629 -1721z" />
<glyph unicode="0" horiz-adv-x="1073" d="M49 860l488 885l487 -885l-487 -885zM332 868l205 -432l204 432l-204 435z" />
<glyph unicode="1" horiz-adv-x="718" d="M86 1573q84 10 163 50t107 97h148v-1034h-201v795q-39 -16 -94 -26.5t-105 -12.5z" />
<glyph unicode="2" horiz-adv-x="718" d="M63 686l285 565q29 57 42 100.5t13 84.5q0 57 -31.5 98t-109.5 41q-41 0 -75.5 -10.5t-59.5 -24.5l-45 143q39 23 97.5 41.5t125.5 18.5q152 0 225.5 -82t73.5 -207q0 -59 -26.5 -126.5t-67.5 -139.5l-174 -309h291v-193h-564z" />
<glyph unicode="3" horiz-adv-x="718" d="M74 725l55 156q23 -16 62.5 -29.5t84.5 -13.5q61 0 99.5 44t38.5 109q0 78 -52.5 123t-144.5 45v127q86 10 135 57.5t49 112.5q0 53 -31.5 86t-93.5 33q-39 0 -75.5 -11.5t-59.5 -23.5l-51 143q39 23 98.5 41.5t122.5 18.5q70 0 123 -20.5t89 -56.5t54.5 -84t18.5 -101 q0 -37 -12.5 -73t-32 -65.5t-42 -52t-42.5 -37.5v-4q25 -12 51.5 -34.5t49 -55.5t36.5 -75t14 -93q0 -72 -24.5 -132t-66.5 -103t-99 -67.5t-123 -24.5q-80 0 -138 18t-93 43z" />
<glyph unicode="4" horiz-adv-x="1556" d="M53 1563q88 10 165 54t106 103h147v-1034h-201v784q-41 -16 -94 -25t-104 -11zM383 31l629 1720l168 -61l-629 -1721zM893 203v141l321 690h189v-690h59v-141h-59v-203h-193v203h-317zM1028 344h186v307v42t3 40q0 23 2 41h-5q-4 -16 -12 -37q-6 -16 -13 -36.5t-18 -41.5 z" />
<glyph unicode="5" horiz-adv-x="1556" d="M53 1573q84 10 163 50t108 97h147v-1034h-201v795q-39 -16 -94 -26.5t-104 -12.5zM338 31l629 1720l170 -61l-629 -1721zM909 0l297 565q29 57 43.5 99.5t14.5 85.5q0 59 -30 99t-97 40q-35 0 -69 -10.5t-56 -24.5l-45 143q39 23 96 41.5t115 18.5q150 0 219 -82t69 -211 q0 -59 -28.5 -126t-69.5 -136l-182 -309h287v-193h-564z" />
<glyph unicode="6" horiz-adv-x="1556" d="M72 725l55 156q23 -16 62.5 -29.5t84.5 -13.5q61 0 99.5 44t38.5 109q0 78 -52.5 123t-144.5 45v127q86 10 136 57.5t50 112.5q0 53 -31.5 86t-93.5 33q-39 0 -76.5 -11.5t-60.5 -23.5l-49 143q39 23 97.5 41.5t121.5 18.5q70 0 123 -20.5t89 -56.5t54.5 -84t18.5 -101 q0 -37 -12.5 -73t-32 -65.5t-42 -52t-42.5 -37.5v-4q25 -12 51.5 -34.5t49 -55.5t36.5 -75t14 -93q0 -72 -24.5 -132t-66.5 -103t-99 -67.5t-123 -24.5q-80 0 -138.5 18t-92.5 43zM424 29l629 1720l168 -61l-629 -1721zM893 203v141l321 690h189v-690h59v-141h-59v-203h-193 v203h-317zM1028 344h186v307v42t3 40q0 23 2 41h-5q-4 -16 -12 -37q-6 -16 -13 -36.5t-18 -41.5z" />
<glyph unicode="7" d="M270 809l441 442l442 -442l-442 -440zM502 809l104 -104l211 210l105 -106l-211 -209l106 -104l313 313l-419 420l-105 -105l105 -104z" />
<glyph unicode="8" horiz-adv-x="1515" d="M82 817q0 82 22.5 156t66.5 130t109.5 89t151.5 33q55 0 102.5 -17.5t87.5 -48.5t74.5 -70.5t65.5 -84.5q31 45 63.5 84.5t71.5 70.5t85 48.5t101 17.5q86 0 151.5 -33t110 -89t67 -130t22.5 -156t-22.5 -155.5t-67 -130t-110 -90t-151.5 -33.5q-55 0 -102 18t-87 49 t-75 71t-65 85q-31 -45 -64 -86t-71.5 -72t-85 -48t-101.5 -17q-86 0 -151.5 33.5t-109.5 90t-66.5 130t-22.5 155.5zM274 811q0 -76 42 -129t116 -53q66 0 114 53t95 129q-47 74 -95 127t-114 53q-74 0 -116 -52t-42 -128zM874 827q47 -74 95.5 -127t113.5 -53q74 0 116 53 t42 129t-42 128.5t-116 52.5q-66 0 -113.5 -53.5t-95.5 -129.5z" />
<glyph unicode="9" horiz-adv-x="991" d="M78 459q0 117 29.5 223t88 187t143.5 129.5t198 48.5q25 0 50 -4.5t44 -12.5q-33 195 -124 316.5t-206 175.5l86 225q104 -43 198.5 -127t167 -204t114.5 -275.5t42 -341.5q0 -166 -27.5 -314.5t-87 -261t-151.5 -179.5t-219 -67q-86 0 -150.5 36t-107.5 100.5 t-65.5 152.5t-22.5 193zM328 459q0 -115 30.5 -179.5t90.5 -64.5q49 0 89 47t65.5 131t37.5 200t10 251q-39 14 -82 14q-61 0 -106 -32.5t-75 -88t-45 -128t-15 -150.5z" />
<glyph unicode=":" horiz-adv-x="499" d="M-12 1624l102 29q35 -137 160 -137t160 137l102 -29q0 -37 -15.5 -81t-46 -82t-81 -64.5t-119.5 -26.5q-72 0 -121 26.5t-80 64.5t-46 82t-15 81z" />
<glyph unicode=";" horiz-adv-x="499" d="M-12 1604l59 73l203 -147l203 147l59 -73l-186 -209q-33 -37 -76 -37t-76 37z" />
<glyph unicode="&#x3c;" horiz-adv-x="991" d="M115 215v174h762v-174h-762zM115 809v160l762 313v-205l-553 -188l553 -187v-204z" />
<glyph unicode="=" horiz-adv-x="991" d="M115 530v193h260l96 188h-356v193h452l107 215l117 -62l-76 -153h162v-193h-259l-96 -188h355v-193h-451l-111 -219l-116 62l80 157h-164z" />
<glyph unicode="&#x3e;" horiz-adv-x="991" d="M115 215v174h762v-174h-762zM115 498v204l553 187l-553 188v205l762 -313v-160z" />
<glyph unicode="?" d="M270 809l441 442l442 -442l-442 -440zM502 809l104 -104l211 210l105 -106l-211 -209l106 -104l313 313l-419 420l-105 -105l105 -104z" />
<glyph unicode="@" d="M270 809l441 442l442 -442l-442 -440zM502 809l104 -104l211 210l105 -106l-211 -209l106 -104l313 313l-419 420l-105 -105l105 -104z" />
<glyph unicode="A" horiz-adv-x="1050" d="M23 0l350 1720h305l350 -1720h-1005zM313 205h400l-166 948q-8 43 -13.5 88t-9.5 80q-6 41 -8 82h-4q-2 -41 -6 -82q-4 -35 -9 -80t-14 -88z" />
<glyph unicode="B" d="M270 809l441 442l442 -442l-442 -440zM502 809l104 -104l211 210l105 -106l-211 -209l106 -104l313 313l-419 420l-105 -105l105 -104z" />
<glyph unicode="C" d="M270 809l441 442l442 -442l-442 -440zM502 809l104 -104l211 210l105 -106l-211 -209l106 -104l313 313l-419 420l-105 -105l105 -104z" />
<glyph unicode="D" horiz-adv-x="1110" d="M59 768v223h86v668q45 29 130 56.5t217 27.5q141 0 242.5 -61.5t166 -175t95 -276.5t30.5 -368q0 -199 -30.5 -361.5t-95 -279.5t-166 -180.5t-242.5 -63.5q-135 0 -220.5 28t-126.5 56v707h-86zM418 227q12 -4 34.5 -8t51.5 -4q57 0 102 35t77 113.5t48.5 202.5 t16.5 302q0 180 -17.5 305t-49.5 202t-77 111t-100 34t-86 -13v-516h143v-223h-143v-541z" />
<glyph unicode="E" horiz-adv-x="1249" d="M90 592v174l172 -16q-3 49 -3 97v25q1 60 5 121l-174 -16v176l191 -20q51 303 208.5 456.5t393.5 153.5q111 0 182.5 -27.5t112.5 -56.5l-80 -195q-33 16 -83 31.5t-104 15.5q-283 0 -354 -376l451 18v-176l-467 20q-4 -61 -5 -125v-25q0 -50 3 -99l469 18v-174l-451 18 q68 -389 354 -389q55 0 104.5 15.5t82.5 31.5l80 -207q-41 -29 -113 -56.5t-182 -27.5q-238 0 -398.5 160t-208.5 473z" />
<glyph unicode="F" horiz-adv-x="1130" d="M61 1051v198h101v131q0 188 87 272.5t238 84.5q20 0 41 -2t41 -6v-193q-10 2 -20 2h-21q-47 0 -72.5 -34t-25.5 -115v-140h139v-198h-139v-1051h-268v1051h-101zM752 0v1720h266v-1720h-266z" />
<glyph unicode="G" d="M270 809l441 442l442 -442l-442 -440zM502 809l104 -104l211 210l105 -106l-211 -209l106 -104l313 313l-419 420l-105 -105l105 -104z" />
<glyph unicode="H" d="M270 809l441 442l442 -442l-442 -440zM502 809l104 -104l211 210l105 -106l-211 -209l106 -104l313 313l-419 420l-105 -105l105 -104z" />
<glyph unicode="I" d="M270 809l441 442l442 -442l-442 -440zM502 809l104 -104l211 210l105 -106l-211 -209l106 -104l313 313l-419 420l-105 -105l105 -104z" />
<glyph unicode="J" d="M270 809l441 442l442 -442l-442 -440zM502 809l104 -104l211 210l105 -106l-211 -209l106 -104l313 313l-419 420l-105 -105l105 -104z" />
<glyph unicode="K" d="M270 809l441 442l442 -442l-442 -440zM502 809l104 -104l211 210l105 -106l-211 -209l106 -104l313 313l-419 420l-105 -105l105 -104z" />
<glyph unicode="L" horiz-adv-x="784" d="M68 791v221l82 35v673h276v-559l147 64v-224l-147 -63v-707h303v-231h-579v823z" />
<glyph unicode="M" d="M270 809l441 442l442 -442l-442 -440zM502 809l104 -104l211 210l105 -106l-211 -209l106 -104l313 313l-419 420l-105 -105l105 -104z" />
<glyph unicode="N" d="M270 809l441 442l442 -442l-442 -440zM502 809l104 -104l211 210l105 -106l-211 -209l106 -104l313 313l-419 420l-105 -105l105 -104z" />
<glyph unicode="O" horiz-adv-x="1138" d="M70 0v231h190q-25 53 -53.5 139.5t-51 189t-38 212t-15.5 207.5q0 168 25 308t80 241.5t144 158t218 56.5t218.5 -56.5t144.5 -158t79.5 -241.5t24.5 -308q0 -98 -15 -207.5t-37.5 -212t-51.5 -188.5t-53 -140h190v-231h-461q31 63 56.5 171t46 237t32 271t11.5 277 q0 272 -42 418t-143 146q-100 0 -142 -145.5t-42 -418.5q0 -135 11.5 -277t32 -271t46 -237t55.5 -171h-460z" />
<glyph unicode="P" horiz-adv-x="1687" d="M86 860q0 190 53.5 352t152.5 280t239.5 184.5t312.5 66.5t312 -66.5t239.5 -184.5t153 -280t53.5 -352t-53.5 -352t-153 -279.5t-239.5 -184.5t-312 -67t-312.5 67t-239.5 184.5t-152.5 279.5t-53.5 352zM287 864q0 -160 36.5 -294t108.5 -230t175.5 -149.5t236.5 -53.5 t236.5 53.5t175 149.5t108.5 230t37 294t-37 294t-108.5 229.5t-175 148.5t-236.5 53t-236.5 -53t-175.5 -148.5t-108.5 -229.5t-36.5 -294zM606 367v970q37 18 96.5 33.5t145.5 15.5q160 0 241.5 -79.5t81.5 -214.5q0 -145 -88 -219t-235 -74q-16 0 -29.5 1t-27.5 3v-436 h-185zM791 922q10 -2 20 -2h20q74 0 114 39t40 135q0 92 -38 129t-99 37q-16 0 -30.5 -2.5t-26.5 -6.5v-329z" />
<glyph unicode="Q" d="M270 809l441 442l442 -442l-442 -440zM502 809l104 -104l211 210l105 -106l-211 -209l106 -104l313 313l-419 420l-105 -105l105 -104z" />
<glyph unicode="R" d="M270 809l441 442l442 -442l-442 -440zM502 809l104 -104l211 210l105 -106l-211 -209l106 -104l313 313l-419 420l-105 -105l105 -104z" />
<glyph unicode="S" horiz-adv-x="856" d="M61 61l66 220q27 -18 78 -36t106 -18q43 0 78 16.5t59.5 45t38 66.5t13.5 79q0 86 -32 151.5t-79 124t-102.5 116t-102.5 126t-78.5 155.5t-31.5 204q0 102 31.5 182t88 135t133 85t167.5 30q92 0 164.5 -26.5t111.5 -57.5l-57 -199q-23 16 -72 32.5t-102 16.5 q-86 0 -138.5 -56t-52.5 -142t32 -150.5t81 -123t104.5 -116t104.5 -126t80.5 -155.5t31.5 -206q0 -100 -31.5 -184t-87 -144.5t-133 -94.5t-170.5 -34q-100 0 -178 26t-121 58zM205 2075l59 73l205 -147l203 147l59 -73l-188 -209q-33 -37 -74 -37q-43 0 -76 37z" />
<glyph unicode="T" horiz-adv-x="1011" d="M115 0v1720h272v-315q12 4 34.5 8t45.5 4q127 0 219 -35.5t151.5 -100t87 -155.5t27.5 -200q0 -119 -33.5 -213.5t-96 -160t-153.5 -100t-206 -34.5q-45 0 -76 6v-424h-272zM387 627q14 -2 30.5 -2h33.5q121 0 174 78t53 219q0 145 -49 213.5t-160 68.5q-51 0 -82 -12 v-565z" />
<glyph unicode="U" d="M270 809l441 442l442 -442l-442 -440zM502 809l104 -104l211 210l105 -106l-211 -209l106 -104l313 313l-419 420l-105 -105l105 -104z" />
<glyph unicode="V" horiz-adv-x="1085" d="M16 1051v198h322l127 -686q6 -37 12 -75.5t10 -69.5q6 -37 9 -70h4q2 33 8 70q4 31 9 69.5t13 75.5l220 1157h258l-385 -1720h-271l-250 1051h-86z" />
<glyph unicode="W" d="M270 809l441 442l442 -442l-442 -440zM502 809l104 -104l211 210l105 -106l-211 -209l106 -104l313 313l-419 420l-105 -105l105 -104z" />
<glyph unicode="X" d="M270 809l441 442l442 -442l-442 -440zM502 809l104 -104l211 210l105 -106l-211 -209l106 -104l313 313l-419 420l-105 -105l105 -104z" />
<glyph unicode="Y" horiz-adv-x="980" d="M14 1720h299l189 -698h4l186 698h275l-338 -991v-729h-277v729zM420 1839l100 277q61 43 135 43q35 0 64 -10.5t39 -32.5l-211 -277h-127z" />
<glyph unicode="Z" horiz-adv-x="827" d="M39 0l395 1497h-364v223h696l-383 -1491h385v-229h-729zM154 2075l59 73l203 -147l205 147l59 -73l-188 -209q-33 -37 -76 -37q-41 0 -74 37z" />
<glyph unicode="[" d="M270 809l441 442l442 -442l-442 -440zM502 809l104 -104l211 210l105 -106l-211 -209l106 -104l313 313l-419 420l-105 -105l105 -104z" />
<glyph unicode="\" d="M270 809l441 442l442 -442l-442 -440zM502 809l104 -104l211 210l105 -106l-211 -209l106 -104l313 313l-419 420l-105 -105l105 -104z" />
<glyph unicode="]" d="M270 809l441 442l442 -442l-442 -440zM502 809l104 -104l211 210l105 -106l-211 -209l106 -104l313 313l-419 420l-105 -105l105 -104z" />
<glyph unicode="^" d="M270 809l441 442l442 -442l-442 -440zM502 809l104 -104l211 210l105 -106l-211 -209l106 -104l313 313l-419 420l-105 -105l105 -104z" />
<glyph unicode="_" horiz-adv-x="499" d="M-12 1419l186 209q33 37 76 37t76 -37l186 -209l-59 -73l-203 145l-203 -145z" />
<glyph unicode="`" d="M270 809l441 442l442 -442l-442 -440zM502 809l104 -104l211 210l105 -106l-211 -209l106 -104l313 313l-419 420l-105 -105l105 -104z" />
<glyph unicode="a" horiz-adv-x="1212" d="M61 1495v225h1090v-225h-119v-1495h-276v1495h-299v-1495h-277v1495h-119z" />
<glyph unicode="b" d="M270 809l441 442l442 -442l-442 -440zM502 809l104 -104l211 210l105 -106l-211 -209l106 -104l313 313l-419 420l-105 -105l105 -104z" />
<glyph unicode="c" horiz-adv-x="499" d="M111 -219q0 72 54 130t152 105h154q-86 -47 -133 -104t-47 -105q0 -61 74 -61q57 0 122 35l27 -94q-47 -29 -100.5 -44.5t-106.5 -15.5q-82 0 -139 44t-57 110z" />
<glyph unicode="d" horiz-adv-x="970" d="M78 627q0 315 102.5 475t274.5 160q45 0 75 -13q-16 47 -32.5 91t-36.5 87l-154 -55q-4 10 -13 27.5t-20.5 37t-21.5 37t-16 27.5l153 55q-18 29 -37.5 56.5t-42.5 56.5l226 74q20 -25 38.5 -51.5t36.5 -55.5l146 54q6 -10 17 -27.5t22.5 -37t21.5 -38t14 -26.5l-145 -52 q98 -193 150.5 -418.5t52.5 -463.5q0 -313 -100.5 -480t-305.5 -167t-305 166.5t-100 480.5zM348 631q0 -223 29 -330.5t106 -107.5q78 0 106.5 107.5t28.5 330.5q0 227 -43 436q-31 10 -75 10q-78 0 -115 -108.5t-37 -337.5z" />
<glyph unicode="e" horiz-adv-x="1130" d="M90 297l141 199q-45 59 -70.5 136t-25.5 167q0 88 24.5 163.5t67.5 135.5l-137 194l166 117l129 -182q80 43 180 43t180 -43l129 182l166 -117l-137 -194q43 -59 67.5 -135t24.5 -164q0 -90 -25.5 -167t-70.5 -136l141 -199l-166 -117l-135 189q-82 -41 -174 -41t-174 41 l-135 -189zM393 805q0 -125 47 -204t125 -79t125 79t47 204t-47 205t-125 80t-125 -80t-47 -205z" />
<glyph unicode="f" horiz-adv-x="1130" d="M61 1051v198h101v131q0 188 87 272.5t238 84.5q20 0 41 -2t41 -6v-193q-10 2 -20 2h-21q-47 0 -72.5 -34t-25.5 -115v-140h139v-198h-139v-1051h-268v1051h-101zM737 1593q0 61 43 104.5t105 43.5q61 0 104 -43.5t43 -104.5t-43 -104t-104 -43t-104.5 43t-43.5 104z M752 0v1249h266v-1249h-266z" />
<glyph unicode="g" d="M270 809l441 442l442 -442l-442 -440zM502 809l104 -104l211 210l105 -106l-211 -209l106 -104l313 313l-419 420l-105 -105l105 -104z" />
<glyph unicode="h" d="M270 809l441 442l442 -442l-442 -440zM502 809l104 -104l211 210l105 -106l-211 -209l106 -104l313 313l-419 420l-105 -105l105 -104z" />
<glyph unicode="i" horiz-adv-x="491" d="M113 0v1249h268v-1249h-268z" />
<glyph unicode="j" d="M270 809l441 442l442 -442l-442 -440zM502 809l104 -104l211 210l105 -106l-211 -209l106 -104l313 313l-419 420l-105 -105l105 -104z" />
<glyph unicode="k" d="M270 809l441 442l442 -442l-442 -440zM502 809l104 -104l211 210l105 -106l-211 -209l106 -104l313 313l-419 420l-105 -105l105 -104z" />
<glyph unicode="l" horiz-adv-x="569" d="M57 795v217l90 39v669h269v-559l102 43v-217l-102 -43v-944h-269v834z" />
<glyph unicode="m" d="M270 809l441 442l442 -442l-442 -440zM502 809l104 -104l211 210l105 -106l-211 -209l106 -104l313 313l-419 420l-105 -105l105 -104z" />
<glyph unicode="n" d="M270 809l441 442l442 -442l-442 -440zM502 809l104 -104l211 210l105 -106l-211 -209l106 -104l313 313l-419 420l-105 -105l105 -104z" />
<glyph unicode="o" d="M270 809l441 442l442 -442l-442 -440zM502 809l104 -104l211 210l105 -106l-211 -209l106 -104l313 313l-419 420l-105 -105l105 -104z" />
<glyph unicode="p" horiz-adv-x="1146" d="M66 1051v198h991v-198h-113v-713q0 -137 113 -137v-201h-94q-131 0 -208 89t-77 249v713h-234v-1051h-266v1051h-112z" />
<glyph unicode="q" d="M270 809l441 442l442 -442l-442 -440zM502 809l104 -104l211 210l105 -106l-211 -209l106 -104l313 313l-419 420l-105 -105l105 -104z" />
<glyph unicode="r" d="M270 809l441 442l442 -442l-442 -440zM502 809l104 -104l211 210l105 -106l-211 -209l106 -104l313 313l-419 420l-105 -105l105 -104z" />
<glyph unicode="s" horiz-adv-x="739" d="M53 61l62 205q27 -23 70.5 -40t93.5 -17q53 0 87.5 33.5t34.5 93.5q0 57 -24.5 98t-62.5 76t-81 70.5t-80.5 81t-62 106.5t-24.5 150q0 160 89 256t242 96q86 0 151.5 -24.5t106.5 -57.5l-59 -187q-25 16 -61.5 33t-83.5 17q-57 0 -90 -37t-33 -96q0 -53 25.5 -92.5 t64.5 -73t84 -69.5t84 -82t64.5 -110.5t25.5 -154.5q0 -80 -26.5 -145.5t-74 -112.5t-113 -72.5t-143.5 -25.5q-92 0 -155.5 23.5t-110.5 57.5zM119 1604l59 73l203 -147l203 147l59 -73l-186 -209q-33 -37 -76 -37t-76 37z" />
<glyph unicode="t" horiz-adv-x="978" d="M111 -328v2048h264v-491q25 12 64.5 23.5t99.5 11.5q84 0 151.5 -42t113.5 -121t70.5 -191t24.5 -251q0 -332 -109.5 -501.5t-332.5 -169.5q-23 0 -44.5 3t-37.5 9v-328h-264zM375 209q14 -6 32.5 -11t45.5 -5q100 0 138 115.5t38 332.5t-37 320.5t-127 103.5 q-27 0 -50.5 -5t-39.5 -13v-838z" />
<glyph unicode="u" d="M270 809l441 442l442 -442l-442 -440zM502 809l104 -104l211 210l105 -106l-211 -209l106 -104l313 313l-419 420l-105 -105l105 -104z" />
<glyph unicode="v" d="M270 809l441 442l442 -442l-442 -440zM502 809l104 -104l211 210l105 -106l-211 -209l106 -104l313 313l-419 420l-105 -105l105 -104z" />
<glyph unicode="w" d="M270 809l441 442l442 -442l-442 -440zM502 809l104 -104l211 210l105 -106l-211 -209l106 -104l313 313l-419 420l-105 -105l105 -104z" />
<glyph unicode="x" horiz-adv-x="991" d="M104 498l263 321l-263 320l156 123l236 -289l235 289l156 -123l-262 -320l262 -321l-156 -121l-235 287l-236 -287z" />
<glyph unicode="y" horiz-adv-x="929" d="M37 1249h280l127 -696q6 -37 11.5 -75t9.5 -68q4 -37 8 -68h4q4 31 10 68q4 31 9.5 68.5t13.5 74.5l133 696h250l-383 -1577h-272l110 367zM397 1368l99 277q61 43 135 43q35 0 64.5 -10.5t39.5 -32.5l-213 -277h-125z" />
<glyph unicode="z" horiz-adv-x="751" d="M55 0l312 1051h-293v198h606l-295 -1042h299v-207h-629zM109 1604l59 73l205 -147l202 147l60 -73l-189 -209q-33 -37 -73 -37q-43 0 -76 37z" />
<glyph unicode="{" d="M270 809l441 442l442 -442l-442 -440zM502 809l104 -104l211 210l105 -106l-211 -209l106 -104l313 313l-419 420l-105 -105l105 -104z" />
<glyph unicode="|" d="M270 809l441 442l442 -442l-442 -440zM502 809l104 -104l211 210l105 -106l-211 -209l106 -104l313 313l-419 420l-105 -105l105 -104z" />
<glyph unicode="}" d="M270 809l441 442l442 -442l-442 -440zM502 809l104 -104l211 210l105 -106l-211 -209l106 -104l313 313l-419 420l-105 -105l105 -104z" />
<glyph unicode="~" d="M270 809l441 442l442 -442l-442 -440zM502 809l104 -104l211 210l105 -106l-211 -209l106 -104l313 313l-419 420l-105 -105l105 -104z" />
<glyph unicode="&#xa1;" d="M270 809l441 442l442 -442l-442 -440zM502 809l104 -104l211 210l105 -106l-211 -209l106 -104l313 313l-419 420l-105 -105l105 -104z" />
<glyph unicode="&#xa2;" d="M270 809l441 442l442 -442l-442 -440zM502 809l104 -104l211 210l105 -106l-211 -209l106 -104l313 313l-419 420l-105 -105l105 -104z" />
<glyph unicode="&#xa3;" d="M270 809l441 442l442 -442l-442 -440zM502 809l104 -104l211 210l105 -106l-211 -209l106 -104l313 313l-419 420l-105 -105l105 -104z" />
<glyph unicode="&#xa4;" horiz-adv-x="1130" d="M90 297l141 199q-45 59 -70.5 136t-25.5 167q0 88 24.5 163.5t67.5 135.5l-137 194l166 117l129 -182q80 43 180 43t180 -43l129 182l166 -117l-137 -194q43 -59 67.5 -135t24.5 -164q0 -90 -25.5 -167t-70.5 -136l141 -199l-166 -117l-135 189q-82 -41 -174 -41t-174 41 l-135 -189zM393 805q0 -125 47 -204t125 -79t125 79t47 204t-47 205t-125 80t-125 -80t-47 -205z" />
<glyph unicode="&#xa5;" d="M270 809l441 442l442 -442l-442 -440zM502 809l104 -104l211 210l105 -106l-211 -209l106 -104l313 313l-419 420l-105 -105l105 -104z" />
<glyph unicode="&#xa6;" d="M270 809l441 442l442 -442l-442 -440zM502 809l104 -104l211 210l105 -106l-211 -209l106 -104l313 313l-419 420l-105 -105l105 -104z" />
<glyph unicode="&#xa7;" d="M270 809l441 442l442 -442l-442 -440zM502 809l104 -104l211 210l105 -106l-211 -209l106 -104l313 313l-419 420l-105 -105l105 -104z" />
<glyph unicode="&#xa8;" d="M270 809l441 442l442 -442l-442 -440zM502 809l104 -104l211 210l105 -106l-211 -209l106 -104l313 313l-419 420l-105 -105l105 -104z" />
<glyph unicode="&#xa9;" d="M270 809l441 442l442 -442l-442 -440zM502 809l104 -104l211 210l105 -106l-211 -209l106 -104l313 313l-419 420l-105 -105l105 -104z" />
<glyph unicode="&#xaa;" d="M270 809l441 442l442 -442l-442 -440zM502 809l104 -104l211 210l105 -106l-211 -209l106 -104l313 313l-419 420l-105 -105l105 -104z" />
<glyph unicode="&#xab;" d="M270 809l441 442l442 -442l-442 -440zM502 809l104 -104l211 210l105 -106l-211 -209l106 -104l313 313l-419 420l-105 -105l105 -104z" />
<glyph unicode="&#xac;" d="M270 809l441 442l442 -442l-442 -440zM502 809l104 -104l211 210l105 -106l-211 -209l106 -104l313 313l-419 420l-105 -105l105 -104z" />
<glyph unicode="&#xad;" horiz-adv-x="991" d="M115 721v192h762v-192h-762z" />
<glyph unicode="&#xae;" d="M270 809l441 442l442 -442l-442 -440zM502 809l104 -104l211 210l105 -106l-211 -209l106 -104l313 313l-419 420l-105 -105l105 -104z" />
<glyph unicode="&#xaf;" d="M270 809l441 442l442 -442l-442 -440zM502 809l104 -104l211 210l105 -106l-211 -209l106 -104l313 313l-419 420l-105 -105l105 -104z" />
<glyph unicode="&#xb0;" d="M270 809l441 442l442 -442l-442 -440zM502 809l104 -104l211 210l105 -106l-211 -209l106 -104l313 313l-419 420l-105 -105l105 -104z" />
<glyph unicode="&#xb1;" d="M270 809l441 442l442 -442l-442 -440zM502 809l104 -104l211 210l105 -106l-211 -209l106 -104l313 313l-419 420l-105 -105l105 -104z" />
<glyph unicode="&#xb2;" d="M270 809l441 442l442 -442l-442 -440zM502 809l104 -104l211 210l105 -106l-211 -209l106 -104l313 313l-419 420l-105 -105l105 -104z" />
<glyph unicode="&#xb3;" d="M270 809l441 442l442 -442l-442 -440zM502 809l104 -104l211 210l105 -106l-211 -209l106 -104l313 313l-419 420l-105 -105l105 -104z" />
<glyph unicode="&#xb4;" d="M270 809l441 442l442 -442l-442 -440zM502 809l104 -104l211 210l105 -106l-211 -209l106 -104l313 313l-419 420l-105 -105l105 -104z" />
<glyph unicode="&#xb6;" horiz-adv-x="991" d="M29 1329q0 84 22.5 155.5t69.5 124t120.5 82t176.5 29.5h514v-153h-88v-1895h-174v1895h-211v-1895h-174v1284q-125 33 -190.5 130.5t-65.5 242.5z" />
<glyph unicode="&#xb7;" horiz-adv-x="518" d="M92 799q0 70 49 119t119 49t118 -49t48 -119t-48 -118t-118 -48t-119 48t-49 118z" />
<glyph unicode="&#xb8;" d="M270 809l441 442l442 -442l-442 -440zM502 809l104 -104l211 210l105 -106l-211 -209l106 -104l313 313l-419 420l-105 -105l105 -104z" />
<glyph unicode="&#xb9;" d="M270 809l441 442l442 -442l-442 -440zM502 809l104 -104l211 210l105 -106l-211 -209l106 -104l313 313l-419 420l-105 -105l105 -104z" />
<glyph unicode="&#xba;" d="M270 809l441 442l442 -442l-442 -440zM502 809l104 -104l211 210l105 -106l-211 -209l106 -104l313 313l-419 420l-105 -105l105 -104z" />
<glyph unicode="&#xbb;" d="M270 809l441 442l442 -442l-442 -440zM502 809l104 -104l211 210l105 -106l-211 -209l106 -104l313 313l-419 420l-105 -105l105 -104z" />
<glyph unicode="&#xbc;" d="M270 809l441 442l442 -442l-442 -440zM502 809l104 -104l211 210l105 -106l-211 -209l106 -104l313 313l-419 420l-105 -105l105 -104z" />
<glyph unicode="&#xbd;" d="M270 809l441 442l442 -442l-442 -440zM502 809l104 -104l211 210l105 -106l-211 -209l106 -104l313 313l-419 420l-105 -105l105 -104z" />
<glyph unicode="&#xbe;" d="M270 809l441 442l442 -442l-442 -440zM502 809l104 -104l211 210l105 -106l-211 -209l106 -104l313 313l-419 420l-105 -105l105 -104z" />
<glyph unicode="&#xbf;" d="M270 809l441 442l442 -442l-442 -440zM502 809l104 -104l211 210l105 -106l-211 -209l106 -104l313 313l-419 420l-105 -105l105 -104z" />
<glyph unicode="&#xc0;" d="M270 809l441 442l442 -442l-442 -440zM502 809l104 -104l211 210l105 -106l-211 -209l106 -104l313 313l-419 420l-105 -105l105 -104z" />
<glyph unicode="&#xc1;" d="M270 809l441 442l442 -442l-442 -440zM502 809l104 -104l211 210l105 -106l-211 -209l106 -104l313 313l-419 420l-105 -105l105 -104z" />
<glyph unicode="&#xc2;" d="M270 809l441 442l442 -442l-442 -440zM502 809l104 -104l211 210l105 -106l-211 -209l106 -104l313 313l-419 420l-105 -105l105 -104z" />
<glyph unicode="&#xc3;" d="M270 809l441 442l442 -442l-442 -440zM502 809l104 -104l211 210l105 -106l-211 -209l106 -104l313 313l-419 420l-105 -105l105 -104z" />
<glyph unicode="&#xc4;" d="M270 809l441 442l442 -442l-442 -440zM502 809l104 -104l211 210l105 -106l-211 -209l106 -104l313 313l-419 420l-105 -105l105 -104z" />
<glyph unicode="&#xc5;" d="M270 809l441 442l442 -442l-442 -440zM502 809l104 -104l211 210l105 -106l-211 -209l106 -104l313 313l-419 420l-105 -105l105 -104z" />
<glyph unicode="&#xc6;" d="M270 809l441 442l442 -442l-442 -440zM502 809l104 -104l211 210l105 -106l-211 -209l106 -104l313 313l-419 420l-105 -105l105 -104z" />
<glyph unicode="&#xc7;" d="M270 809l441 442l442 -442l-442 -440zM502 809l104 -104l211 210l105 -106l-211 -209l106 -104l313 313l-419 420l-105 -105l105 -104z" />
<glyph unicode="&#xc8;" d="M270 809l441 442l442 -442l-442 -440zM502 809l104 -104l211 210l105 -106l-211 -209l106 -104l313 313l-419 420l-105 -105l105 -104z" />
<glyph unicode="&#xc9;" d="M270 809l441 442l442 -442l-442 -440zM502 809l104 -104l211 210l105 -106l-211 -209l106 -104l313 313l-419 420l-105 -105l105 -104z" />
<glyph unicode="&#xca;" d="M270 809l441 442l442 -442l-442 -440zM502 809l104 -104l211 210l105 -106l-211 -209l106 -104l313 313l-419 420l-105 -105l105 -104z" />
<glyph unicode="&#xcb;" d="M270 809l441 442l442 -442l-442 -440zM502 809l104 -104l211 210l105 -106l-211 -209l106 -104l313 313l-419 420l-105 -105l105 -104z" />
<glyph unicode="&#xcc;" d="M270 809l441 442l442 -442l-442 -440zM502 809l104 -104l211 210l105 -106l-211 -209l106 -104l313 313l-419 420l-105 -105l105 -104z" />
<glyph unicode="&#xcd;" d="M270 809l441 442l442 -442l-442 -440zM502 809l104 -104l211 210l105 -106l-211 -209l106 -104l313 313l-419 420l-105 -105l105 -104z" />
<glyph unicode="&#xce;" d="M270 809l441 442l442 -442l-442 -440zM502 809l104 -104l211 210l105 -106l-211 -209l106 -104l313 313l-419 420l-105 -105l105 -104z" />
<glyph unicode="&#xcf;" d="M270 809l441 442l442 -442l-442 -440zM502 809l104 -104l211 210l105 -106l-211 -209l106 -104l313 313l-419 420l-105 -105l105 -104z" />
<glyph unicode="&#xd0;" d="M270 809l441 442l442 -442l-442 -440zM502 809l104 -104l211 210l105 -106l-211 -209l106 -104l313 313l-419 420l-105 -105l105 -104z" />
<glyph unicode="&#xd1;" d="M270 809l441 442l442 -442l-442 -440zM502 809l104 -104l211 210l105 -106l-211 -209l106 -104l313 313l-419 420l-105 -105l105 -104z" />
<glyph unicode="&#xd2;" d="M270 809l441 442l442 -442l-442 -440zM502 809l104 -104l211 210l105 -106l-211 -209l106 -104l313 313l-419 420l-105 -105l105 -104z" />
<glyph unicode="&#xd3;" d="M270 809l441 442l442 -442l-442 -440zM502 809l104 -104l211 210l105 -106l-211 -209l106 -104l313 313l-419 420l-105 -105l105 -104z" />
<glyph unicode="&#xd4;" d="M270 809l441 442l442 -442l-442 -440zM502 809l104 -104l211 210l105 -106l-211 -209l106 -104l313 313l-419 420l-105 -105l105 -104z" />
<glyph unicode="&#xd5;" d="M270 809l441 442l442 -442l-442 -440zM502 809l104 -104l211 210l105 -106l-211 -209l106 -104l313 313l-419 420l-105 -105l105 -104z" />
<glyph unicode="&#xd6;" d="M270 809l441 442l442 -442l-442 -440zM502 809l104 -104l211 210l105 -106l-211 -209l106 -104l313 313l-419 420l-105 -105l105 -104z" />
<glyph unicode="&#xd7;" d="M270 809l441 442l442 -442l-442 -440zM502 809l104 -104l211 210l105 -106l-211 -209l106 -104l313 313l-419 420l-105 -105l105 -104z" />
<glyph unicode="&#xd8;" d="M270 809l441 442l442 -442l-442 -440zM502 809l104 -104l211 210l105 -106l-211 -209l106 -104l313 313l-419 420l-105 -105l105 -104z" />
<glyph unicode="&#xd9;" d="M270 809l441 442l442 -442l-442 -440zM502 809l104 -104l211 210l105 -106l-211 -209l106 -104l313 313l-419 420l-105 -105l105 -104z" />
<glyph unicode="&#xda;" d="M270 809l441 442l442 -442l-442 -440zM502 809l104 -104l211 210l105 -106l-211 -209l106 -104l313 313l-419 420l-105 -105l105 -104z" />
<glyph unicode="&#xdb;" d="M270 809l441 442l442 -442l-442 -440zM502 809l104 -104l211 210l105 -106l-211 -209l106 -104l313 313l-419 420l-105 -105l105 -104z" />
<glyph unicode="&#xdc;" d="M270 809l441 442l442 -442l-442 -440zM502 809l104 -104l211 210l105 -106l-211 -209l106 -104l313 313l-419 420l-105 -105l105 -104z" />
<glyph unicode="&#xdd;" d="M270 809l441 442l442 -442l-442 -440zM502 809l104 -104l211 210l105 -106l-211 -209l106 -104l313 313l-419 420l-105 -105l105 -104z" />
<glyph unicode="&#xde;" d="M270 809l441 442l442 -442l-442 -440zM502 809l104 -104l211 210l105 -106l-211 -209l106 -104l313 313l-419 420l-105 -105l105 -104z" />
<glyph unicode="&#xdf;" d="M270 809l441 442l442 -442l-442 -440zM502 809l104 -104l211 210l105 -106l-211 -209l106 -104l313 313l-419 420l-105 -105l105 -104z" />
<glyph unicode="&#xe0;" d="M270 809l441 442l442 -442l-442 -440zM502 809l104 -104l211 210l105 -106l-211 -209l106 -104l313 313l-419 420l-105 -105l105 -104z" />
<glyph unicode="&#xe1;" d="M270 809l441 442l442 -442l-442 -440zM502 809l104 -104l211 210l105 -106l-211 -209l106 -104l313 313l-419 420l-105 -105l105 -104z" />
<glyph unicode="&#xe2;" d="M270 809l441 442l442 -442l-442 -440zM502 809l104 -104l211 210l105 -106l-211 -209l106 -104l313 313l-419 420l-105 -105l105 -104z" />
<glyph unicode="&#xe3;" d="M270 809l441 442l442 -442l-442 -440zM502 809l104 -104l211 210l105 -106l-211 -209l106 -104l313 313l-419 420l-105 -105l105 -104z" />
<glyph unicode="&#xe4;" d="M270 809l441 442l442 -442l-442 -440zM502 809l104 -104l211 210l105 -106l-211 -209l106 -104l313 313l-419 420l-105 -105l105 -104z" />
<glyph unicode="&#xe5;" d="M270 809l441 442l442 -442l-442 -440zM502 809l104 -104l211 210l105 -106l-211 -209l106 -104l313 313l-419 420l-105 -105l105 -104z" />
<glyph unicode="&#xe6;" d="M270 809l441 442l442 -442l-442 -440zM502 809l104 -104l211 210l105 -106l-211 -209l106 -104l313 313l-419 420l-105 -105l105 -104z" />
<glyph unicode="&#xe7;" d="M270 809l441 442l442 -442l-442 -440zM502 809l104 -104l211 210l105 -106l-211 -209l106 -104l313 313l-419 420l-105 -105l105 -104z" />
<glyph unicode="&#xe8;" d="M270 809l441 442l442 -442l-442 -440zM502 809l104 -104l211 210l105 -106l-211 -209l106 -104l313 313l-419 420l-105 -105l105 -104z" />
<glyph unicode="&#xe9;" d="M270 809l441 442l442 -442l-442 -440zM502 809l104 -104l211 210l105 -106l-211 -209l106 -104l313 313l-419 420l-105 -105l105 -104z" />
<glyph unicode="&#xea;" d="M270 809l441 442l442 -442l-442 -440zM502 809l104 -104l211 210l105 -106l-211 -209l106 -104l313 313l-419 420l-105 -105l105 -104z" />
<glyph unicode="&#xeb;" d="M270 809l441 442l442 -442l-442 -440zM502 809l104 -104l211 210l105 -106l-211 -209l106 -104l313 313l-419 420l-105 -105l105 -104z" />
<glyph unicode="&#xec;" d="M270 809l441 442l442 -442l-442 -440zM502 809l104 -104l211 210l105 -106l-211 -209l106 -104l313 313l-419 420l-105 -105l105 -104z" />
<glyph unicode="&#xed;" d="M270 809l441 442l442 -442l-442 -440zM502 809l104 -104l211 210l105 -106l-211 -209l106 -104l313 313l-419 420l-105 -105l105 -104z" />
<glyph unicode="&#xee;" d="M270 809l441 442l442 -442l-442 -440zM502 809l104 -104l211 210l105 -106l-211 -209l106 -104l313 313l-419 420l-105 -105l105 -104z" />
<glyph unicode="&#xef;" d="M270 809l441 442l442 -442l-442 -440zM502 809l104 -104l211 210l105 -106l-211 -209l106 -104l313 313l-419 420l-105 -105l105 -104z" />
<glyph unicode="&#xf0;" d="M270 809l441 442l442 -442l-442 -440zM502 809l104 -104l211 210l105 -106l-211 -209l106 -104l313 313l-419 420l-105 -105l105 -104z" />
<glyph unicode="&#xf1;" d="M270 809l441 442l442 -442l-442 -440zM502 809l104 -104l211 210l105 -106l-211 -209l106 -104l313 313l-419 420l-105 -105l105 -104z" />
<glyph unicode="&#xf2;" d="M270 809l441 442l442 -442l-442 -440zM502 809l104 -104l211 210l105 -106l-211 -209l106 -104l313 313l-419 420l-105 -105l105 -104z" />
<glyph unicode="&#xf3;" d="M270 809l441 442l442 -442l-442 -440zM502 809l104 -104l211 210l105 -106l-211 -209l106 -104l313 313l-419 420l-105 -105l105 -104z" />
<glyph unicode="&#xf4;" d="M270 809l441 442l442 -442l-442 -440zM502 809l104 -104l211 210l105 -106l-211 -209l106 -104l313 313l-419 420l-105 -105l105 -104z" />
<glyph unicode="&#xf5;" d="M270 809l441 442l442 -442l-442 -440zM502 809l104 -104l211 210l105 -106l-211 -209l106 -104l313 313l-419 420l-105 -105l105 -104z" />
<glyph unicode="&#xf6;" d="M270 809l441 442l442 -442l-442 -440zM502 809l104 -104l211 210l105 -106l-211 -209l106 -104l313 313l-419 420l-105 -105l105 -104z" />
<glyph unicode="&#xf7;" d="M270 809l441 442l442 -442l-442 -440zM502 809l104 -104l211 210l105 -106l-211 -209l106 -104l313 313l-419 420l-105 -105l105 -104z" />
<glyph unicode="&#xf8;" d="M270 809l441 442l442 -442l-442 -440zM502 809l104 -104l211 210l105 -106l-211 -209l106 -104l313 313l-419 420l-105 -105l105 -104z" />
<glyph unicode="&#xf9;" d="M270 809l441 442l442 -442l-442 -440zM502 809l104 -104l211 210l105 -106l-211 -209l106 -104l313 313l-419 420l-105 -105l105 -104z" />
<glyph unicode="&#xfa;" d="M270 809l441 442l442 -442l-442 -440zM502 809l104 -104l211 210l105 -106l-211 -209l106 -104l313 313l-419 420l-105 -105l105 -104z" />
<glyph unicode="&#xfb;" d="M270 809l441 442l442 -442l-442 -440zM502 809l104 -104l211 210l105 -106l-211 -209l106 -104l313 313l-419 420l-105 -105l105 -104z" />
<glyph unicode="&#xfc;" d="M270 809l441 442l442 -442l-442 -440zM502 809l104 -104l211 210l105 -106l-211 -209l106 -104l313 313l-419 420l-105 -105l105 -104z" />
<glyph unicode="&#xfd;" d="M270 809l441 442l442 -442l-442 -440zM502 809l104 -104l211 210l105 -106l-211 -209l106 -104l313 313l-419 420l-105 -105l105 -104z" />
<glyph unicode="&#xfe;" d="M270 809l441 442l442 -442l-442 -440zM502 809l104 -104l211 210l105 -106l-211 -209l106 -104l313 313l-419 420l-105 -105l105 -104z" />
<glyph unicode="&#xff;" d="M270 809l441 442l442 -442l-442 -440zM502 809l104 -104l211 210l105 -106l-211 -209l106 -104l313 313l-419 420l-105 -105l105 -104z" />
<glyph unicode="&#x152;" d="M270 809l441 442l442 -442l-442 -440zM502 809l104 -104l211 210l105 -106l-211 -209l106 -104l313 313l-419 420l-105 -105l105 -104z" />
<glyph unicode="&#x153;" d="M270 809l441 442l442 -442l-442 -440zM502 809l104 -104l211 210l105 -106l-211 -209l106 -104l313 313l-419 420l-105 -105l105 -104z" />
<glyph unicode="&#x178;" d="M270 809l441 442l442 -442l-442 -440zM502 809l104 -104l211 210l105 -106l-211 -209l106 -104l313 313l-419 420l-105 -105l105 -104z" />
<glyph unicode="&#x2c6;" d="M270 809l441 442l442 -442l-442 -440zM502 809l104 -104l211 210l105 -106l-211 -209l106 -104l313 313l-419 420l-105 -105l105 -104z" />
<glyph unicode="&#x2dc;" d="M270 809l441 442l442 -442l-442 -440zM502 809l104 -104l211 210l105 -106l-211 -209l106 -104l313 313l-419 420l-105 -105l105 -104z" />
<glyph unicode="&#x2000;" horiz-adv-x="1079" />
<glyph unicode="&#x2001;" horiz-adv-x="2159" />
<glyph unicode="&#x2002;" horiz-adv-x="1079" />
<glyph unicode="&#x2003;" horiz-adv-x="2159" />
<glyph unicode="&#x2004;" horiz-adv-x="719" />
<glyph unicode="&#x2005;" horiz-adv-x="539" />
<glyph unicode="&#x2006;" horiz-adv-x="359" />
<glyph unicode="&#x2007;" horiz-adv-x="359" />
<glyph unicode="&#x2008;" horiz-adv-x="269" />
<glyph unicode="&#x2009;" horiz-adv-x="431" />
<glyph unicode="&#x200a;" horiz-adv-x="119" />
<glyph unicode="&#x2010;" horiz-adv-x="991" d="M115 721v192h762v-192h-762z" />
<glyph unicode="&#x2011;" horiz-adv-x="991" d="M115 721v192h762v-192h-762z" />
<glyph unicode="&#x2012;" horiz-adv-x="991" d="M115 721v192h762v-192h-762z" />
<glyph unicode="&#x2013;" d="M270 809l441 442l442 -442l-442 -440zM502 809l104 -104l211 210l105 -106l-211 -209l106 -104l313 313l-419 420l-105 -105l105 -104z" />
<glyph unicode="&#x2014;" d="M270 809l441 442l442 -442l-442 -440zM502 809l104 -104l211 210l105 -106l-211 -209l106 -104l313 313l-419 420l-105 -105l105 -104z" />
<glyph unicode="&#x2018;" d="M270 809l441 442l442 -442l-442 -440zM502 809l104 -104l211 210l105 -106l-211 -209l106 -104l313 313l-419 420l-105 -105l105 -104z" />
<glyph unicode="&#x2019;" d="M270 809l441 442l442 -442l-442 -440zM502 809l104 -104l211 210l105 -106l-211 -209l106 -104l313 313l-419 420l-105 -105l105 -104z" />
<glyph unicode="&#x201a;" d="M270 809l441 442l442 -442l-442 -440zM502 809l104 -104l211 210l105 -106l-211 -209l106 -104l313 313l-419 420l-105 -105l105 -104z" />
<glyph unicode="&#x201c;" d="M270 809l441 442l442 -442l-442 -440zM502 809l104 -104l211 210l105 -106l-211 -209l106 -104l313 313l-419 420l-105 -105l105 -104z" />
<glyph unicode="&#x201d;" d="M270 809l441 442l442 -442l-442 -440zM502 809l104 -104l211 210l105 -106l-211 -209l106 -104l313 313l-419 420l-105 -105l105 -104z" />
<glyph unicode="&#x201e;" d="M270 809l441 442l442 -442l-442 -440zM502 809l104 -104l211 210l105 -106l-211 -209l106 -104l313 313l-419 420l-105 -105l105 -104z" />
<glyph unicode="&#x2022;" horiz-adv-x="737" d="M86 815q0 57 22.5 109.5t60.5 90.5t89 60.5t111 22.5q57 0 109 -22.5t90 -60.5t60.5 -90.5t22.5 -109.5q0 -59 -22.5 -110.5t-60.5 -89t-90 -60.5t-109 -23q-59 0 -110.5 23t-89.5 60.5t-60.5 89t-22.5 110.5z" />
<glyph unicode="&#x2026;" d="M270 809l441 442l442 -442l-442 -440zM502 809l104 -104l211 210l105 -106l-211 -209l106 -104l313 313l-419 420l-105 -105l105 -104z" />
<glyph unicode="&#x202f;" horiz-adv-x="431" />
<glyph unicode="&#x2039;" d="M270 809l441 442l442 -442l-442 -440zM502 809l104 -104l211 210l105 -106l-211 -209l106 -104l313 313l-419 420l-105 -105l105 -104z" />
<glyph unicode="&#x203a;" d="M270 809l441 442l442 -442l-442 -440zM502 809l104 -104l211 210l105 -106l-211 -209l106 -104l313 313l-419 420l-105 -105l105 -104z" />
<glyph unicode="&#x205f;" horiz-adv-x="539" />
<glyph unicode="&#x20ac;" horiz-adv-x="1249" d="M90 592v174l172 -16q-4 61 -3 121.5t5 121.5l-174 -16v176l191 -20q51 303 208.5 456.5t393.5 153.5q111 0 182.5 -27.5t112.5 -56.5l-80 -195q-33 16 -83 31.5t-104 15.5q-283 0 -354 -376l451 18v-176l-467 20q-4 -61 -5 -124.5t3 -124.5l469 18v-174l-451 18 q68 -389 354 -389q55 0 104.5 15.5t82.5 31.5l80 -207q-41 -29 -113 -56.5t-182 -27.5q-238 0 -398.5 160t-208.5 473z" />
<glyph unicode="&#x2122;" d="M270 809l441 442l442 -442l-442 -440zM502 809l104 -104l211 210l105 -106l-211 -209l106 -104l313 313l-419 420l-105 -105l105 -104z" />
<glyph unicode="&#x25fc;" horiz-adv-x="1259" d="M0 0v1260h1260v-1260h-1260z" />
</font>
</defs>
</svg>
