<?xml version="1.0" standalone="no"?>
<!DOCTYPE svg PUBLIC "-//W3C//DTD SVG 1.1//EN" "http://www.w3.org/Graphics/SVG/1.1/DTD/svg11.dtd" >
<svg xmlns="http://www.w3.org/2000/svg">
<metadata></metadata>
<defs>
<font id="daxcompact-blackexpertblack" horiz-adv-x="1433" >
<font-face units-per-em="2048" ascent="1638" descent="-410" />
<missing-glyph horiz-adv-x="409" />
<glyph unicode="&#xfb01;" d="M270 809l441 442l442 -442l-442 -440zM502 809l104 -104l211 210l105 -106l-211 -209l106 -104l313 313l-419 420l-105 -105l105 -104z" />
<glyph unicode="&#xfb02;" d="M270 809l441 442l442 -442l-442 -440zM502 809l104 -104l211 210l105 -106l-211 -209l106 -104l313 313l-419 420l-105 -105l105 -104z" />
<glyph horiz-adv-x="2048" />
<glyph horiz-adv-x="2048" />
<glyph unicode="&#xd;" horiz-adv-x="409" />
<glyph unicode=" "  horiz-adv-x="409" />
<glyph unicode="&#x09;" horiz-adv-x="409" />
<glyph unicode="&#xa0;" horiz-adv-x="409" />
<glyph unicode="!" horiz-adv-x="471" d="M86 -328v799h299v-799h-299zM86 942v778h299v-778h-299z" />
<glyph unicode="&#x22;" horiz-adv-x="532" d="M0 1352l150 262q27 23 59.5 37t73.5 14q43 0 62.5 -14.5t19.5 -36.5l-230 -262h-135zM299 1352l150 262q27 23 59.5 37t73.5 14q43 0 62.5 -14.5t19.5 -36.5l-230 -262h-135z" />
<glyph unicode="#" horiz-adv-x="991" d="M86 436v260q37 29 91 54.5t128 25.5q59 0 107.5 -16.5t91.5 -34.5t86 -34.5t96 -16.5q72 0 128 26.5t91 57.5v-260q-37 -29 -91 -55.5t-128 -26.5q-59 0 -107.5 16.5t-91.5 34.5t-87 34.5t-95 16.5q-66 0 -125 -25.5t-94 -56.5zM86 879v260q37 29 91 54.5t128 25.5 q59 0 107.5 -16.5t91.5 -35t86 -35t96 -16.5q72 0 128 26.5t91 57.5v-260q-37 -29 -91 -55.5t-128 -26.5q-59 0 -107.5 16.5t-91.5 35t-87 35t-95 16.5q-66 0 -125 -26t-94 -56z" />
<glyph unicode="$" horiz-adv-x="737" d="M45 -63q10 -2 19.5 -2.5t19.5 -0.5q37 0 68.5 27t31.5 86v1278q0 106 31 185t84 130.5t127 76t160 24.5q27 0 52.5 -3t53.5 -7v-267q-10 2 -19 2h-20q-39 0 -69.5 -26.5t-30.5 -85.5v-1286q0 -109 -30.5 -187t-84 -129t-127 -75.5t-159.5 -24.5q-27 0 -52.5 3t-54.5 7 v275z" />
<glyph unicode="%" d="M270 809l441 442l442 -442l-442 -440zM502 809l104 -104l211 210l105 -106l-211 -209l106 -104l313 313l-419 420l-105 -105l105 -104z" />
<glyph unicode="&#x26;" horiz-adv-x="991" d="M20 -328l422 1049l-405 999h881v-356h-386l285 -643l-309 -680h430v-369h-918z" />
<glyph unicode="'" d="M270 809l441 442l442 -442l-442 -440zM502 809l104 -104l211 210l105 -106l-211 -209l106 -104l313 313l-419 420l-105 -105l105 -104z" />
<glyph unicode="(" d="M270 809l441 442l442 -442l-442 -440zM502 809l104 -104l211 210l105 -106l-211 -209l106 -104l313 313l-419 420l-105 -105l105 -104z" />
<glyph unicode=")" d="M270 809l441 442l442 -442l-442 -440zM502 809l104 -104l211 210l105 -106l-211 -209l106 -104l313 313l-419 420l-105 -105l105 -104z" />
<glyph unicode="*" d="M270 809l441 442l442 -442l-442 -440zM502 809l104 -104l211 210l105 -106l-211 -209l106 -104l313 313l-419 420l-105 -105l105 -104z" />
<glyph unicode="+" d="M270 809l441 442l442 -442l-442 -440zM502 809l104 -104l211 210l105 -106l-211 -209l106 -104l313 313l-419 420l-105 -105l105 -104z" />
<glyph unicode="," horiz-adv-x="532" d="M78 1532q0 39 14 73.5t40 60.5t60.5 40t73.5 14t74 -14t60.5 -40t40 -60.5t14.5 -73.5t-14.5 -74t-40 -60.5t-60.5 -40t-74 -14.5t-73.5 14.5t-60.5 40t-40 60.5t-14 74zM195 1532q0 -31 20.5 -52.5t50.5 -21.5q31 0 51.5 21.5t20.5 52.5t-20.5 53.5t-51.5 22.5 t-51 -22.5t-20 -53.5z" />
<glyph unicode="-" horiz-adv-x="991" d="M86 688v258h819v-258h-819z" />
<glyph unicode="." horiz-adv-x="532" d="M94 1511q0 72 50.5 122t121.5 50q72 0 122 -50t50 -122t-50 -122t-122 -50t-122 50.5t-50 121.5z" />
<glyph unicode="/" horiz-adv-x="442" d="M-205 41l629 1720l223 -82l-629 -1720z" />
<glyph unicode="0" horiz-adv-x="1105" d="M33 860l520 885l520 -885l-520 -885zM414 872l139 -270l139 270l-139 271z" />
<glyph unicode="1" horiz-adv-x="712" d="M61 1565q43 4 87.5 17t82 33.5t66.5 47.5t43 57h201v-1034h-271v729q-35 -12 -86 -19t-96 -7z" />
<glyph unicode="2" horiz-adv-x="712" d="M41 686l268 569q23 49 33 86t10 70q0 45 -24.5 76t-89.5 31q-37 0 -69 -10.5t-54 -20.5l-54 196q41 25 104.5 43.5t141.5 18.5q80 0 138.5 -22.5t98.5 -62.5t59.5 -96.5t19.5 -121.5q0 -59 -28 -128t-65 -136l-124 -232h241v-260h-606z" />
<glyph unicode="3" horiz-adv-x="712" d="M53 725l72 211q23 -14 59.5 -25.5t77.5 -11.5q47 0 75 33t28 76q0 59 -43 92t-119 33v167q154 27 153 130q0 37 -24.5 62.5t-75.5 25.5q-35 0 -66.5 -10.5t-54.5 -20.5l-61 196q41 23 103.5 42.5t133.5 19.5q76 0 132.5 -23.5t94 -61.5t57 -88t19.5 -102 q0 -66 -31.5 -124t-70.5 -89v-4q45 -29 86 -92t41 -153q0 -76 -25.5 -139.5t-70.5 -109.5t-105.5 -71.5t-128.5 -25.5q-94 0 -157.5 20t-98.5 43z" />
<glyph unicode="4" horiz-adv-x="1638" d="M37 1565q43 4 87 17t82 33.5t66.5 47.5t42.5 57h201v-1034h-270v729q-35 -12 -86 -19t-97 -7zM406 41l628 1720l223 -82l-628 -1720zM942 178v187l303 669h256v-669h55v-187h-55v-178h-258v178h-301zM1110 365h139v206v45.5t2 42.5q0 23 2 46h-4q-6 -18 -14 -41 q-6 -18 -13.5 -41t-17.5 -43z" />
<glyph unicode="5" horiz-adv-x="1638" d="M37 1565q43 4 87 17t82 33.5t66.5 47.5t42.5 57h201v-1034h-270v729q-35 -12 -86 -19t-97 -7zM356 41l629 1720l223 -82l-628 -1720zM958 0l277 569q23 47 35 84t12 72q0 106 -100 106q-31 0 -59.5 -9t-49.5 -21l-53 196q41 25 103.5 43.5t125.5 18.5q156 0 229.5 -84 t73.5 -223q0 -59 -28.5 -127t-67.5 -133l-131 -232h240v-260h-607z" />
<glyph unicode="6" horiz-adv-x="1638" d="M53 725l72 211q23 -14 59.5 -25.5t77.5 -11.5q47 0 75 33t28 76q0 59 -43 92t-119 33v167q154 27 153 130q0 37 -24.5 62.5t-75.5 25.5q-35 0 -66.5 -10.5t-54.5 -20.5l-61 196q41 23 103.5 42.5t133.5 19.5q76 0 132.5 -23.5t94 -61.5t57 -88t19.5 -102 q0 -66 -31.5 -124t-70.5 -89v-4q45 -29 86 -92t41 -153q0 -76 -25.5 -139.5t-70.5 -109.5t-105.5 -71.5t-128.5 -25.5q-94 0 -157.5 20t-98.5 43zM428 41l629 1720l223 -82l-629 -1720zM942 178v187l303 669h256v-669h55v-187h-55v-178h-258v178h-301zM1110 365h139v206 v45.5t2 42.5q0 23 2 46h-4q-6 -18 -14 -41q-6 -18 -13.5 -41t-17.5 -43z" />
<glyph unicode="7" d="M270 809l441 442l442 -442l-442 -440zM502 809l104 -104l211 210l105 -106l-211 -209l106 -104l313 313l-419 420l-105 -105l105 -104z" />
<glyph unicode="8" horiz-adv-x="1515" d="M61 817q0 92 25 174t72 144.5t116.5 98.5t159.5 36q109 0 187.5 -57.5t140.5 -137.5q59 80 136 137.5t183 57.5q90 0 160 -36t117 -98.5t71.5 -144.5t24.5 -174t-24.5 -174t-71.5 -144.5t-117 -98t-160 -35.5q-109 0 -187.5 57t-139.5 139q-59 -82 -136 -139t-184 -57 q-90 0 -159.5 35.5t-116.5 98t-72 144.5t-25 174zM328 809q0 -53 28.5 -93t77.5 -40q45 0 83 37t77 96q-39 59 -77 96t-83 37q-49 0 -77.5 -40t-28.5 -93zM922 834q39 -57 76.5 -95.5t82.5 -38.5q49 0 78 40.5t29 93.5t-29 93t-78 40q-45 0 -84 -37t-75 -96z" />
<glyph unicode="9" horiz-adv-x="991" d="M57 475q0 125 32 233.5t90.5 189.5t142.5 128t188 47h19.5t21.5 -2q-35 137 -102.5 224t-163.5 135l114 321q111 -43 208.5 -130t169 -211t112.5 -283t41 -345q0 -158 -29 -302t-90 -256.5t-157.5 -180.5t-231.5 -68q-86 0 -154.5 37t-115 103.5t-71 158t-24.5 201.5z M397 475q0 -84 18.5 -126t47.5 -42q27 0 49.5 39t37.5 106.5t23.5 161t8.5 201.5h-27q-31 0 -59.5 -24.5t-50 -68.5t-35 -107.5t-13.5 -139.5z" />
<glyph unicode=":" horiz-adv-x="532" d="M-25 1642l136 33q16 -63 52 -97t103 -34q68 0 104 34t52 97l135 -33q0 -41 -15.5 -91t-50 -93t-90 -72.5t-135.5 -29.5t-135 29.5t-90 72.5t-50.5 93.5t-15.5 90.5z" />
<glyph unicode=";" horiz-adv-x="532" d="M-25 1604l76 96l215 -131l215 131l76 -96l-199 -213q-18 -18 -41.5 -30.5t-50.5 -12.5t-50 12t-42 31z" />
<glyph unicode="&#x3c;" horiz-adv-x="991" d="M86 195v227h819v-227h-819zM86 836v202l819 332v-268l-538 -164l538 -162v-270z" />
<glyph unicode="=" horiz-adv-x="991" d="M86 475v258h276l84 168h-360v258h489l101 201l145 -76l-61 -125h145v-258h-274l-84 -168h358v-258h-487l-103 -203l-145 76l63 127h-147z" />
<glyph unicode="&#x3e;" horiz-adv-x="991" d="M86 195v227h819v-227h-819zM86 506v270l539 162l-539 164v268l819 -332v-202z" />
<glyph unicode="?" d="M270 809l441 442l442 -442l-442 -440zM502 809l104 -104l211 210l105 -106l-211 -209l106 -104l313 313l-419 420l-105 -105l105 -104z" />
<glyph unicode="@" d="M270 809l441 442l442 -442l-442 -440zM502 809l104 -104l211 210l105 -106l-211 -209l106 -104l313 313l-419 420l-105 -105l105 -104z" />
<glyph unicode="A" horiz-adv-x="1064" d="M8 0l309 1720h431l309 -1720h-1049zM399 283h230l-84 710q-6 49 -11.5 100.5t-9.5 92.5q-4 49 -6 92h-4q-4 -43 -8 -92q-4 -41 -8 -92.5t-11 -100.5z" />
<glyph unicode="B" d="M270 809l441 442l442 -442l-442 -440zM502 809l104 -104l211 210l105 -106l-211 -209l106 -104l313 313l-419 420l-105 -105l105 -104z" />
<glyph unicode="C" d="M270 809l441 442l442 -442l-442 -440zM502 809l104 -104l211 210l105 -106l-211 -209l106 -104l313 313l-419 420l-105 -105l105 -104z" />
<glyph unicode="D" horiz-adv-x="1118" d="M45 723v315h70v621q47 27 141 56.5t244 29.5q154 0 260 -60.5t172.5 -174t95.5 -277.5t29 -369q0 -195 -29 -357.5t-94.5 -280t-172 -183.5t-261.5 -66q-158 0 -250 29t-135 55v662h-70zM487 309q10 -2 39 -2q31 0 58.5 24.5t48 88t32 173t11.5 279.5t-11.5 279t-32 172 t-48 87t-58.5 24q-29 0 -39 -2v-394h74v-315h-74v-414z" />
<glyph unicode="E" horiz-adv-x="1249" d="M78 571v226l151 -17q-2 43 -2 86t2 86l-151 -16v225l172 -20q27 156 85 269.5t141 188t186.5 110.5t220.5 36q121 0 195.5 -28.5t113.5 -57.5l-98 -273q-29 12 -75 23.5t-89 11.5q-111 0 -185.5 -65.5t-109.5 -212.5l395 18v-225l-420 20q-2 -45 -3 -90v-18q0 -36 3 -72 l420 21v-226l-393 19q35 -145 109.5 -210t183.5 -65q43 0 89 11.5t75 23.5l98 -289q-39 -29 -113.5 -57.5t-195.5 -28.5q-119 0 -223.5 37t-186.5 112t-140.5 190.5t-84.5 275.5z" />
<glyph unicode="F" horiz-adv-x="1200" d="M49 971v278h82v92q0 215 102.5 307.5t274.5 92.5q27 0 52.5 -3t53.5 -7v-267q-10 2 -19 2h-20q-35 0 -55 -26.5t-20 -85.5v-105h114v-278h-114v-971h-369v971h-82zM750 0v1720h368v-1720h-368z" />
<glyph unicode="G" d="M270 809l441 442l442 -442l-442 -440zM502 809l104 -104l211 210l105 -106l-211 -209l106 -104l313 313l-419 420l-105 -105l105 -104z" />
<glyph unicode="H" d="M270 809l441 442l442 -442l-442 -440zM502 809l104 -104l211 210l105 -106l-211 -209l106 -104l313 313l-419 420l-105 -105l105 -104z" />
<glyph unicode="I" d="M270 809l441 442l442 -442l-442 -440zM502 809l104 -104l211 210l105 -106l-211 -209l106 -104l313 313l-419 420l-105 -105l105 -104z" />
<glyph unicode="J" d="M270 809l441 442l442 -442l-442 -440zM502 809l104 -104l211 210l105 -106l-211 -209l106 -104l313 313l-419 420l-105 -105l105 -104z" />
<glyph unicode="K" d="M270 809l441 442l442 -442l-442 -440zM502 809l104 -104l211 210l105 -106l-211 -209l106 -104l313 313l-419 420l-105 -105l105 -104z" />
<glyph unicode="L" horiz-adv-x="786" d="M45 725v311l70 29v655h381v-499l118 49v-312l-118 -49v-585h245v-324h-626v754z" />
<glyph unicode="M" d="M270 809l441 442l442 -442l-442 -440zM502 809l104 -104l211 210l105 -106l-211 -209l106 -104l313 313l-419 420l-105 -105l105 -104z" />
<glyph unicode="N" d="M270 809l441 442l442 -442l-442 -440zM502 809l104 -104l211 210l105 -106l-211 -209l106 -104l313 313l-419 420l-105 -105l105 -104z" />
<glyph unicode="O" horiz-adv-x="1146" d="M49 0v324h152q-18 45 -40 124.5t-39.5 174t-28.5 195t-11 186.5q0 160 24.5 296t82 234t151.5 154.5t233 56.5t233.5 -56.5t152 -154.5t82 -234.5t24.5 -295.5q0 -86 -11.5 -186.5t-28.5 -195t-38.5 -174t-40.5 -124.5h152v-324h-492q12 57 24.5 160.5t23 232.5 t16.5 276.5t6 295.5q0 238 -21.5 353.5t-81.5 115.5q-59 0 -80.5 -116t-21.5 -353q0 -147 6 -295t16.5 -277t22.5 -232.5t25 -160.5h-492z" />
<glyph unicode="P" horiz-adv-x="1720" d="M61 860q0 195 59.5 357.5t165 279.5t252 182.5t322.5 65.5q174 0 321.5 -65.5t253 -182.5t165 -279.5t59.5 -357.5t-59.5 -357.5t-165 -279.5t-253 -182.5t-321.5 -65.5q-176 0 -322.5 65.5t-252 182.5t-165 280t-59.5 357zM326 864q0 -158 36.5 -282.5t105.5 -213.5 t168 -136.5t224 -47.5t223.5 47.5t168 136.5t106.5 213.5t37 282.5q0 156 -37 282t-106.5 215t-168 136t-223.5 47t-224 -47t-168 -136t-105.5 -215t-36.5 -282zM596 367v968q41 16 104.5 33.5t163.5 17.5q174 0 259 -83t85 -224q0 -154 -89 -231.5t-236 -77.5q-23 0 -43 4 v-407h-244zM840 934q4 -2 12 -2h14q47 0 71 30.5t24 118.5q0 82 -27 109t-68 27h-13t-13 -3v-280z" />
<glyph unicode="Q" d="M270 809l441 442l442 -442l-442 -440zM502 809l104 -104l211 210l105 -106l-211 -209l106 -104l313 313l-419 420l-105 -105l105 -104z" />
<glyph unicode="R" d="M270 809l441 442l442 -442l-442 -440zM502 809l104 -104l211 210l105 -106l-211 -209l106 -104l313 313l-419 420l-105 -105l105 -104z" />
<glyph unicode="S" horiz-adv-x="851" d="M41 61l82 308q20 -16 63 -31.5t93 -15.5q53 0 92 37.5t39 97.5q0 70 -27 127t-65.5 112.5t-86 112.5t-86.5 127t-65.5 155t-26.5 195q0 111 33 196t92.5 143t139 89t176.5 31q96 0 173.5 -26.5t118.5 -59.5l-65 -279q-20 14 -62.5 27.5t-91.5 13.5q-59 0 -98 -39t-39 -96 q0 -68 27.5 -125t68.5 -111.5t88.5 -111.5t88 -127t68.5 -155.5t28 -198.5q0 -109 -34 -198t-92.5 -151.5t-138 -97.5t-172.5 -35q-117 0 -197.5 27t-123.5 59zM172 2075l76 96l215 -131l215 131l76 -96l-199 -213q-18 -18 -42 -30.5t-50 -12.5q-27 0 -50.5 12t-41.5 31z " />
<glyph unicode="T" horiz-adv-x="1056" d="M86 0v1720h373v-282h28q270 0 399.5 -135t129.5 -373q0 -131 -38 -230.5t-104.5 -167t-158.5 -102.5t-201 -35q-35 0 -55 6v-401h-373zM459 684q8 -2 16 -2h19q145 0 145 242q0 129 -40 174t-105 45q-10 0 -17.5 -1t-17.5 -3v-455z" />
<glyph unicode="U" d="M270 809l441 442l442 -442l-442 -440zM502 809l104 -104l211 210l105 -106l-211 -209l106 -104l313 313l-419 420l-105 -105l105 -104z" />
<glyph unicode="V" horiz-adv-x="1093" d="M0 971v278h408l73 -557q4 -37 8.5 -73.5t8.5 -65.5q4 -35 6 -66h4q2 31 6 66q4 29 7 65.5t9 73.5l152 1028h350l-348 -1720h-389l-211 971h-84z" />
<glyph unicode="W" d="M270 809l441 442l442 -442l-442 -440zM502 809l104 -104l211 210l105 -106l-211 -209l106 -104l313 313l-419 420l-105 -105l105 -104z" />
<glyph unicode="X" d="M270 809l441 442l442 -442l-442 -440zM502 809l104 -104l211 210l105 -106l-211 -209l106 -104l313 313l-419 420l-105 -105l105 -104z" />
<glyph unicode="Y" horiz-adv-x="1024" d="M0 1720h412l116 -602h4l117 602h375l-322 -1015v-705h-380v705zM418 1823l74 276q37 27 83 39t93 12t85 -13t50 -38l-217 -276h-168z" />
<glyph unicode="Z" horiz-adv-x="851" d="M25 0l329 1405h-293v315h746l-309 -1396h309v-324h-782zM143 2075l76 96l215 -131l215 131l76 -96l-199 -213q-18 -18 -41.5 -30.5t-50.5 -12.5t-50.5 12t-41.5 31z" />
<glyph unicode="[" d="M270 809l441 442l442 -442l-442 -440zM502 809l104 -104l211 210l105 -106l-211 -209l106 -104l313 313l-419 420l-105 -105l105 -104z" />
<glyph unicode="\" d="M270 809l441 442l442 -442l-442 -440zM502 809l104 -104l211 210l105 -106l-211 -209l106 -104l313 313l-419 420l-105 -105l105 -104z" />
<glyph unicode="]" d="M270 809l441 442l442 -442l-442 -440zM502 809l104 -104l211 210l105 -106l-211 -209l106 -104l313 313l-419 420l-105 -105l105 -104z" />
<glyph unicode="^" d="M270 809l441 442l442 -442l-442 -440zM502 809l104 -104l211 210l105 -106l-211 -209l106 -104l313 313l-419 420l-105 -105l105 -104z" />
<glyph unicode="_" horiz-adv-x="532" d="M-25 1423l199 213q18 18 42 30.5t50 12.5q27 0 50.5 -12t41.5 -31l199 -213l-76 -96l-215 131l-215 -131z" />
<glyph unicode="`" d="M270 809l441 442l442 -442l-442 -440zM502 809l104 -104l211 210l105 -106l-211 -209l106 -104l313 313l-419 420l-105 -105l105 -104z" />
<glyph unicode="a" horiz-adv-x="1228" d="M49 1405v315h1131v-315h-103v-1405h-381v1405h-164v-1405h-380v1405h-103z" />
<glyph unicode="b" d="M270 809l441 442l442 -442l-442 -440zM502 809l104 -104l211 210l105 -106l-211 -209l106 -104l313 313l-419 420l-105 -105l105 -104z" />
<glyph unicode="c" horiz-adv-x="532" d="M102 -223q0 82 60.5 137t154.5 102h201q-84 -47 -131 -100t-47 -100q0 -29 20.5 -41.5t49.5 -12.5t63.5 10.5t63.5 28.5l32 -118q-51 -37 -116.5 -55.5t-130.5 -18.5q-43 0 -83 12t-71 33.5t-48.5 53.5t-17.5 69z" />
<glyph unicode="d" horiz-adv-x="1003" d="M57 625q0 164 28 283.5t78 197.5t120.5 116t154.5 38q29 0 51 -7q-10 33 -21 64t-26 59l-151 -55q-8 16 -19.5 38.5t-25 47.5t-26.5 47.5t-25 38.5l151 55q-35 53 -76 101l312 96q35 -41 69 -88l150 53q12 -16 26.5 -37.5t28.5 -46t26.5 -47.5t20.5 -37l-149 -53 q96 -186 142 -403t46 -461q0 -332 -114.5 -488.5t-327.5 -156.5t-328 156.5t-115 488.5zM428 633q0 -109 4 -179.5t12.5 -110.5t22.5 -55.5t33 -15.5q18 0 32.5 15.5t22.5 55.5t12 110.5t4 179.5q0 201 -24 371q-8 2 -15.5 3t-19.5 1q-20 0 -35.5 -17.5t-27 -60.5 t-16.5 -116t-5 -181z" />
<glyph unicode="e" horiz-adv-x="1138" d="M70 334l133 184q-39 57 -59.5 127t-20.5 154q0 162 76 276l-129 178l219 158l123 -168q72 27 157 27q86 0 158 -27l123 168l219 -158l-129 -178q76 -115 76 -276q0 -84 -20.5 -154t-59.5 -127l133 -184l-219 -158l-129 176q-69 -24 -146 -24h-6q-82 0 -151 24l-129 -176z M475 809q0 -100 23.5 -158.5t70.5 -58.5t71 58.5t24 158.5t-24 158.5t-71 58.5t-70.5 -58.5t-23.5 -158.5z" />
<glyph unicode="f" horiz-adv-x="1200" d="M49 971v278h82v92q0 215 102.5 307.5t274.5 92.5q27 0 52.5 -3t53.5 -7v-267q-10 2 -19 2h-20q-35 0 -55 -26.5t-20 -85.5v-105h114v-278h-114v-971h-369v971h-82zM737 1544q0 82 57.5 139.5t139.5 57.5t139 -57.5t57 -139.5t-57 -139t-139 -57t-139.5 57t-57.5 139z M750 0v1249h368v-1249h-368z" />
<glyph unicode="g" d="M270 809l441 442l442 -442l-442 -440zM502 809l104 -104l211 210l105 -106l-211 -209l106 -104l313 313l-419 420l-105 -105l105 -104z" />
<glyph unicode="h" d="M270 809l441 442l442 -442l-442 -440zM502 809l104 -104l211 210l105 -106l-211 -209l106 -104l313 313l-419 420l-105 -105l105 -104z" />
<glyph unicode="i" horiz-adv-x="532" d="M82 0v1249h369v-1249h-369z" />
<glyph unicode="j" d="M270 809l441 442l442 -442l-442 -440zM502 809l104 -104l211 210l105 -106l-211 -209l106 -104l313 313l-419 420l-105 -105l105 -104z" />
<glyph unicode="k" d="M270 809l441 442l442 -442l-442 -440zM502 809l104 -104l211 210l105 -106l-211 -209l106 -104l313 313l-419 420l-105 -105l105 -104z" />
<glyph unicode="l" horiz-adv-x="614" d="M45 733v303l74 31v653h368v-501l86 34v-303l-86 -35v-915h-368v764z" />
<glyph unicode="m" d="M270 809l441 442l442 -442l-442 -440zM502 809l104 -104l211 210l105 -106l-211 -209l106 -104l313 313l-419 420l-105 -105l105 -104z" />
<glyph unicode="n" d="M270 809l441 442l442 -442l-442 -440zM502 809l104 -104l211 210l105 -106l-211 -209l106 -104l313 313l-419 420l-105 -105l105 -104z" />
<glyph unicode="o" d="M270 809l441 442l442 -442l-442 -440zM502 809l104 -104l211 210l105 -106l-211 -209l106 -104l313 313l-419 420l-105 -105l105 -104z" />
<glyph unicode="p" horiz-adv-x="1187" d="M49 971v278h1065v-278h-102v-570q0 -61 27.5 -91.5t74.5 -30.5v-279h-123q-160 0 -254 106.5t-94 294.5v570h-123v-971h-368v971h-103z" />
<glyph unicode="q" d="M270 809l441 442l442 -442l-442 -440zM502 809l104 -104l211 210l105 -106l-211 -209l106 -104l313 313l-419 420l-105 -105l105 -104z" />
<glyph unicode="r" d="M270 809l441 442l442 -442l-442 -440zM502 809l104 -104l211 210l105 -106l-211 -209l106 -104l313 313l-419 420l-105 -105l105 -104z" />
<glyph unicode="s" horiz-adv-x="749" d="M33 61l80 285q23 -18 61.5 -34.5t79.5 -16.5q35 0 54.5 21.5t19.5 52.5q0 37 -20.5 68.5t-52.5 62t-68.5 65.5t-68.5 80t-52.5 103.5t-20.5 136.5q0 84 23.5 154.5t69.5 121.5t112.5 80t155.5 29q96 0 167.5 -23.5t118.5 -58.5l-76 -260q-23 14 -53.5 26.5t-70.5 12.5 q-43 0 -63.5 -22.5t-20.5 -59.5t22.5 -65.5t55 -59.5t72.5 -64.5t73 -80t55.5 -105.5t22.5 -141q0 -86 -28 -158t-79 -123t-121.5 -79.5t-158.5 -28.5q-106 0 -171 22.5t-118 58.5zM98 1604l76 96l215 -131l215 131l76 -96l-199 -213q-18 -18 -41.5 -30.5t-50.5 -12.5 t-50.5 12t-41.5 31z" />
<glyph unicode="t" horiz-adv-x="1015" d="M82 -328v2048h367v-485q27 10 61.5 17.5t93.5 7.5q80 0 144.5 -42t111.5 -119t72.5 -186.5t25.5 -244.5q0 -354 -119.5 -517t-349.5 -163h-20t-20 4v-320h-367zM449 279q18 -6 36 -7q63 0 83 86t20 279t-20.5 271.5t-78.5 78.5q-14 0 -23 -1t-17 -3v-704z" />
<glyph unicode="u" d="M270 809l441 442l442 -442l-442 -440zM502 809l104 -104l211 210l105 -106l-211 -209l106 -104l313 313l-419 420l-105 -105l105 -104z" />
<glyph unicode="v" d="M270 809l441 442l442 -442l-442 -440zM502 809l104 -104l211 210l105 -106l-211 -209l106 -104l313 313l-419 420l-105 -105l105 -104z" />
<glyph unicode="w" d="M270 809l441 442l442 -442l-442 -440zM502 809l104 -104l211 210l105 -106l-211 -209l106 -104l313 313l-419 420l-105 -105l105 -104z" />
<glyph unicode="x" horiz-adv-x="991" d="M74 516l250 303l-250 303l207 164l215 -260l215 260l207 -164l-250 -303l250 -303l-207 -164l-215 260l-215 -260z" />
<glyph unicode="y" horiz-adv-x="962" d="M16 1249h383l74 -565q4 -37 7 -74t7 -67q4 -37 7 -68h4q2 31 6 68q4 31 8 67.5t10 73.5l82 565h342l-366 -1577h-373l104 389zM399 1352l74 276q37 27 83 39t93 12t85 -13t50 -38l-217 -276h-168z" />
<glyph unicode="z" horiz-adv-x="749" d="M45 0l223 971h-211v278h635l-203 -962h207v-287h-651zM78 1604l76 96l215 -131l215 131l75 -96l-198 -213q-18 -18 -42 -30.5t-50 -12.5q-27 0 -50.5 12t-42.5 31z" />
<glyph unicode="{" d="M270 809l441 442l442 -442l-442 -440zM502 809l104 -104l211 210l105 -106l-211 -209l106 -104l313 313l-419 420l-105 -105l105 -104z" />
<glyph unicode="|" d="M270 809l441 442l442 -442l-442 -440zM502 809l104 -104l211 210l105 -106l-211 -209l106 -104l313 313l-419 420l-105 -105l105 -104z" />
<glyph unicode="}" d="M270 809l441 442l442 -442l-442 -440zM502 809l104 -104l211 210l105 -106l-211 -209l106 -104l313 313l-419 420l-105 -105l105 -104z" />
<glyph unicode="~" d="M270 809l441 442l442 -442l-442 -440zM502 809l104 -104l211 210l105 -106l-211 -209l106 -104l313 313l-419 420l-105 -105l105 -104z" />
<glyph unicode="&#xa1;" d="M270 809l441 442l442 -442l-442 -440zM502 809l104 -104l211 210l105 -106l-211 -209l106 -104l313 313l-419 420l-105 -105l105 -104z" />
<glyph unicode="&#xa2;" d="M270 809l441 442l442 -442l-442 -440zM502 809l104 -104l211 210l105 -106l-211 -209l106 -104l313 313l-419 420l-105 -105l105 -104z" />
<glyph unicode="&#xa3;" d="M270 809l441 442l442 -442l-442 -440zM502 809l104 -104l211 210l105 -106l-211 -209l106 -104l313 313l-419 420l-105 -105l105 -104z" />
<glyph unicode="&#xa4;" horiz-adv-x="1138" d="M70 334l133 184q-39 57 -59.5 127t-20.5 154q0 162 76 276l-129 178l219 158l123 -168q72 27 157 27q86 0 158 -27l123 168l219 -158l-129 -178q76 -115 76 -276q0 -84 -20.5 -154t-59.5 -127l133 -184l-219 -158l-129 176q-72 -25 -152 -24q-82 0 -151 24l-129 -176z M475 809q0 -100 23.5 -158.5t70.5 -58.5t71 58.5t24 158.5t-24 158.5t-71 58.5t-70.5 -58.5t-23.5 -158.5z" />
<glyph unicode="&#xa5;" d="M270 809l441 442l442 -442l-442 -440zM502 809l104 -104l211 210l105 -106l-211 -209l106 -104l313 313l-419 420l-105 -105l105 -104z" />
<glyph unicode="&#xa6;" d="M270 809l441 442l442 -442l-442 -440zM502 809l104 -104l211 210l105 -106l-211 -209l106 -104l313 313l-419 420l-105 -105l105 -104z" />
<glyph unicode="&#xa7;" d="M270 809l441 442l442 -442l-442 -440zM502 809l104 -104l211 210l105 -106l-211 -209l106 -104l313 313l-419 420l-105 -105l105 -104z" />
<glyph unicode="&#xa8;" d="M270 809l441 442l442 -442l-442 -440zM502 809l104 -104l211 210l105 -106l-211 -209l106 -104l313 313l-419 420l-105 -105l105 -104z" />
<glyph unicode="&#xa9;" d="M270 809l441 442l442 -442l-442 -440zM502 809l104 -104l211 210l105 -106l-211 -209l106 -104l313 313l-419 420l-105 -105l105 -104z" />
<glyph unicode="&#xaa;" d="M270 809l441 442l442 -442l-442 -440zM502 809l104 -104l211 210l105 -106l-211 -209l106 -104l313 313l-419 420l-105 -105l105 -104z" />
<glyph unicode="&#xab;" d="M270 809l441 442l442 -442l-442 -440zM502 809l104 -104l211 210l105 -106l-211 -209l106 -104l313 313l-419 420l-105 -105l105 -104z" />
<glyph unicode="&#xac;" d="M270 809l441 442l442 -442l-442 -440zM502 809l104 -104l211 210l105 -106l-211 -209l106 -104l313 313l-419 420l-105 -105l105 -104z" />
<glyph unicode="&#xad;" horiz-adv-x="991" d="M86 688v258h819v-258h-819z" />
<glyph unicode="&#xae;" d="M270 809l441 442l442 -442l-442 -440zM502 809l104 -104l211 210l105 -106l-211 -209l106 -104l313 313l-419 420l-105 -105l105 -104z" />
<glyph unicode="&#xaf;" d="M270 809l441 442l442 -442l-442 -440zM502 809l104 -104l211 210l105 -106l-211 -209l106 -104l313 313l-419 420l-105 -105l105 -104z" />
<glyph unicode="&#xb0;" d="M270 809l441 442l442 -442l-442 -440zM502 809l104 -104l211 210l105 -106l-211 -209l106 -104l313 313l-419 420l-105 -105l105 -104z" />
<glyph unicode="&#xb1;" d="M270 809l441 442l442 -442l-442 -440zM502 809l104 -104l211 210l105 -106l-211 -209l106 -104l313 313l-419 420l-105 -105l105 -104z" />
<glyph unicode="&#xb2;" d="M270 809l441 442l442 -442l-442 -440zM502 809l104 -104l211 210l105 -106l-211 -209l106 -104l313 313l-419 420l-105 -105l105 -104z" />
<glyph unicode="&#xb3;" d="M270 809l441 442l442 -442l-442 -440zM502 809l104 -104l211 210l105 -106l-211 -209l106 -104l313 313l-419 420l-105 -105l105 -104z" />
<glyph unicode="&#xb4;" d="M270 809l441 442l442 -442l-442 -440zM502 809l104 -104l211 210l105 -106l-211 -209l106 -104l313 313l-419 420l-105 -105l105 -104z" />
<glyph unicode="&#xb6;" horiz-adv-x="991" d="M25 1305q0 92 23.5 168.5t72.5 132t127 85t186 29.5h508v-204h-84v-1844h-221v1844h-143v-1844h-222v1243q-123 41 -185 142.5t-62 247.5z" />
<glyph unicode="&#xb7;" horiz-adv-x="565" d="M61 793q0 45 17.5 86t47.5 70.5t70 47t87 17.5q45 0 86 -17.5t70.5 -47t47 -70.5t17.5 -86q0 -47 -17.5 -87t-47 -70t-70.5 -47.5t-86 -17.5q-47 0 -87 17.5t-70 47.5t-47.5 69.5t-17.5 87.5z" />
<glyph unicode="&#xb8;" d="M270 809l441 442l442 -442l-442 -440zM502 809l104 -104l211 210l105 -106l-211 -209l106 -104l313 313l-419 420l-105 -105l105 -104z" />
<glyph unicode="&#xb9;" d="M270 809l441 442l442 -442l-442 -440zM502 809l104 -104l211 210l105 -106l-211 -209l106 -104l313 313l-419 420l-105 -105l105 -104z" />
<glyph unicode="&#xba;" d="M270 809l441 442l442 -442l-442 -440zM502 809l104 -104l211 210l105 -106l-211 -209l106 -104l313 313l-419 420l-105 -105l105 -104z" />
<glyph unicode="&#xbb;" d="M270 809l441 442l442 -442l-442 -440zM502 809l104 -104l211 210l105 -106l-211 -209l106 -104l313 313l-419 420l-105 -105l105 -104z" />
<glyph unicode="&#xbc;" d="M270 809l441 442l442 -442l-442 -440zM502 809l104 -104l211 210l105 -106l-211 -209l106 -104l313 313l-419 420l-105 -105l105 -104z" />
<glyph unicode="&#xbd;" d="M270 809l441 442l442 -442l-442 -440zM502 809l104 -104l211 210l105 -106l-211 -209l106 -104l313 313l-419 420l-105 -105l105 -104z" />
<glyph unicode="&#xbe;" d="M270 809l441 442l442 -442l-442 -440zM502 809l104 -104l211 210l105 -106l-211 -209l106 -104l313 313l-419 420l-105 -105l105 -104z" />
<glyph unicode="&#xbf;" d="M270 809l441 442l442 -442l-442 -440zM502 809l104 -104l211 210l105 -106l-211 -209l106 -104l313 313l-419 420l-105 -105l105 -104z" />
<glyph unicode="&#xc0;" d="M270 809l441 442l442 -442l-442 -440zM502 809l104 -104l211 210l105 -106l-211 -209l106 -104l313 313l-419 420l-105 -105l105 -104z" />
<glyph unicode="&#xc1;" d="M270 809l441 442l442 -442l-442 -440zM502 809l104 -104l211 210l105 -106l-211 -209l106 -104l313 313l-419 420l-105 -105l105 -104z" />
<glyph unicode="&#xc2;" d="M270 809l441 442l442 -442l-442 -440zM502 809l104 -104l211 210l105 -106l-211 -209l106 -104l313 313l-419 420l-105 -105l105 -104z" />
<glyph unicode="&#xc3;" d="M270 809l441 442l442 -442l-442 -440zM502 809l104 -104l211 210l105 -106l-211 -209l106 -104l313 313l-419 420l-105 -105l105 -104z" />
<glyph unicode="&#xc4;" d="M270 809l441 442l442 -442l-442 -440zM502 809l104 -104l211 210l105 -106l-211 -209l106 -104l313 313l-419 420l-105 -105l105 -104z" />
<glyph unicode="&#xc5;" d="M270 809l441 442l442 -442l-442 -440zM502 809l104 -104l211 210l105 -106l-211 -209l106 -104l313 313l-419 420l-105 -105l105 -104z" />
<glyph unicode="&#xc6;" d="M270 809l441 442l442 -442l-442 -440zM502 809l104 -104l211 210l105 -106l-211 -209l106 -104l313 313l-419 420l-105 -105l105 -104z" />
<glyph unicode="&#xc7;" d="M270 809l441 442l442 -442l-442 -440zM502 809l104 -104l211 210l105 -106l-211 -209l106 -104l313 313l-419 420l-105 -105l105 -104z" />
<glyph unicode="&#xc8;" d="M270 809l441 442l442 -442l-442 -440zM502 809l104 -104l211 210l105 -106l-211 -209l106 -104l313 313l-419 420l-105 -105l105 -104z" />
<glyph unicode="&#xc9;" d="M270 809l441 442l442 -442l-442 -440zM502 809l104 -104l211 210l105 -106l-211 -209l106 -104l313 313l-419 420l-105 -105l105 -104z" />
<glyph unicode="&#xca;" d="M270 809l441 442l442 -442l-442 -440zM502 809l104 -104l211 210l105 -106l-211 -209l106 -104l313 313l-419 420l-105 -105l105 -104z" />
<glyph unicode="&#xcb;" d="M270 809l441 442l442 -442l-442 -440zM502 809l104 -104l211 210l105 -106l-211 -209l106 -104l313 313l-419 420l-105 -105l105 -104z" />
<glyph unicode="&#xcc;" d="M270 809l441 442l442 -442l-442 -440zM502 809l104 -104l211 210l105 -106l-211 -209l106 -104l313 313l-419 420l-105 -105l105 -104z" />
<glyph unicode="&#xcd;" d="M270 809l441 442l442 -442l-442 -440zM502 809l104 -104l211 210l105 -106l-211 -209l106 -104l313 313l-419 420l-105 -105l105 -104z" />
<glyph unicode="&#xce;" d="M270 809l441 442l442 -442l-442 -440zM502 809l104 -104l211 210l105 -106l-211 -209l106 -104l313 313l-419 420l-105 -105l105 -104z" />
<glyph unicode="&#xcf;" d="M270 809l441 442l442 -442l-442 -440zM502 809l104 -104l211 210l105 -106l-211 -209l106 -104l313 313l-419 420l-105 -105l105 -104z" />
<glyph unicode="&#xd0;" d="M270 809l441 442l442 -442l-442 -440zM502 809l104 -104l211 210l105 -106l-211 -209l106 -104l313 313l-419 420l-105 -105l105 -104z" />
<glyph unicode="&#xd1;" d="M270 809l441 442l442 -442l-442 -440zM502 809l104 -104l211 210l105 -106l-211 -209l106 -104l313 313l-419 420l-105 -105l105 -104z" />
<glyph unicode="&#xd2;" d="M270 809l441 442l442 -442l-442 -440zM502 809l104 -104l211 210l105 -106l-211 -209l106 -104l313 313l-419 420l-105 -105l105 -104z" />
<glyph unicode="&#xd3;" d="M270 809l441 442l442 -442l-442 -440zM502 809l104 -104l211 210l105 -106l-211 -209l106 -104l313 313l-419 420l-105 -105l105 -104z" />
<glyph unicode="&#xd4;" d="M270 809l441 442l442 -442l-442 -440zM502 809l104 -104l211 210l105 -106l-211 -209l106 -104l313 313l-419 420l-105 -105l105 -104z" />
<glyph unicode="&#xd5;" d="M270 809l441 442l442 -442l-442 -440zM502 809l104 -104l211 210l105 -106l-211 -209l106 -104l313 313l-419 420l-105 -105l105 -104z" />
<glyph unicode="&#xd6;" d="M270 809l441 442l442 -442l-442 -440zM502 809l104 -104l211 210l105 -106l-211 -209l106 -104l313 313l-419 420l-105 -105l105 -104z" />
<glyph unicode="&#xd7;" d="M270 809l441 442l442 -442l-442 -440zM502 809l104 -104l211 210l105 -106l-211 -209l106 -104l313 313l-419 420l-105 -105l105 -104z" />
<glyph unicode="&#xd8;" d="M270 809l441 442l442 -442l-442 -440zM502 809l104 -104l211 210l105 -106l-211 -209l106 -104l313 313l-419 420l-105 -105l105 -104z" />
<glyph unicode="&#xd9;" d="M270 809l441 442l442 -442l-442 -440zM502 809l104 -104l211 210l105 -106l-211 -209l106 -104l313 313l-419 420l-105 -105l105 -104z" />
<glyph unicode="&#xda;" d="M270 809l441 442l442 -442l-442 -440zM502 809l104 -104l211 210l105 -106l-211 -209l106 -104l313 313l-419 420l-105 -105l105 -104z" />
<glyph unicode="&#xdb;" d="M270 809l441 442l442 -442l-442 -440zM502 809l104 -104l211 210l105 -106l-211 -209l106 -104l313 313l-419 420l-105 -105l105 -104z" />
<glyph unicode="&#xdc;" d="M270 809l441 442l442 -442l-442 -440zM502 809l104 -104l211 210l105 -106l-211 -209l106 -104l313 313l-419 420l-105 -105l105 -104z" />
<glyph unicode="&#xdd;" d="M270 809l441 442l442 -442l-442 -440zM502 809l104 -104l211 210l105 -106l-211 -209l106 -104l313 313l-419 420l-105 -105l105 -104z" />
<glyph unicode="&#xde;" d="M270 809l441 442l442 -442l-442 -440zM502 809l104 -104l211 210l105 -106l-211 -209l106 -104l313 313l-419 420l-105 -105l105 -104z" />
<glyph unicode="&#xdf;" d="M270 809l441 442l442 -442l-442 -440zM502 809l104 -104l211 210l105 -106l-211 -209l106 -104l313 313l-419 420l-105 -105l105 -104z" />
<glyph unicode="&#xe0;" d="M270 809l441 442l442 -442l-442 -440zM502 809l104 -104l211 210l105 -106l-211 -209l106 -104l313 313l-419 420l-105 -105l105 -104z" />
<glyph unicode="&#xe1;" d="M270 809l441 442l442 -442l-442 -440zM502 809l104 -104l211 210l105 -106l-211 -209l106 -104l313 313l-419 420l-105 -105l105 -104z" />
<glyph unicode="&#xe2;" d="M270 809l441 442l442 -442l-442 -440zM502 809l104 -104l211 210l105 -106l-211 -209l106 -104l313 313l-419 420l-105 -105l105 -104z" />
<glyph unicode="&#xe3;" d="M270 809l441 442l442 -442l-442 -440zM502 809l104 -104l211 210l105 -106l-211 -209l106 -104l313 313l-419 420l-105 -105l105 -104z" />
<glyph unicode="&#xe4;" d="M270 809l441 442l442 -442l-442 -440zM502 809l104 -104l211 210l105 -106l-211 -209l106 -104l313 313l-419 420l-105 -105l105 -104z" />
<glyph unicode="&#xe5;" d="M270 809l441 442l442 -442l-442 -440zM502 809l104 -104l211 210l105 -106l-211 -209l106 -104l313 313l-419 420l-105 -105l105 -104z" />
<glyph unicode="&#xe6;" d="M270 809l441 442l442 -442l-442 -440zM502 809l104 -104l211 210l105 -106l-211 -209l106 -104l313 313l-419 420l-105 -105l105 -104z" />
<glyph unicode="&#xe7;" d="M270 809l441 442l442 -442l-442 -440zM502 809l104 -104l211 210l105 -106l-211 -209l106 -104l313 313l-419 420l-105 -105l105 -104z" />
<glyph unicode="&#xe8;" d="M270 809l441 442l442 -442l-442 -440zM502 809l104 -104l211 210l105 -106l-211 -209l106 -104l313 313l-419 420l-105 -105l105 -104z" />
<glyph unicode="&#xe9;" d="M270 809l441 442l442 -442l-442 -440zM502 809l104 -104l211 210l105 -106l-211 -209l106 -104l313 313l-419 420l-105 -105l105 -104z" />
<glyph unicode="&#xea;" d="M270 809l441 442l442 -442l-442 -440zM502 809l104 -104l211 210l105 -106l-211 -209l106 -104l313 313l-419 420l-105 -105l105 -104z" />
<glyph unicode="&#xeb;" d="M270 809l441 442l442 -442l-442 -440zM502 809l104 -104l211 210l105 -106l-211 -209l106 -104l313 313l-419 420l-105 -105l105 -104z" />
<glyph unicode="&#xec;" d="M270 809l441 442l442 -442l-442 -440zM502 809l104 -104l211 210l105 -106l-211 -209l106 -104l313 313l-419 420l-105 -105l105 -104z" />
<glyph unicode="&#xed;" d="M270 809l441 442l442 -442l-442 -440zM502 809l104 -104l211 210l105 -106l-211 -209l106 -104l313 313l-419 420l-105 -105l105 -104z" />
<glyph unicode="&#xee;" d="M270 809l441 442l442 -442l-442 -440zM502 809l104 -104l211 210l105 -106l-211 -209l106 -104l313 313l-419 420l-105 -105l105 -104z" />
<glyph unicode="&#xef;" d="M270 809l441 442l442 -442l-442 -440zM502 809l104 -104l211 210l105 -106l-211 -209l106 -104l313 313l-419 420l-105 -105l105 -104z" />
<glyph unicode="&#xf0;" d="M270 809l441 442l442 -442l-442 -440zM502 809l104 -104l211 210l105 -106l-211 -209l106 -104l313 313l-419 420l-105 -105l105 -104z" />
<glyph unicode="&#xf1;" d="M270 809l441 442l442 -442l-442 -440zM502 809l104 -104l211 210l105 -106l-211 -209l106 -104l313 313l-419 420l-105 -105l105 -104z" />
<glyph unicode="&#xf2;" d="M270 809l441 442l442 -442l-442 -440zM502 809l104 -104l211 210l105 -106l-211 -209l106 -104l313 313l-419 420l-105 -105l105 -104z" />
<glyph unicode="&#xf3;" d="M270 809l441 442l442 -442l-442 -440zM502 809l104 -104l211 210l105 -106l-211 -209l106 -104l313 313l-419 420l-105 -105l105 -104z" />
<glyph unicode="&#xf4;" d="M270 809l441 442l442 -442l-442 -440zM502 809l104 -104l211 210l105 -106l-211 -209l106 -104l313 313l-419 420l-105 -105l105 -104z" />
<glyph unicode="&#xf5;" d="M270 809l441 442l442 -442l-442 -440zM502 809l104 -104l211 210l105 -106l-211 -209l106 -104l313 313l-419 420l-105 -105l105 -104z" />
<glyph unicode="&#xf6;" d="M270 809l441 442l442 -442l-442 -440zM502 809l104 -104l211 210l105 -106l-211 -209l106 -104l313 313l-419 420l-105 -105l105 -104z" />
<glyph unicode="&#xf7;" d="M270 809l441 442l442 -442l-442 -440zM502 809l104 -104l211 210l105 -106l-211 -209l106 -104l313 313l-419 420l-105 -105l105 -104z" />
<glyph unicode="&#xf8;" d="M270 809l441 442l442 -442l-442 -440zM502 809l104 -104l211 210l105 -106l-211 -209l106 -104l313 313l-419 420l-105 -105l105 -104z" />
<glyph unicode="&#xf9;" d="M270 809l441 442l442 -442l-442 -440zM502 809l104 -104l211 210l105 -106l-211 -209l106 -104l313 313l-419 420l-105 -105l105 -104z" />
<glyph unicode="&#xfa;" d="M270 809l441 442l442 -442l-442 -440zM502 809l104 -104l211 210l105 -106l-211 -209l106 -104l313 313l-419 420l-105 -105l105 -104z" />
<glyph unicode="&#xfb;" d="M270 809l441 442l442 -442l-442 -440zM502 809l104 -104l211 210l105 -106l-211 -209l106 -104l313 313l-419 420l-105 -105l105 -104z" />
<glyph unicode="&#xfc;" d="M270 809l441 442l442 -442l-442 -440zM502 809l104 -104l211 210l105 -106l-211 -209l106 -104l313 313l-419 420l-105 -105l105 -104z" />
<glyph unicode="&#xfd;" d="M270 809l441 442l442 -442l-442 -440zM502 809l104 -104l211 210l105 -106l-211 -209l106 -104l313 313l-419 420l-105 -105l105 -104z" />
<glyph unicode="&#xfe;" d="M270 809l441 442l442 -442l-442 -440zM502 809l104 -104l211 210l105 -106l-211 -209l106 -104l313 313l-419 420l-105 -105l105 -104z" />
<glyph unicode="&#xff;" d="M270 809l441 442l442 -442l-442 -440zM502 809l104 -104l211 210l105 -106l-211 -209l106 -104l313 313l-419 420l-105 -105l105 -104z" />
<glyph unicode="&#x152;" d="M270 809l441 442l442 -442l-442 -440zM502 809l104 -104l211 210l105 -106l-211 -209l106 -104l313 313l-419 420l-105 -105l105 -104z" />
<glyph unicode="&#x153;" d="M270 809l441 442l442 -442l-442 -440zM502 809l104 -104l211 210l105 -106l-211 -209l106 -104l313 313l-419 420l-105 -105l105 -104z" />
<glyph unicode="&#x178;" d="M270 809l441 442l442 -442l-442 -440zM502 809l104 -104l211 210l105 -106l-211 -209l106 -104l313 313l-419 420l-105 -105l105 -104z" />
<glyph unicode="&#x2c6;" d="M270 809l441 442l442 -442l-442 -440zM502 809l104 -104l211 210l105 -106l-211 -209l106 -104l313 313l-419 420l-105 -105l105 -104z" />
<glyph unicode="&#x2dc;" d="M270 809l441 442l442 -442l-442 -440zM502 809l104 -104l211 210l105 -106l-211 -209l106 -104l313 313l-419 420l-105 -105l105 -104z" />
<glyph unicode="&#x2000;" horiz-adv-x="1085" />
<glyph unicode="&#x2001;" horiz-adv-x="2171" />
<glyph unicode="&#x2002;" horiz-adv-x="1085" />
<glyph unicode="&#x2003;" horiz-adv-x="2171" />
<glyph unicode="&#x2004;" horiz-adv-x="723" />
<glyph unicode="&#x2005;" horiz-adv-x="542" />
<glyph unicode="&#x2006;" horiz-adv-x="361" />
<glyph unicode="&#x2007;" horiz-adv-x="361" />
<glyph unicode="&#x2008;" horiz-adv-x="271" />
<glyph unicode="&#x2009;" horiz-adv-x="434" />
<glyph unicode="&#x200a;" horiz-adv-x="120" />
<glyph unicode="&#x2010;" horiz-adv-x="991" d="M86 688v258h819v-258h-819z" />
<glyph unicode="&#x2011;" horiz-adv-x="991" d="M86 688v258h819v-258h-819z" />
<glyph unicode="&#x2012;" horiz-adv-x="991" d="M86 688v258h819v-258h-819z" />
<glyph unicode="&#x2013;" d="M270 809l441 442l442 -442l-442 -440zM502 809l104 -104l211 210l105 -106l-211 -209l106 -104l313 313l-419 420l-105 -105l105 -104z" />
<glyph unicode="&#x2014;" d="M270 809l441 442l442 -442l-442 -440zM502 809l104 -104l211 210l105 -106l-211 -209l106 -104l313 313l-419 420l-105 -105l105 -104z" />
<glyph unicode="&#x2018;" d="M270 809l441 442l442 -442l-442 -440zM502 809l104 -104l211 210l105 -106l-211 -209l106 -104l313 313l-419 420l-105 -105l105 -104z" />
<glyph unicode="&#x2019;" d="M270 809l441 442l442 -442l-442 -440zM502 809l104 -104l211 210l105 -106l-211 -209l106 -104l313 313l-419 420l-105 -105l105 -104z" />
<glyph unicode="&#x201a;" d="M270 809l441 442l442 -442l-442 -440zM502 809l104 -104l211 210l105 -106l-211 -209l106 -104l313 313l-419 420l-105 -105l105 -104z" />
<glyph unicode="&#x201c;" d="M270 809l441 442l442 -442l-442 -440zM502 809l104 -104l211 210l105 -106l-211 -209l106 -104l313 313l-419 420l-105 -105l105 -104z" />
<glyph unicode="&#x201d;" d="M270 809l441 442l442 -442l-442 -440zM502 809l104 -104l211 210l105 -106l-211 -209l106 -104l313 313l-419 420l-105 -105l105 -104z" />
<glyph unicode="&#x201e;" d="M270 809l441 442l442 -442l-442 -440zM502 809l104 -104l211 210l105 -106l-211 -209l106 -104l313 313l-419 420l-105 -105l105 -104z" />
<glyph unicode="&#x2022;" horiz-adv-x="819" d="M61 815q0 72 28 135.5t75 110.5t110.5 74.5t135.5 27.5t135 -27.5t110 -74.5t75 -110.5t28 -135.5t-28 -135.5t-75 -110.5t-110.5 -74.5t-134.5 -27.5q-72 0 -135.5 27.5t-110.5 74.5t-75 110.5t-28 135.5z" />
<glyph unicode="&#x2026;" d="M270 809l441 442l442 -442l-442 -440zM502 809l104 -104l211 210l105 -106l-211 -209l106 -104l313 313l-419 420l-105 -105l105 -104z" />
<glyph unicode="&#x202f;" horiz-adv-x="434" />
<glyph unicode="&#x2039;" d="M270 809l441 442l442 -442l-442 -440zM502 809l104 -104l211 210l105 -106l-211 -209l106 -104l313 313l-419 420l-105 -105l105 -104z" />
<glyph unicode="&#x203a;" d="M270 809l441 442l442 -442l-442 -440zM502 809l104 -104l211 210l105 -106l-211 -209l106 -104l313 313l-419 420l-105 -105l105 -104z" />
<glyph unicode="&#x205f;" horiz-adv-x="542" />
<glyph unicode="&#x20ac;" horiz-adv-x="1249" d="M78 571v226l151 -17q-4 86 0 172l-151 -16v225l172 -20q27 156 85 269.5t141 188t186.5 110.5t220.5 36q121 0 195.5 -28.5t113.5 -57.5l-98 -273q-29 12 -75 23.5t-89 11.5q-111 0 -185.5 -65.5t-109.5 -212.5l395 18v-225l-420 20q-2 -45 -3 -90t3 -90l420 21v-226 l-393 19q35 -145 109.5 -210t183.5 -65q43 0 89 11.5t75 23.5l98 -289q-39 -29 -113.5 -57.5t-195.5 -28.5q-119 0 -223.5 37t-186.5 112t-140.5 190.5t-84.5 275.5z" />
<glyph unicode="&#x2122;" d="M270 809l441 442l442 -442l-442 -440zM502 809l104 -104l211 210l105 -106l-211 -209l106 -104l313 313l-419 420l-105 -105l105 -104z" />
<glyph unicode="&#x25fc;" horiz-adv-x="1290" d="M0 0v1290h1290v-1290h-1290z" />
</font>
</defs>
</svg>
