<?xml version="1.0" standalone="no"?>
<!DOCTYPE svg PUBLIC "-//W3C//DTD SVG 1.1//EN" "http://www.w3.org/Graphics/SVG/1.1/DTD/svg11.dtd" >
<svg xmlns="http://www.w3.org/2000/svg">
<metadata></metadata>
<defs>
<font id="daxcompact-extraboldexpertBd" horiz-adv-x="1433" >
<font-face units-per-em="2048" ascent="1638" descent="-410" />
<missing-glyph horiz-adv-x="434" />
<glyph unicode="&#xfb01;" d="M270 809l441 442l442 -442l-442 -440zM502 809l104 -104l211 210l105 -106l-211 -209l106 -104l313 313l-419 420l-105 -105l105 -104z" />
<glyph unicode="&#xfb02;" d="M270 809l441 442l442 -442l-442 -440zM502 809l104 -104l211 210l105 -106l-211 -209l106 -104l313 313l-419 420l-105 -105l105 -104z" />
<glyph horiz-adv-x="2048" />
<glyph horiz-adv-x="2048" />
<glyph unicode="&#xd;" horiz-adv-x="434" />
<glyph unicode=" "  horiz-adv-x="434" />
<glyph unicode="&#x09;" horiz-adv-x="434" />
<glyph unicode="&#xa0;" horiz-adv-x="434" />
<glyph unicode="!" horiz-adv-x="462" d="M102 -328v799h258v-799h-258zM102 942v778h258v-778h-258z" />
<glyph unicode="&#x22;" horiz-adv-x="516" d="M8 1356l150 258q49 45 121 45q74 0 73 -45l-225 -258h-119zM293 1356l149 258q49 45 121 45q74 0 74 -45l-225 -258h-119z" />
<glyph unicode="#" horiz-adv-x="991" d="M100 463v229q35 29 87.5 53.5t123.5 24.5q57 0 103.5 -15.5t88.5 -35t84 -34.5t93 -15q68 0 122 25.5t89 56.5v-228q-35 -29 -87 -54.5t-124 -25.5q-57 0 -103.5 15.5t-88.5 35t-84 35t-93 15.5q-63 0 -119.5 -25.5t-91.5 -56.5zM100 883v227q35 29 87.5 53.5t123.5 24.5 q57 0 103.5 -15.5t88.5 -34t84 -33.5t93 -15q68 0 122 25.5t89 55.5v-229q-35 -29 -87 -54.5t-124 -25.5q-57 0 -103.5 15.5t-88.5 35t-84 35t-93 15.5q-63 0 -119.5 -25t-91.5 -55z" />
<glyph unicode="$" horiz-adv-x="716" d="M49 -100q10 -2 19.5 -2h19.5q43 0 77 30.5t34 100.5v1319q0 100 28.5 174.5t78.5 122t120 71t149 23.5q41 0 93 -10v-230q-10 2 -19.5 2h-19.5q-43 0 -77 -30.5t-34 -100.5v-1325q0 -102 -28.5 -176t-79 -121t-120 -70.5t-149.5 -23.5q-41 0 -92 10v236z" />
<glyph unicode="%" d="M270 809l441 442l442 -442l-442 -440zM502 809l104 -104l211 210l105 -106l-211 -209l106 -104l313 313l-419 420l-105 -105l105 -104z" />
<glyph unicode="&#x26;" horiz-adv-x="991" d="M35 -328l434 1057l-422 991h860v-307h-430l316 -684l-336 -739h469v-318h-891z" />
<glyph unicode="'" d="M270 809l441 442l442 -442l-442 -440zM502 809l104 -104l211 210l105 -106l-211 -209l106 -104l313 313l-419 420l-105 -105l105 -104z" />
<glyph unicode="(" d="M270 809l441 442l442 -442l-442 -440zM502 809l104 -104l211 210l105 -106l-211 -209l106 -104l313 313l-419 420l-105 -105l105 -104z" />
<glyph unicode=")" d="M270 809l441 442l442 -442l-442 -440zM502 809l104 -104l211 210l105 -106l-211 -209l106 -104l313 313l-419 420l-105 -105l105 -104z" />
<glyph unicode="*" d="M270 809l441 442l442 -442l-442 -440zM502 809l104 -104l211 210l105 -106l-211 -209l106 -104l313 313l-419 420l-105 -105l105 -104z" />
<glyph unicode="+" d="M270 809l441 442l442 -442l-442 -440zM502 809l104 -104l211 210l105 -106l-211 -209l106 -104l313 313l-419 420l-105 -105l105 -104z" />
<glyph unicode="," horiz-adv-x="516" d="M76 1532q0 76 53 129t129 53t129 -53t53 -129t-53 -129t-129 -53t-129 53t-53 129zM182 1532q0 -33 21.5 -55.5t54.5 -22.5t54.5 22.5t21.5 55.5t-21.5 56.5t-54.5 23.5t-54.5 -23.5t-21.5 -56.5z" />
<glyph unicode="-" horiz-adv-x="991" d="M100 705v225h791v-225h-791z" />
<glyph unicode="." horiz-adv-x="516" d="M104 1505q0 63 45.5 108.5t108.5 45.5t108.5 -45.5t45.5 -108.5t-45 -108t-109 -45q-63 0 -108.5 45t-45.5 108z" />
<glyph unicode="/" horiz-adv-x="407" d="M-209 37l629 1720l196 -74l-628 -1720z" />
<glyph unicode="0" horiz-adv-x="1089" d="M41 860l504 885l504 -885l-504 -885zM373 870l172 -350l172 350l-172 353z" />
<glyph unicode="1" horiz-adv-x="716" d="M74 1569q43 4 86 17t79.5 32.5t65.5 45.5t43 56h174v-1034h-235v762q-37 -14 -90.5 -22.5t-100.5 -10.5z" />
<glyph unicode="2" horiz-adv-x="716" d="M53 686l275 567q27 53 38 93t11 77q0 51 -27.5 87t-99.5 36q-39 0 -73 -10t-56 -23l-49 170q41 25 101 43.5t132 18.5q156 0 232.5 -84t76.5 -213q0 -59 -27.5 -127t-66.5 -137l-149 -273h266v-225h-584z" />
<glyph unicode="3" horiz-adv-x="716" d="M63 725l64 182q23 -16 61.5 -27.5t81.5 -11.5q53 0 86 39t33 92q0 68 -47 107t-133 39v149q82 12 126 51t44 97q0 45 -28.5 74.5t-84.5 29.5q-37 0 -71.5 -11t-57.5 -22l-55 170q41 23 102.5 42.5t126.5 19.5q72 0 127.5 -22.5t92 -59.5t55 -86t18.5 -102 q0 -70 -37 -130.5t-78 -89.5v-4q23 -14 47.5 -36.5t45 -54.5t34 -72t13.5 -89q0 -74 -25.5 -136t-68.5 -106t-101.5 -69.5t-126.5 -25.5q-88 0 -148.5 20t-95.5 43z" />
<glyph unicode="4" horiz-adv-x="1597" d="M45 1563q88 10 167 54t107 103h175v-1034h-236v756q-37 -14 -90 -21.5t-100 -9.5zM393 37l629 1720l197 -74l-629 -1720zM918 190v164l313 680h221v-680h57v-164h-57v-190h-225v190h-309zM1069 354h164v258v44.5t2 39.5q0 23 2 43h-4q-6 -18 -14 -39q-6 -16 -13.5 -38.5 t-17.5 -43.5z" />
<glyph unicode="5" horiz-adv-x="1597" d="M45 1569q43 4 86 17t80 32.5t65.5 45.5t42.5 56h175v-1034h-236v762q-37 -14 -90 -22.5t-100 -10.5zM348 37l629 1720l194 -74l-628 -1720zM934 0l287 567q27 53 40 92t13 78q0 55 -27.5 89t-87.5 34q-33 0 -63.5 -9t-53.5 -24l-49 170q41 25 100.5 43.5t118.5 18.5 q152 0 224.5 -84t72.5 -217q0 -59 -27.5 -126t-68.5 -134l-158 -273h265v-225h-586z" />
<glyph unicode="6" horiz-adv-x="1597" d="M61 725l66 182q23 -16 60.5 -27.5t80.5 -11.5q53 0 87 39t34 92q0 68 -47 107t-133 39v149q82 12 126 51t44 97q0 45 -28.5 74.5t-84.5 29.5q-37 0 -71.5 -11t-57.5 -22l-55 170q41 23 101.5 42.5t125.5 19.5q72 0 127.5 -22.5t92 -59.5t56 -86t19.5 -102 q0 -70 -37 -130.5t-78 -89.5v-4q23 -14 47.5 -36.5t44 -54.5t33 -72t13.5 -89q0 -74 -24.5 -136t-67.5 -106t-101.5 -69.5t-126.5 -25.5q-88 0 -149.5 20t-96.5 43zM426 35l629 1720l196 -72l-628 -1720zM918 190v164l313 680h221v-680h57v-164h-57v-190h-225v190h-309z M1069 354h164v258v44.5t2 39.5q0 23 2 43h-4q-6 -18 -14 -39q-6 -16 -13.5 -38.5t-17.5 -43.5z" />
<glyph unicode="7" d="M270 809l441 442l442 -442l-442 -440zM502 809l104 -104l211 210l105 -106l-211 -209l106 -104l313 313l-419 420l-105 -105l105 -104z" />
<glyph unicode="8" horiz-adv-x="1515" d="M72 817q0 86 23.5 165t69.5 137.5t113.5 93t155.5 34.5q55 0 101.5 -16.5t86.5 -45t74.5 -66.5t65.5 -81q31 43 63.5 81t71.5 66.5t85 45t99 16.5q88 0 156 -34.5t114 -93t69.5 -137.5t23.5 -165t-23.5 -165t-69.5 -138t-114 -94t-156 -35q-111 0 -188.5 62.5 t-138.5 148.5q-59 -86 -136 -148.5t-184 -62.5q-88 0 -155.5 35t-113.5 94t-69.5 138t-23.5 165zM301 809q0 -66 36 -111t97 -45q55 0 99 45t85 111q-41 66 -85 112t-99 46q-61 0 -97 -46.5t-36 -111.5zM897 829q41 -66 85 -110.5t99 -44.5q61 0 97 45.5t36 111.5t-35.5 112 t-97.5 46q-55 0 -99 -46t-85 -114z" />
<glyph unicode="9" horiz-adv-x="991" d="M68 467q0 121 29.5 228.5t88 189.5t143.5 129t193 47q35 0 70 -10q-35 166 -115 269t-184 155l100 274q109 -43 204 -129t167 -208t114 -278.5t42 -342.5q0 -160 -29 -307.5t-88.5 -260t-153.5 -180.5t-225 -68q-86 0 -152.5 37t-111.5 102.5t-68.5 155.5t-23.5 197z M362 467q0 -98 25 -152.5t70 -54.5q39 0 68.5 43t51 120t31.5 180t8 226q-25 6 -53 7q-47 0 -84 -29t-62.5 -78t-40 -116.5t-14.5 -145.5z" />
<glyph unicode=":" horiz-adv-x="516" d="M-18 1634l118 29q31 -133 158 -133t158 133l119 -29q0 -39 -15.5 -86t-48.5 -88t-85 -68.5t-128 -27.5t-128 27.5t-85 68.5t-48 88t-15 86z" />
<glyph unicode=";" horiz-adv-x="516" d="M-18 1604l67 84l209 -138l209 138l68 -84l-193 -211q-37 -41 -84 -41t-84 41z" />
<glyph unicode="&#x3c;" horiz-adv-x="991" d="M100 205v201h791v-201h-791zM100 823v181l791 321v-235l-547 -177l547 -174v-237z" />
<glyph unicode="=" horiz-adv-x="991" d="M100 502v225h269l90 180h-359v226h471l105 206l131 -69l-70 -137h154v-226h-266l-90 -180h356v-225h-469l-107 -209l-131 67l72 142h-156z" />
<glyph unicode="&#x3e;" horiz-adv-x="991" d="M100 205v201h791v-201h-791zM100 502v237l547 174l-547 177v235l791 -321v-181z" />
<glyph unicode="?" d="M270 809l441 442l442 -442l-442 -440zM502 809l104 -104l211 210l105 -106l-211 -209l106 -104l313 313l-419 420l-105 -105l105 -104z" />
<glyph unicode="@" d="M270 809l441 442l442 -442l-442 -440zM502 809l104 -104l211 210l105 -106l-211 -209l106 -104l313 313l-419 420l-105 -105l105 -104z" />
<glyph unicode="A" horiz-adv-x="1058" d="M16 0l330 1720h367l329 -1720h-1026zM356 244h316l-127 829q-8 47 -12.5 94t-8.5 86q-4 45 -6 88h-4q-4 -43 -8 -88q-4 -39 -9 -86t-12 -94z" />
<glyph unicode="B" d="M270 809l441 442l442 -442l-442 -440zM502 809l104 -104l211 210l105 -106l-211 -209l106 -104l313 313l-419 420l-105 -105l105 -104z" />
<glyph unicode="C" d="M270 809l441 442l442 -442l-442 -440zM502 809l104 -104l211 210l105 -106l-211 -209l106 -104l313 313l-419 420l-105 -105l105 -104z" />
<glyph unicode="D" horiz-adv-x="1114" d="M53 745v271h78v643q45 27 134 56.5t231 29.5q147 0 250.5 -60.5t169 -174t95 -277.5t29.5 -369q0 -197 -29.5 -359.5t-94 -280.5t-168 -182.5t-252.5 -64.5q-145 0 -233.5 28t-131.5 56v684h-78zM453 268q20 -6 63 -6q45 0 81 30t61.5 100.5t40 187t14.5 290.5t-14.5 291 t-40 187.5t-62.5 99.5t-80 29t-63 -7v-454h108v-271h-108v-477z" />
<glyph unicode="E" horiz-adv-x="1249" d="M84 582v200l162 -16q-3 42 -3 83v21q1 50 5 103l-164 -17v201l180 -20q53 309 218 458.5t401 149.5q117 0 188.5 -28.5t112.5 -57.5l-88 -234q-29 16 -78 28.5t-96 12.5q-125 0 -208 -79.5t-118 -247.5l422 18v-201l-443 21q-3 -54 -3 -108t3 -107l443 20v-200l-420 18 q35 -168 117 -250t207 -82q49 0 97 12.5t77 28.5l88 -248q-41 -29 -113 -57.5t-188 -28.5q-119 0 -221.5 38t-182.5 116t-136 195.5t-81 275.5z" />
<glyph unicode="F" horiz-adv-x="1165" d="M55 1012v237h92v113q0 201 94.5 289t256.5 88q43 0 94 -10v-230q-10 2 -20.5 2h-20.5q-41 0 -63.5 -29.5t-22.5 -101.5v-121h127v-237h-127v-1012h-318v1012h-92zM750 0v1720h319v-1720h-319z" />
<glyph unicode="G" d="M270 809l441 442l442 -442l-442 -440zM502 809l104 -104l211 210l105 -106l-211 -209l106 -104l313 313l-419 420l-105 -105l105 -104z" />
<glyph unicode="H" d="M270 809l441 442l442 -442l-442 -440zM502 809l104 -104l211 210l105 -106l-211 -209l106 -104l313 313l-419 420l-105 -105l105 -104z" />
<glyph unicode="I" d="M270 809l441 442l442 -442l-442 -440zM502 809l104 -104l211 210l105 -106l-211 -209l106 -104l313 313l-419 420l-105 -105l105 -104z" />
<glyph unicode="J" d="M270 809l441 442l442 -442l-442 -440zM502 809l104 -104l211 210l105 -106l-211 -209l106 -104l313 313l-419 420l-105 -105l105 -104z" />
<glyph unicode="K" d="M270 809l441 442l442 -442l-442 -440zM502 809l104 -104l211 210l105 -106l-211 -209l106 -104l313 313l-419 420l-105 -105l105 -104z" />
<glyph unicode="L" horiz-adv-x="786" d="M57 758v266l74 33v663h330v-530l133 57v-268l-133 -55v-645h274v-279h-604v788z" />
<glyph unicode="M" d="M270 809l441 442l442 -442l-442 -440zM502 809l104 -104l211 210l105 -106l-211 -209l106 -104l313 313l-419 420l-105 -105l105 -104z" />
<glyph unicode="N" d="M270 809l441 442l442 -442l-442 -440zM502 809l104 -104l211 210l105 -106l-211 -209l106 -104l313 313l-419 420l-105 -105l105 -104z" />
<glyph unicode="O" horiz-adv-x="1142" d="M59 0v279h170q-23 49 -47 132t-43.5 181t-33 202.5t-13.5 196.5q0 164 24.5 302.5t81 238.5t147.5 156.5t226 56.5t226.5 -56.5t147.5 -156.5t81 -238.5t25 -302.5q0 -92 -13.5 -196.5t-33 -202.5t-44 -181t-47.5 -132h170v-279h-475q20 61 40 165.5t35 234.5t23.5 274.5 t8.5 286.5q0 256 -33 386t-111 130t-110.5 -130t-32.5 -386q0 -141 8 -286t23.5 -275t34 -234.5t41.5 -165.5h-476z" />
<glyph unicode="P" horiz-adv-x="1703" d="M74 860q0 193 56 355.5t158.5 280.5t246 183.5t317.5 65.5t317.5 -65.5t246 -183.5t158.5 -280.5t56 -355.5q0 -195 -56 -356.5t-158.5 -279.5t-246 -183.5t-317.5 -65.5t-317.5 65.5t-246 183.5t-158.5 280t-56 356zM307 864q0 -160 37 -290t106.5 -222t171 -142 t230.5 -50t230.5 50t171 142t106.5 222t37 290t-37 289t-106.5 221t-171 142.5t-230.5 50.5t-230.5 -50.5t-171 -142.5t-106.5 -221t-37 -289zM602 367v970q39 16 100.5 32.5t153.5 16.5q168 0 251 -82t83 -219q0 -150 -88 -225.5t-236 -75.5q-14 0 -27.5 1t-23.5 3v-421 h-213zM815 928q8 -2 16.5 -2h18.5q59 0 91 34.5t32 126.5q0 86 -32 118t-83 32q-10 0 -21.5 -1t-21.5 -3v-305z" />
<glyph unicode="Q" d="M270 809l441 442l442 -442l-442 -440zM502 809l104 -104l211 210l105 -106l-211 -209l106 -104l313 313l-419 420l-105 -105l105 -104z" />
<glyph unicode="R" d="M270 809l441 442l442 -442l-442 -440zM502 809l104 -104l211 210l105 -106l-211 -209l106 -104l313 313l-419 420l-105 -105l105 -104z" />
<glyph unicode="S" horiz-adv-x="854" d="M51 61l74 265q23 -16 70 -34t100 -18q70 0 115 50.5t45 121.5q0 78 -29 139.5t-73 118t-94 113.5t-94 126t-73 155t-29 200q0 106 33 189.5t90.5 141t136 87t171.5 29.5q94 0 168.5 -26.5t115.5 -59.5l-61 -240q-23 16 -67 31.5t-97 15.5q-74 0 -119 -48t-45 -120 q0 -76 30 -137t75 -117.5t96 -113t96 -126t75 -156.5t30 -202q0 -104 -33 -191t-89.5 -148.5t-135 -96.5t-171.5 -35q-109 0 -188.5 27t-122.5 59zM188 2075l68 84l209 -138l211 138l67 -84l-194 -211q-37 -41 -84 -41q-45 0 -82 41z" />
<glyph unicode="T" horiz-adv-x="1034" d="M100 0v1720h322v-299q10 2 24.5 4t30.5 2q131 0 226.5 -35.5t158 -100t92 -157.5t29.5 -206q0 -125 -36 -222.5t-100.5 -164t-155.5 -101t-204 -34.5q-20 0 -35.5 2t-29.5 6v-414h-322zM422 655q10 -2 22.5 -2h26.5q98 0 142 70t44 201q0 137 -45 193.5t-131 56.5 q-16 0 -31.5 -2.5t-27.5 -6.5v-510z" />
<glyph unicode="U" d="M270 809l441 442l442 -442l-442 -440zM502 809l104 -104l211 210l105 -106l-211 -209l106 -104l313 313l-419 420l-105 -105l105 -104z" />
<glyph unicode="V" horiz-adv-x="1089" d="M8 1012v237h365l100 -622q6 -37 10 -74t9 -68q4 -37 8 -67h4q2 31 6 67q4 31 9 68t11 74l187 1093h303l-367 -1720h-329l-230 1012h-86z" />
<glyph unicode="W" d="M270 809l441 442l442 -442l-442 -440zM502 809l104 -104l211 210l105 -106l-211 -209l106 -104l313 313l-419 420l-105 -105l105 -104z" />
<glyph unicode="X" d="M270 809l441 442l442 -442l-442 -440zM502 809l104 -104l211 210l105 -106l-211 -209l106 -104l313 313l-419 420l-105 -105l105 -104z" />
<glyph unicode="Y" horiz-adv-x="1003" d="M8 1720h354l152 -649h4l154 649h323l-329 -1003v-717h-328v717zM420 1831l86 276q70 47 156 47q41 0 74.5 -12t43.5 -35l-215 -276h-145z" />
<glyph unicode="Z" horiz-adv-x="839" d="M33 0l362 1450h-329v270h720l-346 -1444h346v-276h-753zM147 2075l68 84l211 -138l209 138l67 -84l-194 -211q-37 -41 -82 -41q-47 0 -84 41z" />
<glyph unicode="[" d="M270 809l441 442l442 -442l-442 -440zM502 809l104 -104l211 210l105 -106l-211 -209l106 -104l313 313l-419 420l-105 -105l105 -104z" />
<glyph unicode="\" d="M270 809l441 442l442 -442l-442 -440zM502 809l104 -104l211 210l105 -106l-211 -209l106 -104l313 313l-419 420l-105 -105l105 -104z" />
<glyph unicode="]" d="M270 809l441 442l442 -442l-442 -440zM502 809l104 -104l211 210l105 -106l-211 -209l106 -104l313 313l-419 420l-105 -105l105 -104z" />
<glyph unicode="^" d="M270 809l441 442l442 -442l-442 -440zM502 809l104 -104l211 210l105 -106l-211 -209l106 -104l313 313l-419 420l-105 -105l105 -104z" />
<glyph unicode="_" horiz-adv-x="516" d="M-18 1421l192 211q35 39 84 39t84 -39l193 -211l-68 -86l-209 140l-209 -140z" />
<glyph unicode="`" d="M270 809l441 442l442 -442l-442 -440zM502 809l104 -104l211 210l105 -106l-211 -209l106 -104l313 313l-419 420l-105 -105l105 -104z" />
<glyph unicode="a" horiz-adv-x="1220" d="M55 1450v270h1110v-270h-110v-1450h-330v1450h-229v-1450h-330v1450h-111z" />
<glyph unicode="b" d="M270 809l441 442l442 -442l-442 -440zM502 809l104 -104l211 210l105 -106l-211 -209l106 -104l313 313l-419 420l-105 -105l105 -104z" />
<glyph unicode="c" horiz-adv-x="516" d="M106 -221q0 76 57.5 133t153.5 104h177q-86 -47 -132.5 -102t-46.5 -102q0 -29 19.5 -43.5t52.5 -14.5q29 0 61.5 10.5t63.5 26.5l29 -106q-47 -35 -107.5 -50.5t-120.5 -15.5q-86 0 -146.5 44t-60.5 116z" />
<glyph unicode="d" horiz-adv-x="987" d="M68 625q0 322 104 479.5t274 157.5q33 0 64 -11q-25 76 -59 150l-152 -55q-6 12 -16.5 33.5t-22.5 43t-24.5 42t-20.5 32.5l152 55q-18 29 -37 54.5t-41 52.5l268 86q39 -47 74 -98l147 53q8 -12 21.5 -32.5t26 -42t23.5 -41t17 -32.5l-145 -53q98 -188 146 -410t48 -464 q0 -324 -107.5 -484.5t-315.5 -160.5q-209 0 -316.5 160.5t-107.5 484.5zM389 633q0 -111 5 -186.5t17.5 -124t32 -70t48.5 -21.5q57 0 79.5 91.5t22.5 310.5q0 109 -8 209t-25 194q-23 6 -55 6q-59 0 -88 -93t-29 -316z" />
<glyph unicode="e" horiz-adv-x="1134" d="M80 315l137 193q-41 59 -64.5 132t-23.5 159t21.5 158.5t62.5 129.5l-133 185l192 137l127 -174q80 35 168 35t168 -35l127 174l193 -137l-133 -185q41 -57 62.5 -129.5t21.5 -158.5t-24 -159t-64 -132l137 -193l-193 -137l-131 182q-72 -32 -159 -32h-5q-90 0 -164 32 l-131 -182zM434 807q0 -113 36 -181.5t97 -68.5t97 68.5t36 181.5t-35.5 182.5t-97.5 69.5q-61 0 -97 -69.5t-36 -182.5z" />
<glyph unicode="f" horiz-adv-x="1165" d="M55 1012v237h92v113q0 201 94.5 289t256.5 88q43 0 94 -10v-230q-10 2 -20.5 2h-20.5q-41 0 -63.5 -29.5t-22.5 -101.5v-121h127v-237h-127v-1012h-318v1012h-92zM737 1569q0 72 50.5 122t121.5 50q72 0 122 -50t50 -122t-50 -122t-122 -50t-122 50t-50 122zM750 0v1249 h319v-1249h-319z" />
<glyph unicode="g" d="M270 809l441 442l442 -442l-442 -440zM502 809l104 -104l211 210l105 -106l-211 -209l106 -104l313 313l-419 420l-105 -105l105 -104z" />
<glyph unicode="h" d="M270 809l441 442l442 -442l-442 -440zM502 809l104 -104l211 210l105 -106l-211 -209l106 -104l313 313l-419 420l-105 -105l105 -104z" />
<glyph unicode="i" horiz-adv-x="512" d="M96 0v1249h318v-1249h-318z" />
<glyph unicode="j" d="M270 809l441 442l442 -442l-442 -440zM502 809l104 -104l211 210l105 -106l-211 -209l106 -104l313 313l-419 420l-105 -105l105 -104z" />
<glyph unicode="k" d="M270 809l441 442l442 -442l-442 -440zM502 809l104 -104l211 210l105 -106l-211 -209l106 -104l313 313l-419 420l-105 -105l105 -104z" />
<glyph unicode="l" horiz-adv-x="591" d="M51 764v260l82 35v661h318v-530l94 39v-260l-94 -39v-930h-318v799z" />
<glyph unicode="m" d="M270 809l441 442l442 -442l-442 -440zM502 809l104 -104l211 210l105 -106l-211 -209l106 -104l313 313l-419 420l-105 -105l105 -104z" />
<glyph unicode="n" d="M270 809l441 442l442 -442l-442 -440zM502 809l104 -104l211 210l105 -106l-211 -209l106 -104l313 313l-419 420l-105 -105l105 -104z" />
<glyph unicode="o" d="M270 809l441 442l442 -442l-442 -440zM502 809l104 -104l211 210l105 -106l-211 -209l106 -104l313 313l-419 420l-105 -105l105 -104z" />
<glyph unicode="p" horiz-adv-x="1167" d="M57 1012v237h1028v-237h-106v-643q0 -129 106 -129v-240h-108q-147 0 -232.5 97.5t-85.5 271.5v643h-176v-1012h-319v1012h-107z" />
<glyph unicode="q" d="M270 809l441 442l442 -442l-442 -440zM502 809l104 -104l211 210l105 -106l-211 -209l106 -104l313 313l-419 420l-105 -105l105 -104z" />
<glyph unicode="r" d="M270 809l441 442l442 -442l-442 -440zM502 809l104 -104l211 210l105 -106l-211 -209l106 -104l313 313l-419 420l-105 -105l105 -104z" />
<glyph unicode="s" horiz-adv-x="745" d="M43 61l70 244q23 -20 65.5 -36.5t87.5 -16.5t72 27.5t27 72.5q0 47 -23 83t-57.5 70t-74.5 68.5t-75 79.5t-57.5 105.5t-22.5 142.5t23.5 149.5t67.5 117t108.5 76t146.5 26.5q92 0 161 -24.5t112 -57.5l-68 -223q-23 16 -56.5 29.5t-78.5 13.5q-51 0 -76.5 -29 t-25.5 -78q0 -45 23.5 -79t60 -65.5t77.5 -66.5t78 -81t60.5 -108.5t23.5 -148.5q0 -84 -26.5 -152.5t-75.5 -117.5t-118 -75.5t-150 -26.5q-100 0 -164 23.5t-115 57.5zM109 1604l67 84l209 -138l209 138l68 -84l-193 -211q-37 -41 -84 -41t-84 41z" />
<glyph unicode="t" horiz-adv-x="997" d="M96 -328v2048h316v-487q27 12 63.5 20.5t95.5 8.5q82 0 147.5 -42t113 -120t73 -188.5t25.5 -247.5q0 -344 -115 -510t-342 -166q-39 0 -61 8v-324h-316zM412 244l25.5 -8.5t31.5 -4.5q82 0 110.5 101.5t28.5 306.5t-28.5 296t-102.5 91q-20 0 -36.5 -4t-28.5 -8v-770z " />
<glyph unicode="u" d="M270 809l441 442l442 -442l-442 -440zM502 809l104 -104l211 210l105 -106l-211 -209l106 -104l313 313l-419 420l-105 -105l105 -104z" />
<glyph unicode="v" d="M270 809l441 442l442 -442l-442 -440zM502 809l104 -104l211 210l105 -106l-211 -209l106 -104l313 313l-419 420l-105 -105l105 -104z" />
<glyph unicode="w" d="M270 809l441 442l442 -442l-442 -440zM502 809l104 -104l211 210l105 -106l-211 -209l106 -104l313 313l-419 420l-105 -105l105 -104z" />
<glyph unicode="x" horiz-adv-x="991" d="M90 508l256 311l-256 311l180 144l226 -275l225 275l180 -144l-256 -311l256 -311l-180 -143l-225 274l-226 -274z" />
<glyph unicode="y" horiz-adv-x="946" d="M27 1249h331l101 -631q6 -37 10 -73.5t8 -67.5q4 -37 6 -69h4q2 33 9 69q4 31 9 68t11 73l107 631h297l-375 -1577h-322l107 377zM397 1360l88 276q70 47 156 47q41 0 75 -12t44 -35l-215 -276h-148z" />
<glyph unicode="z" horiz-adv-x="749" d="M49 0l268 1012h-251v237h620l-250 -1003h254v-246h-641zM94 1604l68 84l209 -138l209 138l67 -84l-192 -211q-37 -41 -84 -41t-84 41z" />
<glyph unicode="{" d="M270 809l441 442l442 -442l-442 -440zM502 809l104 -104l211 210l105 -106l-211 -209l106 -104l313 313l-419 420l-105 -105l105 -104z" />
<glyph unicode="|" d="M270 809l441 442l442 -442l-442 -440zM502 809l104 -104l211 210l105 -106l-211 -209l106 -104l313 313l-419 420l-105 -105l105 -104z" />
<glyph unicode="}" d="M270 809l441 442l442 -442l-442 -440zM502 809l104 -104l211 210l105 -106l-211 -209l106 -104l313 313l-419 420l-105 -105l105 -104z" />
<glyph unicode="~" d="M270 809l441 442l442 -442l-442 -440zM502 809l104 -104l211 210l105 -106l-211 -209l106 -104l313 313l-419 420l-105 -105l105 -104z" />
<glyph unicode="&#xa1;" d="M270 809l441 442l442 -442l-442 -440zM502 809l104 -104l211 210l105 -106l-211 -209l106 -104l313 313l-419 420l-105 -105l105 -104z" />
<glyph unicode="&#xa2;" d="M270 809l441 442l442 -442l-442 -440zM502 809l104 -104l211 210l105 -106l-211 -209l106 -104l313 313l-419 420l-105 -105l105 -104z" />
<glyph unicode="&#xa3;" d="M270 809l441 442l442 -442l-442 -440zM502 809l104 -104l211 210l105 -106l-211 -209l106 -104l313 313l-419 420l-105 -105l105 -104z" />
<glyph unicode="&#xa4;" horiz-adv-x="1134" d="M80 315l137 193q-41 59 -64.5 132t-23.5 159t21.5 158.5t62.5 129.5l-133 185l192 137l127 -174q80 35 168 35t168 -35l127 174l193 -137l-133 -185q41 -57 62.5 -129.5t21.5 -158.5t-24 -159t-64 -132l137 -193l-193 -137l-131 182q-74 -33 -164 -32q-90 0 -164 32 l-131 -182zM434 807q0 -113 36 -181.5t97 -68.5t97 68.5t36 181.5t-35.5 182.5t-97.5 69.5q-61 0 -97 -69.5t-36 -182.5z" />
<glyph unicode="&#xa5;" d="M270 809l441 442l442 -442l-442 -440zM502 809l104 -104l211 210l105 -106l-211 -209l106 -104l313 313l-419 420l-105 -105l105 -104z" />
<glyph unicode="&#xa6;" d="M270 809l441 442l442 -442l-442 -440zM502 809l104 -104l211 210l105 -106l-211 -209l106 -104l313 313l-419 420l-105 -105l105 -104z" />
<glyph unicode="&#xa7;" d="M270 809l441 442l442 -442l-442 -440zM502 809l104 -104l211 210l105 -106l-211 -209l106 -104l313 313l-419 420l-105 -105l105 -104z" />
<glyph unicode="&#xa8;" d="M270 809l441 442l442 -442l-442 -440zM502 809l104 -104l211 210l105 -106l-211 -209l106 -104l313 313l-419 420l-105 -105l105 -104z" />
<glyph unicode="&#xa9;" d="M270 809l441 442l442 -442l-442 -440zM502 809l104 -104l211 210l105 -106l-211 -209l106 -104l313 313l-419 420l-105 -105l105 -104z" />
<glyph unicode="&#xaa;" d="M270 809l441 442l442 -442l-442 -440zM502 809l104 -104l211 210l105 -106l-211 -209l106 -104l313 313l-419 420l-105 -105l105 -104z" />
<glyph unicode="&#xab;" d="M270 809l441 442l442 -442l-442 -440zM502 809l104 -104l211 210l105 -106l-211 -209l106 -104l313 313l-419 420l-105 -105l105 -104z" />
<glyph unicode="&#xac;" d="M270 809l441 442l442 -442l-442 -440zM502 809l104 -104l211 210l105 -106l-211 -209l106 -104l313 313l-419 420l-105 -105l105 -104z" />
<glyph unicode="&#xad;" horiz-adv-x="991" d="M100 705v225h791v-225h-791z" />
<glyph unicode="&#xae;" d="M270 809l441 442l442 -442l-442 -440zM502 809l104 -104l211 210l105 -106l-211 -209l106 -104l313 313l-419 420l-105 -105l105 -104z" />
<glyph unicode="&#xaf;" d="M270 809l441 442l442 -442l-442 -440zM502 809l104 -104l211 210l105 -106l-211 -209l106 -104l313 313l-419 420l-105 -105l105 -104z" />
<glyph unicode="&#xb0;" d="M270 809l441 442l442 -442l-442 -440zM502 809l104 -104l211 210l105 -106l-211 -209l106 -104l313 313l-419 420l-105 -105l105 -104z" />
<glyph unicode="&#xb1;" d="M270 809l441 442l442 -442l-442 -440zM502 809l104 -104l211 210l105 -106l-211 -209l106 -104l313 313l-419 420l-105 -105l105 -104z" />
<glyph unicode="&#xb2;" d="M270 809l441 442l442 -442l-442 -440zM502 809l104 -104l211 210l105 -106l-211 -209l106 -104l313 313l-419 420l-105 -105l105 -104z" />
<glyph unicode="&#xb3;" d="M270 809l441 442l442 -442l-442 -440zM502 809l104 -104l211 210l105 -106l-211 -209l106 -104l313 313l-419 420l-105 -105l105 -104z" />
<glyph unicode="&#xb4;" d="M270 809l441 442l442 -442l-442 -440zM502 809l104 -104l211 210l105 -106l-211 -209l106 -104l313 313l-419 420l-105 -105l105 -104z" />
<glyph unicode="&#xb6;" horiz-adv-x="991" d="M27 1317q0 88 22.5 162.5t70.5 128t123.5 83t182.5 29.5h512v-180h-88v-1868h-197v1868h-176v-1868h-198v1264q-123 35 -187.5 135t-64.5 246z" />
<glyph unicode="&#xb7;" horiz-adv-x="542" d="M78 797q0 39 15.5 74.5t41 61t60 41t75.5 15.5q39 0 75 -15.5t62.5 -41t42 -61t15.5 -74.5q0 -41 -15.5 -76t-42 -61.5t-62.5 -42t-75 -15.5q-41 0 -75.5 15.5t-60 42t-41 61.5t-15.5 76z" />
<glyph unicode="&#xb8;" d="M270 809l441 442l442 -442l-442 -440zM502 809l104 -104l211 210l105 -106l-211 -209l106 -104l313 313l-419 420l-105 -105l105 -104z" />
<glyph unicode="&#xb9;" d="M270 809l441 442l442 -442l-442 -440zM502 809l104 -104l211 210l105 -106l-211 -209l106 -104l313 313l-419 420l-105 -105l105 -104z" />
<glyph unicode="&#xba;" d="M270 809l441 442l442 -442l-442 -440zM502 809l104 -104l211 210l105 -106l-211 -209l106 -104l313 313l-419 420l-105 -105l105 -104z" />
<glyph unicode="&#xbb;" d="M270 809l441 442l442 -442l-442 -440zM502 809l104 -104l211 210l105 -106l-211 -209l106 -104l313 313l-419 420l-105 -105l105 -104z" />
<glyph unicode="&#xbc;" d="M270 809l441 442l442 -442l-442 -440zM502 809l104 -104l211 210l105 -106l-211 -209l106 -104l313 313l-419 420l-105 -105l105 -104z" />
<glyph unicode="&#xbd;" d="M270 809l441 442l442 -442l-442 -440zM502 809l104 -104l211 210l105 -106l-211 -209l106 -104l313 313l-419 420l-105 -105l105 -104z" />
<glyph unicode="&#xbe;" d="M270 809l441 442l442 -442l-442 -440zM502 809l104 -104l211 210l105 -106l-211 -209l106 -104l313 313l-419 420l-105 -105l105 -104z" />
<glyph unicode="&#xbf;" d="M270 809l441 442l442 -442l-442 -440zM502 809l104 -104l211 210l105 -106l-211 -209l106 -104l313 313l-419 420l-105 -105l105 -104z" />
<glyph unicode="&#xc0;" d="M270 809l441 442l442 -442l-442 -440zM502 809l104 -104l211 210l105 -106l-211 -209l106 -104l313 313l-419 420l-105 -105l105 -104z" />
<glyph unicode="&#xc1;" d="M270 809l441 442l442 -442l-442 -440zM502 809l104 -104l211 210l105 -106l-211 -209l106 -104l313 313l-419 420l-105 -105l105 -104z" />
<glyph unicode="&#xc2;" d="M270 809l441 442l442 -442l-442 -440zM502 809l104 -104l211 210l105 -106l-211 -209l106 -104l313 313l-419 420l-105 -105l105 -104z" />
<glyph unicode="&#xc3;" d="M270 809l441 442l442 -442l-442 -440zM502 809l104 -104l211 210l105 -106l-211 -209l106 -104l313 313l-419 420l-105 -105l105 -104z" />
<glyph unicode="&#xc4;" d="M270 809l441 442l442 -442l-442 -440zM502 809l104 -104l211 210l105 -106l-211 -209l106 -104l313 313l-419 420l-105 -105l105 -104z" />
<glyph unicode="&#xc5;" d="M270 809l441 442l442 -442l-442 -440zM502 809l104 -104l211 210l105 -106l-211 -209l106 -104l313 313l-419 420l-105 -105l105 -104z" />
<glyph unicode="&#xc6;" d="M270 809l441 442l442 -442l-442 -440zM502 809l104 -104l211 210l105 -106l-211 -209l106 -104l313 313l-419 420l-105 -105l105 -104z" />
<glyph unicode="&#xc7;" d="M270 809l441 442l442 -442l-442 -440zM502 809l104 -104l211 210l105 -106l-211 -209l106 -104l313 313l-419 420l-105 -105l105 -104z" />
<glyph unicode="&#xc8;" d="M270 809l441 442l442 -442l-442 -440zM502 809l104 -104l211 210l105 -106l-211 -209l106 -104l313 313l-419 420l-105 -105l105 -104z" />
<glyph unicode="&#xc9;" d="M270 809l441 442l442 -442l-442 -440zM502 809l104 -104l211 210l105 -106l-211 -209l106 -104l313 313l-419 420l-105 -105l105 -104z" />
<glyph unicode="&#xca;" d="M270 809l441 442l442 -442l-442 -440zM502 809l104 -104l211 210l105 -106l-211 -209l106 -104l313 313l-419 420l-105 -105l105 -104z" />
<glyph unicode="&#xcb;" d="M270 809l441 442l442 -442l-442 -440zM502 809l104 -104l211 210l105 -106l-211 -209l106 -104l313 313l-419 420l-105 -105l105 -104z" />
<glyph unicode="&#xcc;" d="M270 809l441 442l442 -442l-442 -440zM502 809l104 -104l211 210l105 -106l-211 -209l106 -104l313 313l-419 420l-105 -105l105 -104z" />
<glyph unicode="&#xcd;" d="M270 809l441 442l442 -442l-442 -440zM502 809l104 -104l211 210l105 -106l-211 -209l106 -104l313 313l-419 420l-105 -105l105 -104z" />
<glyph unicode="&#xce;" d="M270 809l441 442l442 -442l-442 -440zM502 809l104 -104l211 210l105 -106l-211 -209l106 -104l313 313l-419 420l-105 -105l105 -104z" />
<glyph unicode="&#xcf;" d="M270 809l441 442l442 -442l-442 -440zM502 809l104 -104l211 210l105 -106l-211 -209l106 -104l313 313l-419 420l-105 -105l105 -104z" />
<glyph unicode="&#xd0;" d="M270 809l441 442l442 -442l-442 -440zM502 809l104 -104l211 210l105 -106l-211 -209l106 -104l313 313l-419 420l-105 -105l105 -104z" />
<glyph unicode="&#xd1;" d="M270 809l441 442l442 -442l-442 -440zM502 809l104 -104l211 210l105 -106l-211 -209l106 -104l313 313l-419 420l-105 -105l105 -104z" />
<glyph unicode="&#xd2;" d="M270 809l441 442l442 -442l-442 -440zM502 809l104 -104l211 210l105 -106l-211 -209l106 -104l313 313l-419 420l-105 -105l105 -104z" />
<glyph unicode="&#xd3;" d="M270 809l441 442l442 -442l-442 -440zM502 809l104 -104l211 210l105 -106l-211 -209l106 -104l313 313l-419 420l-105 -105l105 -104z" />
<glyph unicode="&#xd4;" d="M270 809l441 442l442 -442l-442 -440zM502 809l104 -104l211 210l105 -106l-211 -209l106 -104l313 313l-419 420l-105 -105l105 -104z" />
<glyph unicode="&#xd5;" d="M270 809l441 442l442 -442l-442 -440zM502 809l104 -104l211 210l105 -106l-211 -209l106 -104l313 313l-419 420l-105 -105l105 -104z" />
<glyph unicode="&#xd6;" d="M270 809l441 442l442 -442l-442 -440zM502 809l104 -104l211 210l105 -106l-211 -209l106 -104l313 313l-419 420l-105 -105l105 -104z" />
<glyph unicode="&#xd7;" d="M270 809l441 442l442 -442l-442 -440zM502 809l104 -104l211 210l105 -106l-211 -209l106 -104l313 313l-419 420l-105 -105l105 -104z" />
<glyph unicode="&#xd8;" d="M270 809l441 442l442 -442l-442 -440zM502 809l104 -104l211 210l105 -106l-211 -209l106 -104l313 313l-419 420l-105 -105l105 -104z" />
<glyph unicode="&#xd9;" d="M270 809l441 442l442 -442l-442 -440zM502 809l104 -104l211 210l105 -106l-211 -209l106 -104l313 313l-419 420l-105 -105l105 -104z" />
<glyph unicode="&#xda;" d="M270 809l441 442l442 -442l-442 -440zM502 809l104 -104l211 210l105 -106l-211 -209l106 -104l313 313l-419 420l-105 -105l105 -104z" />
<glyph unicode="&#xdb;" d="M270 809l441 442l442 -442l-442 -440zM502 809l104 -104l211 210l105 -106l-211 -209l106 -104l313 313l-419 420l-105 -105l105 -104z" />
<glyph unicode="&#xdc;" d="M270 809l441 442l442 -442l-442 -440zM502 809l104 -104l211 210l105 -106l-211 -209l106 -104l313 313l-419 420l-105 -105l105 -104z" />
<glyph unicode="&#xdd;" d="M270 809l441 442l442 -442l-442 -440zM502 809l104 -104l211 210l105 -106l-211 -209l106 -104l313 313l-419 420l-105 -105l105 -104z" />
<glyph unicode="&#xde;" d="M270 809l441 442l442 -442l-442 -440zM502 809l104 -104l211 210l105 -106l-211 -209l106 -104l313 313l-419 420l-105 -105l105 -104z" />
<glyph unicode="&#xdf;" d="M270 809l441 442l442 -442l-442 -440zM502 809l104 -104l211 210l105 -106l-211 -209l106 -104l313 313l-419 420l-105 -105l105 -104z" />
<glyph unicode="&#xe0;" d="M270 809l441 442l442 -442l-442 -440zM502 809l104 -104l211 210l105 -106l-211 -209l106 -104l313 313l-419 420l-105 -105l105 -104z" />
<glyph unicode="&#xe1;" d="M270 809l441 442l442 -442l-442 -440zM502 809l104 -104l211 210l105 -106l-211 -209l106 -104l313 313l-419 420l-105 -105l105 -104z" />
<glyph unicode="&#xe2;" d="M270 809l441 442l442 -442l-442 -440zM502 809l104 -104l211 210l105 -106l-211 -209l106 -104l313 313l-419 420l-105 -105l105 -104z" />
<glyph unicode="&#xe3;" d="M270 809l441 442l442 -442l-442 -440zM502 809l104 -104l211 210l105 -106l-211 -209l106 -104l313 313l-419 420l-105 -105l105 -104z" />
<glyph unicode="&#xe4;" d="M270 809l441 442l442 -442l-442 -440zM502 809l104 -104l211 210l105 -106l-211 -209l106 -104l313 313l-419 420l-105 -105l105 -104z" />
<glyph unicode="&#xe5;" d="M270 809l441 442l442 -442l-442 -440zM502 809l104 -104l211 210l105 -106l-211 -209l106 -104l313 313l-419 420l-105 -105l105 -104z" />
<glyph unicode="&#xe6;" d="M270 809l441 442l442 -442l-442 -440zM502 809l104 -104l211 210l105 -106l-211 -209l106 -104l313 313l-419 420l-105 -105l105 -104z" />
<glyph unicode="&#xe7;" d="M270 809l441 442l442 -442l-442 -440zM502 809l104 -104l211 210l105 -106l-211 -209l106 -104l313 313l-419 420l-105 -105l105 -104z" />
<glyph unicode="&#xe8;" d="M270 809l441 442l442 -442l-442 -440zM502 809l104 -104l211 210l105 -106l-211 -209l106 -104l313 313l-419 420l-105 -105l105 -104z" />
<glyph unicode="&#xe9;" d="M270 809l441 442l442 -442l-442 -440zM502 809l104 -104l211 210l105 -106l-211 -209l106 -104l313 313l-419 420l-105 -105l105 -104z" />
<glyph unicode="&#xea;" d="M270 809l441 442l442 -442l-442 -440zM502 809l104 -104l211 210l105 -106l-211 -209l106 -104l313 313l-419 420l-105 -105l105 -104z" />
<glyph unicode="&#xeb;" d="M270 809l441 442l442 -442l-442 -440zM502 809l104 -104l211 210l105 -106l-211 -209l106 -104l313 313l-419 420l-105 -105l105 -104z" />
<glyph unicode="&#xec;" d="M270 809l441 442l442 -442l-442 -440zM502 809l104 -104l211 210l105 -106l-211 -209l106 -104l313 313l-419 420l-105 -105l105 -104z" />
<glyph unicode="&#xed;" d="M270 809l441 442l442 -442l-442 -440zM502 809l104 -104l211 210l105 -106l-211 -209l106 -104l313 313l-419 420l-105 -105l105 -104z" />
<glyph unicode="&#xee;" d="M270 809l441 442l442 -442l-442 -440zM502 809l104 -104l211 210l105 -106l-211 -209l106 -104l313 313l-419 420l-105 -105l105 -104z" />
<glyph unicode="&#xef;" d="M270 809l441 442l442 -442l-442 -440zM502 809l104 -104l211 210l105 -106l-211 -209l106 -104l313 313l-419 420l-105 -105l105 -104z" />
<glyph unicode="&#xf0;" d="M270 809l441 442l442 -442l-442 -440zM502 809l104 -104l211 210l105 -106l-211 -209l106 -104l313 313l-419 420l-105 -105l105 -104z" />
<glyph unicode="&#xf1;" d="M270 809l441 442l442 -442l-442 -440zM502 809l104 -104l211 210l105 -106l-211 -209l106 -104l313 313l-419 420l-105 -105l105 -104z" />
<glyph unicode="&#xf2;" d="M270 809l441 442l442 -442l-442 -440zM502 809l104 -104l211 210l105 -106l-211 -209l106 -104l313 313l-419 420l-105 -105l105 -104z" />
<glyph unicode="&#xf3;" d="M270 809l441 442l442 -442l-442 -440zM502 809l104 -104l211 210l105 -106l-211 -209l106 -104l313 313l-419 420l-105 -105l105 -104z" />
<glyph unicode="&#xf4;" d="M270 809l441 442l442 -442l-442 -440zM502 809l104 -104l211 210l105 -106l-211 -209l106 -104l313 313l-419 420l-105 -105l105 -104z" />
<glyph unicode="&#xf5;" d="M270 809l441 442l442 -442l-442 -440zM502 809l104 -104l211 210l105 -106l-211 -209l106 -104l313 313l-419 420l-105 -105l105 -104z" />
<glyph unicode="&#xf6;" d="M270 809l441 442l442 -442l-442 -440zM502 809l104 -104l211 210l105 -106l-211 -209l106 -104l313 313l-419 420l-105 -105l105 -104z" />
<glyph unicode="&#xf7;" d="M270 809l441 442l442 -442l-442 -440zM502 809l104 -104l211 210l105 -106l-211 -209l106 -104l313 313l-419 420l-105 -105l105 -104z" />
<glyph unicode="&#xf8;" d="M270 809l441 442l442 -442l-442 -440zM502 809l104 -104l211 210l105 -106l-211 -209l106 -104l313 313l-419 420l-105 -105l105 -104z" />
<glyph unicode="&#xf9;" d="M270 809l441 442l442 -442l-442 -440zM502 809l104 -104l211 210l105 -106l-211 -209l106 -104l313 313l-419 420l-105 -105l105 -104z" />
<glyph unicode="&#xfa;" d="M270 809l441 442l442 -442l-442 -440zM502 809l104 -104l211 210l105 -106l-211 -209l106 -104l313 313l-419 420l-105 -105l105 -104z" />
<glyph unicode="&#xfb;" d="M270 809l441 442l442 -442l-442 -440zM502 809l104 -104l211 210l105 -106l-211 -209l106 -104l313 313l-419 420l-105 -105l105 -104z" />
<glyph unicode="&#xfc;" d="M270 809l441 442l442 -442l-442 -440zM502 809l104 -104l211 210l105 -106l-211 -209l106 -104l313 313l-419 420l-105 -105l105 -104z" />
<glyph unicode="&#xfd;" d="M270 809l441 442l442 -442l-442 -440zM502 809l104 -104l211 210l105 -106l-211 -209l106 -104l313 313l-419 420l-105 -105l105 -104z" />
<glyph unicode="&#xfe;" d="M270 809l441 442l442 -442l-442 -440zM502 809l104 -104l211 210l105 -106l-211 -209l106 -104l313 313l-419 420l-105 -105l105 -104z" />
<glyph unicode="&#xff;" d="M270 809l441 442l442 -442l-442 -440zM502 809l104 -104l211 210l105 -106l-211 -209l106 -104l313 313l-419 420l-105 -105l105 -104z" />
<glyph unicode="&#x152;" d="M270 809l441 442l442 -442l-442 -440zM502 809l104 -104l211 210l105 -106l-211 -209l106 -104l313 313l-419 420l-105 -105l105 -104z" />
<glyph unicode="&#x153;" d="M270 809l441 442l442 -442l-442 -440zM502 809l104 -104l211 210l105 -106l-211 -209l106 -104l313 313l-419 420l-105 -105l105 -104z" />
<glyph unicode="&#x178;" d="M270 809l441 442l442 -442l-442 -440zM502 809l104 -104l211 210l105 -106l-211 -209l106 -104l313 313l-419 420l-105 -105l105 -104z" />
<glyph unicode="&#x2c6;" d="M270 809l441 442l442 -442l-442 -440zM502 809l104 -104l211 210l105 -106l-211 -209l106 -104l313 313l-419 420l-105 -105l105 -104z" />
<glyph unicode="&#x2dc;" d="M270 809l441 442l442 -442l-442 -440zM502 809l104 -104l211 210l105 -106l-211 -209l106 -104l313 313l-419 420l-105 -105l105 -104z" />
<glyph unicode="&#x2000;" horiz-adv-x="1079" />
<glyph unicode="&#x2001;" horiz-adv-x="2159" />
<glyph unicode="&#x2002;" horiz-adv-x="1079" />
<glyph unicode="&#x2003;" horiz-adv-x="2159" />
<glyph unicode="&#x2004;" horiz-adv-x="719" />
<glyph unicode="&#x2005;" horiz-adv-x="539" />
<glyph unicode="&#x2006;" horiz-adv-x="359" />
<glyph unicode="&#x2007;" horiz-adv-x="359" />
<glyph unicode="&#x2008;" horiz-adv-x="269" />
<glyph unicode="&#x2009;" horiz-adv-x="431" />
<glyph unicode="&#x200a;" horiz-adv-x="119" />
<glyph unicode="&#x2010;" horiz-adv-x="991" d="M100 705v225h791v-225h-791z" />
<glyph unicode="&#x2011;" horiz-adv-x="991" d="M100 705v225h791v-225h-791z" />
<glyph unicode="&#x2012;" horiz-adv-x="991" d="M100 705v225h791v-225h-791z" />
<glyph unicode="&#x2013;" d="M270 809l441 442l442 -442l-442 -440zM502 809l104 -104l211 210l105 -106l-211 -209l106 -104l313 313l-419 420l-105 -105l105 -104z" />
<glyph unicode="&#x2014;" d="M270 809l441 442l442 -442l-442 -440zM502 809l104 -104l211 210l105 -106l-211 -209l106 -104l313 313l-419 420l-105 -105l105 -104z" />
<glyph unicode="&#x2018;" d="M270 809l441 442l442 -442l-442 -440zM502 809l104 -104l211 210l105 -106l-211 -209l106 -104l313 313l-419 420l-105 -105l105 -104z" />
<glyph unicode="&#x2019;" d="M270 809l441 442l442 -442l-442 -440zM502 809l104 -104l211 210l105 -106l-211 -209l106 -104l313 313l-419 420l-105 -105l105 -104z" />
<glyph unicode="&#x201a;" d="M270 809l441 442l442 -442l-442 -440zM502 809l104 -104l211 210l105 -106l-211 -209l106 -104l313 313l-419 420l-105 -105l105 -104z" />
<glyph unicode="&#x201c;" d="M270 809l441 442l442 -442l-442 -440zM502 809l104 -104l211 210l105 -106l-211 -209l106 -104l313 313l-419 420l-105 -105l105 -104z" />
<glyph unicode="&#x201d;" d="M270 809l441 442l442 -442l-442 -440zM502 809l104 -104l211 210l105 -106l-211 -209l106 -104l313 313l-419 420l-105 -105l105 -104z" />
<glyph unicode="&#x201e;" d="M270 809l441 442l442 -442l-442 -440zM502 809l104 -104l211 210l105 -106l-211 -209l106 -104l313 313l-419 420l-105 -105l105 -104z" />
<glyph unicode="&#x2022;" horiz-adv-x="778" d="M74 815q0 66 24.5 123t67.5 100t100.5 67.5t122.5 24.5q66 0 123 -24.5t100 -67.5t68 -100t25 -123t-25 -123t-68 -100t-100 -67.5t-123 -24.5t-123 24.5t-100 67.5t-67.5 100.5t-24.5 122.5z" />
<glyph unicode="&#x2026;" d="M270 809l441 442l442 -442l-442 -440zM502 809l104 -104l211 210l105 -106l-211 -209l106 -104l313 313l-419 420l-105 -105l105 -104z" />
<glyph unicode="&#x202f;" horiz-adv-x="431" />
<glyph unicode="&#x2039;" d="M270 809l441 442l442 -442l-442 -440zM502 809l104 -104l211 210l105 -106l-211 -209l106 -104l313 313l-419 420l-105 -105l105 -104z" />
<glyph unicode="&#x203a;" d="M270 809l441 442l442 -442l-442 -440zM502 809l104 -104l211 210l105 -106l-211 -209l106 -104l313 313l-419 420l-105 -105l105 -104z" />
<glyph unicode="&#x205f;" horiz-adv-x="539" />
<glyph unicode="&#x20ac;" horiz-adv-x="1249" d="M84 582v200l162 -16q-4 53 -3 103.5t5 103.5l-164 -17v201l180 -20q53 309 218 458.5t401 149.5q117 0 188.5 -28.5t112.5 -57.5l-88 -234q-29 16 -78 28.5t-96 12.5q-125 0 -208 -79.5t-118 -247.5l422 18v-201l-443 21q-6 -109 0 -215l443 20v-200l-420 18 q35 -168 117 -250t207 -82q49 0 97 12.5t77 28.5l88 -248q-41 -29 -113 -57.5t-188 -28.5q-119 0 -221.5 38t-182.5 116t-136 195.5t-81 275.5z" />
<glyph unicode="&#x2122;" d="M270 809l441 442l442 -442l-442 -440zM502 809l104 -104l211 210l105 -106l-211 -209l106 -104l313 313l-419 420l-105 -105l105 -104z" />
<glyph unicode="&#x25fc;" horiz-adv-x="1269" d="M0 0v1270h1270v-1270h-1270z" />
</font>
</defs>
</svg>
